ISO-10303-21;
HEADER;
/* Generated by software containing ST-Developer
 * from STEP Tools, Inc. (www.steptools.com) 
 */

FILE_DESCRIPTION(
/* description */ (''),
/* implementation_level */ '2;1');

FILE_NAME(
/* name */ 'Bottom Plane.step',
/* time_stamp */ '2025-04-08T23:29:14+07:00',
/* author */ (''),
/* organization */ (''),
/* preprocessor_version */ 'ST-DEVELOPER v20.1',
/* originating_system */ 'Autodesk Translation Framework v14.4.0.0',
/* authorisation */ '');

FILE_SCHEMA (('AUTOMOTIVE_DESIGN { 1 0 10303 214 3 1 1 }'));
ENDSEC;

DATA;
#10=MECHANICAL_DESIGN_GEOMETRIC_PRESENTATION_REPRESENTATION('',(#13),#2552);
#11=SHAPE_REPRESENTATION_RELATIONSHIP('SRR','None',#2559,#12);
#12=ADVANCED_BREP_SHAPE_REPRESENTATION('',(#14),#2551);
#13=STYLED_ITEM('',(#2569),#14);
#14=MANIFOLD_SOLID_BREP('Body1',#1572);
#15=FACE_BOUND('',#262,.T.);
#16=FACE_BOUND('',#263,.T.);
#17=FACE_BOUND('',#264,.T.);
#18=FACE_BOUND('',#265,.T.);
#19=FACE_BOUND('',#266,.T.);
#20=FACE_BOUND('',#267,.T.);
#21=FACE_BOUND('',#268,.T.);
#22=FACE_BOUND('',#269,.T.);
#23=FACE_BOUND('',#270,.T.);
#24=FACE_BOUND('',#271,.T.);
#25=FACE_BOUND('',#272,.T.);
#26=FACE_BOUND('',#273,.T.);
#27=FACE_BOUND('',#274,.T.);
#28=FACE_BOUND('',#275,.T.);
#29=FACE_BOUND('',#276,.T.);
#30=FACE_BOUND('',#277,.T.);
#31=FACE_BOUND('',#278,.T.);
#32=FACE_BOUND('',#279,.T.);
#33=FACE_BOUND('',#280,.T.);
#34=FACE_BOUND('',#281,.T.);
#35=FACE_BOUND('',#282,.T.);
#36=FACE_BOUND('',#283,.T.);
#37=FACE_BOUND('',#284,.T.);
#38=FACE_BOUND('',#285,.T.);
#39=FACE_BOUND('',#286,.T.);
#40=FACE_BOUND('',#287,.T.);
#41=FACE_BOUND('',#288,.T.);
#42=FACE_BOUND('',#290,.T.);
#43=FACE_BOUND('',#291,.T.);
#44=FACE_BOUND('',#292,.T.);
#45=FACE_BOUND('',#293,.T.);
#46=FACE_BOUND('',#294,.T.);
#47=FACE_BOUND('',#295,.T.);
#48=FACE_BOUND('',#296,.T.);
#49=FACE_BOUND('',#297,.T.);
#50=FACE_BOUND('',#298,.T.);
#51=FACE_BOUND('',#299,.T.);
#52=FACE_BOUND('',#300,.T.);
#53=FACE_BOUND('',#301,.T.);
#54=FACE_BOUND('',#302,.T.);
#55=FACE_BOUND('',#303,.T.);
#56=FACE_BOUND('',#304,.T.);
#57=FACE_BOUND('',#305,.T.);
#58=FACE_BOUND('',#306,.T.);
#59=FACE_BOUND('',#307,.T.);
#60=FACE_BOUND('',#308,.T.);
#61=FACE_BOUND('',#309,.T.);
#62=FACE_BOUND('',#310,.T.);
#63=FACE_BOUND('',#311,.T.);
#64=FACE_BOUND('',#312,.T.);
#65=FACE_BOUND('',#313,.T.);
#66=FACE_BOUND('',#314,.T.);
#67=FACE_BOUND('',#315,.T.);
#68=FACE_BOUND('',#316,.T.);
#69=PLANE('',#1595);
#70=PLANE('',#1596);
#71=PLANE('',#1597);
#72=PLANE('',#1598);
#73=PLANE('',#1599);
#74=PLANE('',#1600);
#75=PLANE('',#1601);
#76=PLANE('',#1602);
#77=PLANE('',#1612);
#78=PLANE('',#1613);
#79=PLANE('',#1614);
#80=PLANE('',#1615);
#81=PLANE('',#1622);
#82=PLANE('',#1623);
#83=PLANE('',#1624);
#84=PLANE('',#1625);
#85=PLANE('',#1671);
#86=PLANE('',#1672);
#87=PLANE('',#1673);
#88=PLANE('',#1674);
#89=PLANE('',#1675);
#90=PLANE('',#1676);
#91=PLANE('',#1677);
#92=PLANE('',#1678);
#93=PLANE('',#1682);
#94=PLANE('',#1683);
#95=PLANE('',#1684);
#96=PLANE('',#1685);
#97=PLANE('',#1686);
#98=PLANE('',#1687);
#99=PLANE('',#1688);
#100=PLANE('',#1689);
#101=PLANE('',#1690);
#102=PLANE('',#1691);
#103=PLANE('',#1692);
#104=PLANE('',#1693);
#105=PLANE('',#1694);
#106=PLANE('',#1695);
#107=PLANE('',#1696);
#108=PLANE('',#1700);
#109=PLANE('',#1701);
#110=PLANE('',#1702);
#111=PLANE('',#1703);
#112=PLANE('',#1704);
#113=PLANE('',#1705);
#114=PLANE('',#1706);
#115=PLANE('',#1707);
#116=PLANE('',#1708);
#117=FACE_OUTER_BOUND('',#190,.T.);
#118=FACE_OUTER_BOUND('',#191,.T.);
#119=FACE_OUTER_BOUND('',#192,.T.);
#120=FACE_OUTER_BOUND('',#193,.T.);
#121=FACE_OUTER_BOUND('',#194,.T.);
#122=FACE_OUTER_BOUND('',#195,.T.);
#123=FACE_OUTER_BOUND('',#196,.T.);
#124=FACE_OUTER_BOUND('',#197,.T.);
#125=FACE_OUTER_BOUND('',#198,.T.);
#126=FACE_OUTER_BOUND('',#199,.T.);
#127=FACE_OUTER_BOUND('',#200,.T.);
#128=FACE_OUTER_BOUND('',#201,.T.);
#129=FACE_OUTER_BOUND('',#202,.T.);
#130=FACE_OUTER_BOUND('',#203,.T.);
#131=FACE_OUTER_BOUND('',#204,.T.);
#132=FACE_OUTER_BOUND('',#205,.T.);
#133=FACE_OUTER_BOUND('',#206,.T.);
#134=FACE_OUTER_BOUND('',#207,.T.);
#135=FACE_OUTER_BOUND('',#208,.T.);
#136=FACE_OUTER_BOUND('',#209,.T.);
#137=FACE_OUTER_BOUND('',#210,.T.);
#138=FACE_OUTER_BOUND('',#211,.T.);
#139=FACE_OUTER_BOUND('',#212,.T.);
#140=FACE_OUTER_BOUND('',#213,.T.);
#141=FACE_OUTER_BOUND('',#214,.T.);
#142=FACE_OUTER_BOUND('',#215,.T.);
#143=FACE_OUTER_BOUND('',#216,.T.);
#144=FACE_OUTER_BOUND('',#217,.T.);
#145=FACE_OUTER_BOUND('',#218,.T.);
#146=FACE_OUTER_BOUND('',#219,.T.);
#147=FACE_OUTER_BOUND('',#220,.T.);
#148=FACE_OUTER_BOUND('',#221,.T.);
#149=FACE_OUTER_BOUND('',#222,.T.);
#150=FACE_OUTER_BOUND('',#223,.T.);
#151=FACE_OUTER_BOUND('',#224,.T.);
#152=FACE_OUTER_BOUND('',#225,.T.);
#153=FACE_OUTER_BOUND('',#226,.T.);
#154=FACE_OUTER_BOUND('',#227,.T.);
#155=FACE_OUTER_BOUND('',#228,.T.);
#156=FACE_OUTER_BOUND('',#229,.T.);
#157=FACE_OUTER_BOUND('',#230,.T.);
#158=FACE_OUTER_BOUND('',#231,.T.);
#159=FACE_OUTER_BOUND('',#232,.T.);
#160=FACE_OUTER_BOUND('',#233,.T.);
#161=FACE_OUTER_BOUND('',#234,.T.);
#162=FACE_OUTER_BOUND('',#235,.T.);
#163=FACE_OUTER_BOUND('',#236,.T.);
#164=FACE_OUTER_BOUND('',#237,.T.);
#165=FACE_OUTER_BOUND('',#238,.T.);
#166=FACE_OUTER_BOUND('',#239,.T.);
#167=FACE_OUTER_BOUND('',#240,.T.);
#168=FACE_OUTER_BOUND('',#241,.T.);
#169=FACE_OUTER_BOUND('',#242,.T.);
#170=FACE_OUTER_BOUND('',#243,.T.);
#171=FACE_OUTER_BOUND('',#244,.T.);
#172=FACE_OUTER_BOUND('',#245,.T.);
#173=FACE_OUTER_BOUND('',#246,.T.);
#174=FACE_OUTER_BOUND('',#247,.T.);
#175=FACE_OUTER_BOUND('',#248,.T.);
#176=FACE_OUTER_BOUND('',#249,.T.);
#177=FACE_OUTER_BOUND('',#250,.T.);
#178=FACE_OUTER_BOUND('',#251,.T.);
#179=FACE_OUTER_BOUND('',#252,.T.);
#180=FACE_OUTER_BOUND('',#253,.T.);
#181=FACE_OUTER_BOUND('',#254,.T.);
#182=FACE_OUTER_BOUND('',#255,.T.);
#183=FACE_OUTER_BOUND('',#256,.T.);
#184=FACE_OUTER_BOUND('',#257,.T.);
#185=FACE_OUTER_BOUND('',#258,.T.);
#186=FACE_OUTER_BOUND('',#259,.T.);
#187=FACE_OUTER_BOUND('',#260,.T.);
#188=FACE_OUTER_BOUND('',#261,.T.);
#189=FACE_OUTER_BOUND('',#289,.T.);
#190=EDGE_LOOP('',(#1048,#1049,#1050,#1051));
#191=EDGE_LOOP('',(#1052,#1053,#1054,#1055));
#192=EDGE_LOOP('',(#1056,#1057,#1058,#1059));
#193=EDGE_LOOP('',(#1060,#1061,#1062,#1063));
#194=EDGE_LOOP('',(#1064,#1065,#1066,#1067));
#195=EDGE_LOOP('',(#1068,#1069,#1070,#1071));
#196=EDGE_LOOP('',(#1072,#1073,#1074,#1075));
#197=EDGE_LOOP('',(#1076,#1077,#1078,#1079));
#198=EDGE_LOOP('',(#1080,#1081,#1082,#1083));
#199=EDGE_LOOP('',(#1084,#1085,#1086,#1087));
#200=EDGE_LOOP('',(#1088,#1089,#1090,#1091));
#201=EDGE_LOOP('',(#1092,#1093,#1094,#1095));
#202=EDGE_LOOP('',(#1096,#1097,#1098,#1099));
#203=EDGE_LOOP('',(#1100,#1101,#1102,#1103));
#204=EDGE_LOOP('',(#1104,#1105,#1106,#1107));
#205=EDGE_LOOP('',(#1108,#1109,#1110,#1111));
#206=EDGE_LOOP('',(#1112,#1113,#1114,#1115));
#207=EDGE_LOOP('',(#1116,#1117,#1118,#1119));
#208=EDGE_LOOP('',(#1120,#1121,#1122,#1123));
#209=EDGE_LOOP('',(#1124,#1125,#1126,#1127));
#210=EDGE_LOOP('',(#1128,#1129,#1130,#1131));
#211=EDGE_LOOP('',(#1132,#1133,#1134,#1135));
#212=EDGE_LOOP('',(#1136,#1137,#1138,#1139));
#213=EDGE_LOOP('',(#1140,#1141,#1142,#1143));
#214=EDGE_LOOP('',(#1144,#1145,#1146,#1147));
#215=EDGE_LOOP('',(#1148,#1149,#1150,#1151));
#216=EDGE_LOOP('',(#1152,#1153,#1154,#1155));
#217=EDGE_LOOP('',(#1156,#1157,#1158,#1159));
#218=EDGE_LOOP('',(#1160,#1161,#1162,#1163));
#219=EDGE_LOOP('',(#1164,#1165,#1166,#1167));
#220=EDGE_LOOP('',(#1168,#1169,#1170,#1171));
#221=EDGE_LOOP('',(#1172,#1173,#1174,#1175));
#222=EDGE_LOOP('',(#1176,#1177,#1178,#1179));
#223=EDGE_LOOP('',(#1180,#1181,#1182,#1183));
#224=EDGE_LOOP('',(#1184,#1185,#1186,#1187));
#225=EDGE_LOOP('',(#1188,#1189,#1190,#1191));
#226=EDGE_LOOP('',(#1192,#1193,#1194,#1195));
#227=EDGE_LOOP('',(#1196,#1197,#1198,#1199));
#228=EDGE_LOOP('',(#1200,#1201,#1202,#1203));
#229=EDGE_LOOP('',(#1204,#1205,#1206,#1207));
#230=EDGE_LOOP('',(#1208,#1209,#1210,#1211));
#231=EDGE_LOOP('',(#1212,#1213,#1214,#1215));
#232=EDGE_LOOP('',(#1216,#1217,#1218,#1219));
#233=EDGE_LOOP('',(#1220,#1221,#1222,#1223));
#234=EDGE_LOOP('',(#1224,#1225,#1226,#1227));
#235=EDGE_LOOP('',(#1228,#1229,#1230,#1231));
#236=EDGE_LOOP('',(#1232,#1233,#1234,#1235));
#237=EDGE_LOOP('',(#1236,#1237,#1238,#1239));
#238=EDGE_LOOP('',(#1240,#1241,#1242,#1243));
#239=EDGE_LOOP('',(#1244,#1245,#1246,#1247));
#240=EDGE_LOOP('',(#1248,#1249,#1250,#1251));
#241=EDGE_LOOP('',(#1252,#1253,#1254,#1255));
#242=EDGE_LOOP('',(#1256,#1257,#1258,#1259));
#243=EDGE_LOOP('',(#1260,#1261,#1262,#1263));
#244=EDGE_LOOP('',(#1264,#1265,#1266,#1267));
#245=EDGE_LOOP('',(#1268,#1269,#1270,#1271));
#246=EDGE_LOOP('',(#1272,#1273,#1274,#1275));
#247=EDGE_LOOP('',(#1276,#1277,#1278,#1279));
#248=EDGE_LOOP('',(#1280,#1281,#1282,#1283));
#249=EDGE_LOOP('',(#1284,#1285,#1286,#1287));
#250=EDGE_LOOP('',(#1288,#1289,#1290,#1291));
#251=EDGE_LOOP('',(#1292,#1293,#1294,#1295));
#252=EDGE_LOOP('',(#1296,#1297,#1298,#1299));
#253=EDGE_LOOP('',(#1300,#1301,#1302,#1303));
#254=EDGE_LOOP('',(#1304,#1305,#1306,#1307));
#255=EDGE_LOOP('',(#1308,#1309,#1310,#1311));
#256=EDGE_LOOP('',(#1312,#1313,#1314,#1315));
#257=EDGE_LOOP('',(#1316,#1317,#1318,#1319));
#258=EDGE_LOOP('',(#1320,#1321,#1322,#1323));
#259=EDGE_LOOP('',(#1324,#1325,#1326,#1327));
#260=EDGE_LOOP('',(#1328,#1329,#1330,#1331));
#261=EDGE_LOOP('',(#1332,#1333,#1334,#1335,#1336,#1337,#1338,#1339,#1340,
#1341,#1342,#1343,#1344,#1345,#1346,#1347,#1348,#1349,#1350,#1351,#1352,
#1353,#1354,#1355,#1356,#1357,#1358,#1359,#1360,#1361,#1362,#1363));
#262=EDGE_LOOP('',(#1364));
#263=EDGE_LOOP('',(#1365));
#264=EDGE_LOOP('',(#1366));
#265=EDGE_LOOP('',(#1367));
#266=EDGE_LOOP('',(#1368));
#267=EDGE_LOOP('',(#1369));
#268=EDGE_LOOP('',(#1370));
#269=EDGE_LOOP('',(#1371));
#270=EDGE_LOOP('',(#1372));
#271=EDGE_LOOP('',(#1373));
#272=EDGE_LOOP('',(#1374));
#273=EDGE_LOOP('',(#1375));
#274=EDGE_LOOP('',(#1376));
#275=EDGE_LOOP('',(#1377));
#276=EDGE_LOOP('',(#1378));
#277=EDGE_LOOP('',(#1379,#1380,#1381,#1382));
#278=EDGE_LOOP('',(#1383));
#279=EDGE_LOOP('',(#1384));
#280=EDGE_LOOP('',(#1385,#1386,#1387,#1388));
#281=EDGE_LOOP('',(#1389));
#282=EDGE_LOOP('',(#1390));
#283=EDGE_LOOP('',(#1391));
#284=EDGE_LOOP('',(#1392,#1393,#1394,#1395));
#285=EDGE_LOOP('',(#1396,#1397,#1398,#1399));
#286=EDGE_LOOP('',(#1400));
#287=EDGE_LOOP('',(#1401));
#288=EDGE_LOOP('',(#1402));
#289=EDGE_LOOP('',(#1403,#1404,#1405,#1406,#1407,#1408,#1409,#1410,#1411,
#1412,#1413,#1414,#1415,#1416,#1417,#1418,#1419,#1420,#1421,#1422,#1423,
#1424,#1425,#1426,#1427,#1428,#1429,#1430,#1431,#1432,#1433,#1434));
#290=EDGE_LOOP('',(#1435));
#291=EDGE_LOOP('',(#1436));
#292=EDGE_LOOP('',(#1437));
#293=EDGE_LOOP('',(#1438));
#294=EDGE_LOOP('',(#1439));
#295=EDGE_LOOP('',(#1440));
#296=EDGE_LOOP('',(#1441));
#297=EDGE_LOOP('',(#1442));
#298=EDGE_LOOP('',(#1443));
#299=EDGE_LOOP('',(#1444));
#300=EDGE_LOOP('',(#1445));
#301=EDGE_LOOP('',(#1446));
#302=EDGE_LOOP('',(#1447));
#303=EDGE_LOOP('',(#1448));
#304=EDGE_LOOP('',(#1449));
#305=EDGE_LOOP('',(#1450,#1451,#1452,#1453));
#306=EDGE_LOOP('',(#1454));
#307=EDGE_LOOP('',(#1455));
#308=EDGE_LOOP('',(#1456,#1457,#1458,#1459));
#309=EDGE_LOOP('',(#1460));
#310=EDGE_LOOP('',(#1461));
#311=EDGE_LOOP('',(#1462));
#312=EDGE_LOOP('',(#1463,#1464,#1465,#1466));
#313=EDGE_LOOP('',(#1467,#1468,#1469,#1470));
#314=EDGE_LOOP('',(#1471));
#315=EDGE_LOOP('',(#1472));
#316=EDGE_LOOP('',(#1473));
#317=LINE('',#2125,#480);
#318=LINE('',#2131,#481);
#319=LINE('',#2137,#482);
#320=LINE('',#2142,#483);
#321=LINE('',#2144,#484);
#322=LINE('',#2146,#485);
#323=LINE('',#2147,#486);
#324=LINE('',#2150,#487);
#325=LINE('',#2152,#488);
#326=LINE('',#2153,#489);
#327=LINE('',#2156,#490);
#328=LINE('',#2158,#491);
#329=LINE('',#2159,#492);
#330=LINE('',#2161,#493);
#331=LINE('',#2162,#494);
#332=LINE('',#2166,#495);
#333=LINE('',#2168,#496);
#334=LINE('',#2170,#497);
#335=LINE('',#2171,#498);
#336=LINE('',#2174,#499);
#337=LINE('',#2176,#500);
#338=LINE('',#2177,#501);
#339=LINE('',#2180,#502);
#340=LINE('',#2182,#503);
#341=LINE('',#2183,#504);
#342=LINE('',#2185,#505);
#343=LINE('',#2186,#506);
#344=LINE('',#2191,#507);
#345=LINE('',#2197,#508);
#346=LINE('',#2203,#509);
#347=LINE('',#2208,#510);
#348=LINE('',#2210,#511);
#349=LINE('',#2212,#512);
#350=LINE('',#2213,#513);
#351=LINE('',#2216,#514);
#352=LINE('',#2218,#515);
#353=LINE('',#2219,#516);
#354=LINE('',#2222,#517);
#355=LINE('',#2224,#518);
#356=LINE('',#2225,#519);
#357=LINE('',#2227,#520);
#358=LINE('',#2228,#521);
#359=LINE('',#2233,#522);
#360=LINE('',#2239,#523);
#361=LINE('',#2244,#524);
#362=LINE('',#2246,#525);
#363=LINE('',#2248,#526);
#364=LINE('',#2249,#527);
#365=LINE('',#2252,#528);
#366=LINE('',#2254,#529);
#367=LINE('',#2255,#530);
#368=LINE('',#2258,#531);
#369=LINE('',#2260,#532);
#370=LINE('',#2261,#533);
#371=LINE('',#2263,#534);
#372=LINE('',#2264,#535);
#373=LINE('',#2269,#536);
#374=LINE('',#2275,#537);
#375=LINE('',#2281,#538);
#376=LINE('',#2287,#539);
#377=LINE('',#2293,#540);
#378=LINE('',#2299,#541);
#379=LINE('',#2305,#542);
#380=LINE('',#2311,#543);
#381=LINE('',#2317,#544);
#382=LINE('',#2323,#545);
#383=LINE('',#2329,#546);
#384=LINE('',#2335,#547);
#385=LINE('',#2341,#548);
#386=LINE('',#2347,#549);
#387=LINE('',#2353,#550);
#388=LINE('',#2358,#551);
#389=LINE('',#2360,#552);
#390=LINE('',#2362,#553);
#391=LINE('',#2363,#554);
#392=LINE('',#2366,#555);
#393=LINE('',#2368,#556);
#394=LINE('',#2369,#557);
#395=LINE('',#2372,#558);
#396=LINE('',#2374,#559);
#397=LINE('',#2375,#560);
#398=LINE('',#2378,#561);
#399=LINE('',#2380,#562);
#400=LINE('',#2381,#563);
#401=LINE('',#2384,#564);
#402=LINE('',#2386,#565);
#403=LINE('',#2387,#566);
#404=LINE('',#2390,#567);
#405=LINE('',#2392,#568);
#406=LINE('',#2393,#569);
#407=LINE('',#2396,#570);
#408=LINE('',#2398,#571);
#409=LINE('',#2399,#572);
#410=LINE('',#2402,#573);
#411=LINE('',#2404,#574);
#412=LINE('',#2405,#575);
#413=LINE('',#2411,#576);
#414=LINE('',#2414,#577);
#415=LINE('',#2416,#578);
#416=LINE('',#2417,#579);
#417=LINE('',#2420,#580);
#418=LINE('',#2422,#581);
#419=LINE('',#2423,#582);
#420=LINE('',#2426,#583);
#421=LINE('',#2428,#584);
#422=LINE('',#2429,#585);
#423=LINE('',#2432,#586);
#424=LINE('',#2434,#587);
#425=LINE('',#2435,#588);
#426=LINE('',#2438,#589);
#427=LINE('',#2440,#590);
#428=LINE('',#2441,#591);
#429=LINE('',#2444,#592);
#430=LINE('',#2446,#593);
#431=LINE('',#2447,#594);
#432=LINE('',#2450,#595);
#433=LINE('',#2452,#596);
#434=LINE('',#2453,#597);
#435=LINE('',#2456,#598);
#436=LINE('',#2458,#599);
#437=LINE('',#2459,#600);
#438=LINE('',#2462,#601);
#439=LINE('',#2464,#602);
#440=LINE('',#2465,#603);
#441=LINE('',#2468,#604);
#442=LINE('',#2470,#605);
#443=LINE('',#2471,#606);
#444=LINE('',#2474,#607);
#445=LINE('',#2476,#608);
#446=LINE('',#2477,#609);
#447=LINE('',#2480,#610);
#448=LINE('',#2482,#611);
#449=LINE('',#2483,#612);
#450=LINE('',#2486,#613);
#451=LINE('',#2488,#614);
#452=LINE('',#2489,#615);
#453=LINE('',#2492,#616);
#454=LINE('',#2494,#617);
#455=LINE('',#2495,#618);
#456=LINE('',#2498,#619);
#457=LINE('',#2500,#620);
#458=LINE('',#2501,#621);
#459=LINE('',#2507,#622);
#460=LINE('',#2510,#623);
#461=LINE('',#2512,#624);
#462=LINE('',#2513,#625);
#463=LINE('',#2516,#626);
#464=LINE('',#2518,#627);
#465=LINE('',#2519,#628);
#466=LINE('',#2522,#629);
#467=LINE('',#2524,#630);
#468=LINE('',#2525,#631);
#469=LINE('',#2528,#632);
#470=LINE('',#2530,#633);
#471=LINE('',#2531,#634);
#472=LINE('',#2534,#635);
#473=LINE('',#2536,#636);
#474=LINE('',#2537,#637);
#475=LINE('',#2540,#638);
#476=LINE('',#2542,#639);
#477=LINE('',#2543,#640);
#478=LINE('',#2545,#641);
#479=LINE('',#2546,#642);
#480=VECTOR('',#1715,1.75);
#481=VECTOR('',#1722,1.75);
#482=VECTOR('',#1729,1.75);
#483=VECTOR('',#1734,10.);
#484=VECTOR('',#1735,10.);
#485=VECTOR('',#1736,10.);
#486=VECTOR('',#1737,10.);
#487=VECTOR('',#1740,10.);
#488=VECTOR('',#1741,10.);
#489=VECTOR('',#1742,10.);
#490=VECTOR('',#1745,10.);
#491=VECTOR('',#1746,10.);
#492=VECTOR('',#1747,10.);
#493=VECTOR('',#1750,10.);
#494=VECTOR('',#1751,10.);
#495=VECTOR('',#1754,10.);
#496=VECTOR('',#1755,10.);
#497=VECTOR('',#1756,10.);
#498=VECTOR('',#1757,10.);
#499=VECTOR('',#1760,10.);
#500=VECTOR('',#1761,10.);
#501=VECTOR('',#1762,10.);
#502=VECTOR('',#1765,10.);
#503=VECTOR('',#1766,10.);
#504=VECTOR('',#1767,10.);
#505=VECTOR('',#1770,10.);
#506=VECTOR('',#1771,10.);
#507=VECTOR('',#1776,1.75);
#508=VECTOR('',#1783,1.75);
#509=VECTOR('',#1790,1.75);
#510=VECTOR('',#1795,10.);
#511=VECTOR('',#1796,10.);
#512=VECTOR('',#1797,10.);
#513=VECTOR('',#1798,10.);
#514=VECTOR('',#1801,10.);
#515=VECTOR('',#1802,10.);
#516=VECTOR('',#1803,10.);
#517=VECTOR('',#1806,10.);
#518=VECTOR('',#1807,10.);
#519=VECTOR('',#1808,10.);
#520=VECTOR('',#1811,10.);
#521=VECTOR('',#1812,10.);
#522=VECTOR('',#1817,1.75);
#523=VECTOR('',#1824,1.75);
#524=VECTOR('',#1829,10.);
#525=VECTOR('',#1830,10.);
#526=VECTOR('',#1831,10.);
#527=VECTOR('',#1832,10.);
#528=VECTOR('',#1835,10.);
#529=VECTOR('',#1836,10.);
#530=VECTOR('',#1837,10.);
#531=VECTOR('',#1840,10.);
#532=VECTOR('',#1841,10.);
#533=VECTOR('',#1842,10.);
#534=VECTOR('',#1845,10.);
#535=VECTOR('',#1846,10.);
#536=VECTOR('',#1851,1.75);
#537=VECTOR('',#1858,1.75);
#538=VECTOR('',#1865,1.75);
#539=VECTOR('',#1872,1.75);
#540=VECTOR('',#1879,1.75);
#541=VECTOR('',#1886,1.75);
#542=VECTOR('',#1893,12.5);
#543=VECTOR('',#1900,1.75);
#544=VECTOR('',#1907,1.75);
#545=VECTOR('',#1914,1.75);
#546=VECTOR('',#1921,1.75);
#547=VECTOR('',#1928,1.75);
#548=VECTOR('',#1935,1.75);
#549=VECTOR('',#1942,1.75);
#550=VECTOR('',#1949,1.75);
#551=VECTOR('',#1954,10.);
#552=VECTOR('',#1955,10.);
#553=VECTOR('',#1956,10.);
#554=VECTOR('',#1957,10.);
#555=VECTOR('',#1960,10.);
#556=VECTOR('',#1961,10.);
#557=VECTOR('',#1962,10.);
#558=VECTOR('',#1965,10.);
#559=VECTOR('',#1966,10.);
#560=VECTOR('',#1967,10.);
#561=VECTOR('',#1970,10.);
#562=VECTOR('',#1971,10.);
#563=VECTOR('',#1972,10.);
#564=VECTOR('',#1975,10.);
#565=VECTOR('',#1976,10.);
#566=VECTOR('',#1977,10.);
#567=VECTOR('',#1980,10.);
#568=VECTOR('',#1981,10.);
#569=VECTOR('',#1982,10.);
#570=VECTOR('',#1985,10.);
#571=VECTOR('',#1986,10.);
#572=VECTOR('',#1987,10.);
#573=VECTOR('',#1990,10.);
#574=VECTOR('',#1991,10.);
#575=VECTOR('',#1992,10.);
#576=VECTOR('',#1999,10.);
#577=VECTOR('',#2002,10.);
#578=VECTOR('',#2003,10.);
#579=VECTOR('',#2004,10.);
#580=VECTOR('',#2007,10.);
#581=VECTOR('',#2008,10.);
#582=VECTOR('',#2009,10.);
#583=VECTOR('',#2012,10.);
#584=VECTOR('',#2013,10.);
#585=VECTOR('',#2014,10.);
#586=VECTOR('',#2017,10.);
#587=VECTOR('',#2018,10.);
#588=VECTOR('',#2019,10.);
#589=VECTOR('',#2022,10.);
#590=VECTOR('',#2023,10.);
#591=VECTOR('',#2024,10.);
#592=VECTOR('',#2027,10.);
#593=VECTOR('',#2028,10.);
#594=VECTOR('',#2029,10.);
#595=VECTOR('',#2032,10.);
#596=VECTOR('',#2033,10.);
#597=VECTOR('',#2034,10.);
#598=VECTOR('',#2037,10.);
#599=VECTOR('',#2038,10.);
#600=VECTOR('',#2039,10.);
#601=VECTOR('',#2042,10.);
#602=VECTOR('',#2043,10.);
#603=VECTOR('',#2044,10.);
#604=VECTOR('',#2047,10.);
#605=VECTOR('',#2048,10.);
#606=VECTOR('',#2049,10.);
#607=VECTOR('',#2052,10.);
#608=VECTOR('',#2053,10.);
#609=VECTOR('',#2054,10.);
#610=VECTOR('',#2057,10.);
#611=VECTOR('',#2058,10.);
#612=VECTOR('',#2059,10.);
#613=VECTOR('',#2062,10.);
#614=VECTOR('',#2063,10.);
#615=VECTOR('',#2064,10.);
#616=VECTOR('',#2067,10.);
#617=VECTOR('',#2068,10.);
#618=VECTOR('',#2069,10.);
#619=VECTOR('',#2072,10.);
#620=VECTOR('',#2073,10.);
#621=VECTOR('',#2074,10.);
#622=VECTOR('',#2081,10.);
#623=VECTOR('',#2084,10.);
#624=VECTOR('',#2085,10.);
#625=VECTOR('',#2086,10.);
#626=VECTOR('',#2089,10.);
#627=VECTOR('',#2090,10.);
#628=VECTOR('',#2091,10.);
#629=VECTOR('',#2094,10.);
#630=VECTOR('',#2095,10.);
#631=VECTOR('',#2096,10.);
#632=VECTOR('',#2099,10.);
#633=VECTOR('',#2100,10.);
#634=VECTOR('',#2101,10.);
#635=VECTOR('',#2104,10.);
#636=VECTOR('',#2105,10.);
#637=VECTOR('',#2106,10.);
#638=VECTOR('',#2109,10.);
#639=VECTOR('',#2110,10.);
#640=VECTOR('',#2111,10.);
#641=VECTOR('',#2114,10.);
#642=VECTOR('',#2115,10.);
#643=CIRCLE('',#1587,1.75);
#644=CIRCLE('',#1588,1.75);
#645=CIRCLE('',#1590,1.75);
#646=CIRCLE('',#1591,1.75);
#647=CIRCLE('',#1593,1.75);
#648=CIRCLE('',#1594,1.75);
#649=CIRCLE('',#1604,1.75);
#650=CIRCLE('',#1605,1.75);
#651=CIRCLE('',#1607,1.75);
#652=CIRCLE('',#1608,1.75);
#653=CIRCLE('',#1610,1.75);
#654=CIRCLE('',#1611,1.75);
#655=CIRCLE('',#1617,1.75);
#656=CIRCLE('',#1618,1.75);
#657=CIRCLE('',#1620,1.75);
#658=CIRCLE('',#1621,1.75);
#659=CIRCLE('',#1627,1.75);
#660=CIRCLE('',#1628,1.75);
#661=CIRCLE('',#1630,1.75);
#662=CIRCLE('',#1631,1.75);
#663=CIRCLE('',#1633,1.75);
#664=CIRCLE('',#1634,1.75);
#665=CIRCLE('',#1636,1.75);
#666=CIRCLE('',#1637,1.75);
#667=CIRCLE('',#1639,1.75);
#668=CIRCLE('',#1640,1.75);
#669=CIRCLE('',#1642,1.75);
#670=CIRCLE('',#1643,1.75);
#671=CIRCLE('',#1645,12.5);
#672=CIRCLE('',#1646,12.5);
#673=CIRCLE('',#1648,1.75);
#674=CIRCLE('',#1649,1.75);
#675=CIRCLE('',#1651,1.75);
#676=CIRCLE('',#1652,1.75);
#677=CIRCLE('',#1654,1.75);
#678=CIRCLE('',#1655,1.75);
#679=CIRCLE('',#1657,1.75);
#680=CIRCLE('',#1658,1.75);
#681=CIRCLE('',#1660,1.75);
#682=CIRCLE('',#1661,1.75);
#683=CIRCLE('',#1663,1.75);
#684=CIRCLE('',#1664,1.75);
#685=CIRCLE('',#1666,1.75);
#686=CIRCLE('',#1667,1.75);
#687=CIRCLE('',#1669,1.75);
#688=CIRCLE('',#1670,1.75);
#689=CIRCLE('',#1680,132.);
#690=CIRCLE('',#1681,132.);
#691=CIRCLE('',#1698,132.);
#692=CIRCLE('',#1699,132.);
#693=VERTEX_POINT('',#2122);
#694=VERTEX_POINT('',#2124);
#695=VERTEX_POINT('',#2128);
#696=VERTEX_POINT('',#2130);
#697=VERTEX_POINT('',#2134);
#698=VERTEX_POINT('',#2136);
#699=VERTEX_POINT('',#2140);
#700=VERTEX_POINT('',#2141);
#701=VERTEX_POINT('',#2143);
#702=VERTEX_POINT('',#2145);
#703=VERTEX_POINT('',#2149);
#704=VERTEX_POINT('',#2151);
#705=VERTEX_POINT('',#2155);
#706=VERTEX_POINT('',#2157);
#707=VERTEX_POINT('',#2164);
#708=VERTEX_POINT('',#2165);
#709=VERTEX_POINT('',#2167);
#710=VERTEX_POINT('',#2169);
#711=VERTEX_POINT('',#2173);
#712=VERTEX_POINT('',#2175);
#713=VERTEX_POINT('',#2179);
#714=VERTEX_POINT('',#2181);
#715=VERTEX_POINT('',#2188);
#716=VERTEX_POINT('',#2190);
#717=VERTEX_POINT('',#2194);
#718=VERTEX_POINT('',#2196);
#719=VERTEX_POINT('',#2200);
#720=VERTEX_POINT('',#2202);
#721=VERTEX_POINT('',#2206);
#722=VERTEX_POINT('',#2207);
#723=VERTEX_POINT('',#2209);
#724=VERTEX_POINT('',#2211);
#725=VERTEX_POINT('',#2215);
#726=VERTEX_POINT('',#2217);
#727=VERTEX_POINT('',#2221);
#728=VERTEX_POINT('',#2223);
#729=VERTEX_POINT('',#2230);
#730=VERTEX_POINT('',#2232);
#731=VERTEX_POINT('',#2236);
#732=VERTEX_POINT('',#2238);
#733=VERTEX_POINT('',#2242);
#734=VERTEX_POINT('',#2243);
#735=VERTEX_POINT('',#2245);
#736=VERTEX_POINT('',#2247);
#737=VERTEX_POINT('',#2251);
#738=VERTEX_POINT('',#2253);
#739=VERTEX_POINT('',#2257);
#740=VERTEX_POINT('',#2259);
#741=VERTEX_POINT('',#2266);
#742=VERTEX_POINT('',#2268);
#743=VERTEX_POINT('',#2272);
#744=VERTEX_POINT('',#2274);
#745=VERTEX_POINT('',#2278);
#746=VERTEX_POINT('',#2280);
#747=VERTEX_POINT('',#2284);
#748=VERTEX_POINT('',#2286);
#749=VERTEX_POINT('',#2290);
#750=VERTEX_POINT('',#2292);
#751=VERTEX_POINT('',#2296);
#752=VERTEX_POINT('',#2298);
#753=VERTEX_POINT('',#2302);
#754=VERTEX_POINT('',#2304);
#755=VERTEX_POINT('',#2308);
#756=VERTEX_POINT('',#2310);
#757=VERTEX_POINT('',#2314);
#758=VERTEX_POINT('',#2316);
#759=VERTEX_POINT('',#2320);
#760=VERTEX_POINT('',#2322);
#761=VERTEX_POINT('',#2326);
#762=VERTEX_POINT('',#2328);
#763=VERTEX_POINT('',#2332);
#764=VERTEX_POINT('',#2334);
#765=VERTEX_POINT('',#2338);
#766=VERTEX_POINT('',#2340);
#767=VERTEX_POINT('',#2344);
#768=VERTEX_POINT('',#2346);
#769=VERTEX_POINT('',#2350);
#770=VERTEX_POINT('',#2352);
#771=VERTEX_POINT('',#2356);
#772=VERTEX_POINT('',#2357);
#773=VERTEX_POINT('',#2359);
#774=VERTEX_POINT('',#2361);
#775=VERTEX_POINT('',#2365);
#776=VERTEX_POINT('',#2367);
#777=VERTEX_POINT('',#2371);
#778=VERTEX_POINT('',#2373);
#779=VERTEX_POINT('',#2377);
#780=VERTEX_POINT('',#2379);
#781=VERTEX_POINT('',#2383);
#782=VERTEX_POINT('',#2385);
#783=VERTEX_POINT('',#2389);
#784=VERTEX_POINT('',#2391);
#785=VERTEX_POINT('',#2395);
#786=VERTEX_POINT('',#2397);
#787=VERTEX_POINT('',#2401);
#788=VERTEX_POINT('',#2403);
#789=VERTEX_POINT('',#2407);
#790=VERTEX_POINT('',#2409);
#791=VERTEX_POINT('',#2413);
#792=VERTEX_POINT('',#2415);
#793=VERTEX_POINT('',#2419);
#794=VERTEX_POINT('',#2421);
#795=VERTEX_POINT('',#2425);
#796=VERTEX_POINT('',#2427);
#797=VERTEX_POINT('',#2431);
#798=VERTEX_POINT('',#2433);
#799=VERTEX_POINT('',#2437);
#800=VERTEX_POINT('',#2439);
#801=VERTEX_POINT('',#2443);
#802=VERTEX_POINT('',#2445);
#803=VERTEX_POINT('',#2449);
#804=VERTEX_POINT('',#2451);
#805=VERTEX_POINT('',#2455);
#806=VERTEX_POINT('',#2457);
#807=VERTEX_POINT('',#2461);
#808=VERTEX_POINT('',#2463);
#809=VERTEX_POINT('',#2467);
#810=VERTEX_POINT('',#2469);
#811=VERTEX_POINT('',#2473);
#812=VERTEX_POINT('',#2475);
#813=VERTEX_POINT('',#2479);
#814=VERTEX_POINT('',#2481);
#815=VERTEX_POINT('',#2485);
#816=VERTEX_POINT('',#2487);
#817=VERTEX_POINT('',#2491);
#818=VERTEX_POINT('',#2493);
#819=VERTEX_POINT('',#2497);
#820=VERTEX_POINT('',#2499);
#821=VERTEX_POINT('',#2503);
#822=VERTEX_POINT('',#2505);
#823=VERTEX_POINT('',#2509);
#824=VERTEX_POINT('',#2511);
#825=VERTEX_POINT('',#2515);
#826=VERTEX_POINT('',#2517);
#827=VERTEX_POINT('',#2521);
#828=VERTEX_POINT('',#2523);
#829=VERTEX_POINT('',#2527);
#830=VERTEX_POINT('',#2529);
#831=VERTEX_POINT('',#2533);
#832=VERTEX_POINT('',#2535);
#833=VERTEX_POINT('',#2539);
#834=VERTEX_POINT('',#2541);
#835=EDGE_CURVE('',#693,#693,#643,.T.);
#836=EDGE_CURVE('',#693,#694,#317,.T.);
#837=EDGE_CURVE('',#694,#694,#644,.T.);
#838=EDGE_CURVE('',#695,#695,#645,.T.);
#839=EDGE_CURVE('',#695,#696,#318,.T.);
#840=EDGE_CURVE('',#696,#696,#646,.T.);
#841=EDGE_CURVE('',#697,#697,#647,.T.);
#842=EDGE_CURVE('',#697,#698,#319,.T.);
#843=EDGE_CURVE('',#698,#698,#648,.T.);
#844=EDGE_CURVE('',#699,#700,#320,.T.);
#845=EDGE_CURVE('',#700,#701,#321,.T.);
#846=EDGE_CURVE('',#702,#701,#322,.T.);
#847=EDGE_CURVE('',#699,#702,#323,.T.);
#848=EDGE_CURVE('',#703,#699,#324,.T.);
#849=EDGE_CURVE('',#704,#702,#325,.T.);
#850=EDGE_CURVE('',#703,#704,#326,.T.);
#851=EDGE_CURVE('',#705,#703,#327,.T.);
#852=EDGE_CURVE('',#706,#704,#328,.T.);
#853=EDGE_CURVE('',#705,#706,#329,.T.);
#854=EDGE_CURVE('',#700,#705,#330,.T.);
#855=EDGE_CURVE('',#701,#706,#331,.T.);
#856=EDGE_CURVE('',#707,#708,#332,.T.);
#857=EDGE_CURVE('',#708,#709,#333,.T.);
#858=EDGE_CURVE('',#710,#709,#334,.T.);
#859=EDGE_CURVE('',#707,#710,#335,.T.);
#860=EDGE_CURVE('',#711,#707,#336,.T.);
#861=EDGE_CURVE('',#712,#710,#337,.T.);
#862=EDGE_CURVE('',#711,#712,#338,.T.);
#863=EDGE_CURVE('',#713,#711,#339,.T.);
#864=EDGE_CURVE('',#714,#712,#340,.T.);
#865=EDGE_CURVE('',#713,#714,#341,.T.);
#866=EDGE_CURVE('',#708,#713,#342,.T.);
#867=EDGE_CURVE('',#709,#714,#343,.T.);
#868=EDGE_CURVE('',#715,#715,#649,.T.);
#869=EDGE_CURVE('',#715,#716,#344,.T.);
#870=EDGE_CURVE('',#716,#716,#650,.T.);
#871=EDGE_CURVE('',#717,#717,#651,.T.);
#872=EDGE_CURVE('',#717,#718,#345,.T.);
#873=EDGE_CURVE('',#718,#718,#652,.T.);
#874=EDGE_CURVE('',#719,#719,#653,.T.);
#875=EDGE_CURVE('',#719,#720,#346,.T.);
#876=EDGE_CURVE('',#720,#720,#654,.T.);
#877=EDGE_CURVE('',#721,#722,#347,.T.);
#878=EDGE_CURVE('',#722,#723,#348,.T.);
#879=EDGE_CURVE('',#724,#723,#349,.T.);
#880=EDGE_CURVE('',#721,#724,#350,.T.);
#881=EDGE_CURVE('',#725,#721,#351,.T.);
#882=EDGE_CURVE('',#726,#724,#352,.T.);
#883=EDGE_CURVE('',#725,#726,#353,.T.);
#884=EDGE_CURVE('',#727,#725,#354,.T.);
#885=EDGE_CURVE('',#728,#726,#355,.T.);
#886=EDGE_CURVE('',#727,#728,#356,.T.);
#887=EDGE_CURVE('',#722,#727,#357,.T.);
#888=EDGE_CURVE('',#723,#728,#358,.T.);
#889=EDGE_CURVE('',#729,#729,#655,.T.);
#890=EDGE_CURVE('',#729,#730,#359,.T.);
#891=EDGE_CURVE('',#730,#730,#656,.T.);
#892=EDGE_CURVE('',#731,#731,#657,.T.);
#893=EDGE_CURVE('',#731,#732,#360,.T.);
#894=EDGE_CURVE('',#732,#732,#658,.T.);
#895=EDGE_CURVE('',#733,#734,#361,.T.);
#896=EDGE_CURVE('',#734,#735,#362,.T.);
#897=EDGE_CURVE('',#736,#735,#363,.T.);
#898=EDGE_CURVE('',#733,#736,#364,.T.);
#899=EDGE_CURVE('',#737,#733,#365,.T.);
#900=EDGE_CURVE('',#738,#736,#366,.T.);
#901=EDGE_CURVE('',#737,#738,#367,.T.);
#902=EDGE_CURVE('',#739,#737,#368,.T.);
#903=EDGE_CURVE('',#740,#738,#369,.T.);
#904=EDGE_CURVE('',#739,#740,#370,.T.);
#905=EDGE_CURVE('',#734,#739,#371,.T.);
#906=EDGE_CURVE('',#735,#740,#372,.T.);
#907=EDGE_CURVE('',#741,#741,#659,.T.);
#908=EDGE_CURVE('',#741,#742,#373,.T.);
#909=EDGE_CURVE('',#742,#742,#660,.T.);
#910=EDGE_CURVE('',#743,#743,#661,.T.);
#911=EDGE_CURVE('',#743,#744,#374,.T.);
#912=EDGE_CURVE('',#744,#744,#662,.T.);
#913=EDGE_CURVE('',#745,#745,#663,.T.);
#914=EDGE_CURVE('',#745,#746,#375,.T.);
#915=EDGE_CURVE('',#746,#746,#664,.T.);
#916=EDGE_CURVE('',#747,#747,#665,.T.);
#917=EDGE_CURVE('',#747,#748,#376,.T.);
#918=EDGE_CURVE('',#748,#748,#666,.T.);
#919=EDGE_CURVE('',#749,#749,#667,.T.);
#920=EDGE_CURVE('',#749,#750,#377,.T.);
#921=EDGE_CURVE('',#750,#750,#668,.T.);
#922=EDGE_CURVE('',#751,#751,#669,.T.);
#923=EDGE_CURVE('',#751,#752,#378,.T.);
#924=EDGE_CURVE('',#752,#752,#670,.T.);
#925=EDGE_CURVE('',#753,#753,#671,.T.);
#926=EDGE_CURVE('',#753,#754,#379,.T.);
#927=EDGE_CURVE('',#754,#754,#672,.T.);
#928=EDGE_CURVE('',#755,#755,#673,.T.);
#929=EDGE_CURVE('',#755,#756,#380,.T.);
#930=EDGE_CURVE('',#756,#756,#674,.T.);
#931=EDGE_CURVE('',#757,#757,#675,.T.);
#932=EDGE_CURVE('',#757,#758,#381,.T.);
#933=EDGE_CURVE('',#758,#758,#676,.T.);
#934=EDGE_CURVE('',#759,#759,#677,.T.);
#935=EDGE_CURVE('',#759,#760,#382,.T.);
#936=EDGE_CURVE('',#760,#760,#678,.T.);
#937=EDGE_CURVE('',#761,#761,#679,.T.);
#938=EDGE_CURVE('',#761,#762,#383,.T.);
#939=EDGE_CURVE('',#762,#762,#680,.T.);
#940=EDGE_CURVE('',#763,#763,#681,.T.);
#941=EDGE_CURVE('',#763,#764,#384,.T.);
#942=EDGE_CURVE('',#764,#764,#682,.T.);
#943=EDGE_CURVE('',#765,#765,#683,.T.);
#944=EDGE_CURVE('',#765,#766,#385,.T.);
#945=EDGE_CURVE('',#766,#766,#684,.T.);
#946=EDGE_CURVE('',#767,#767,#685,.T.);
#947=EDGE_CURVE('',#767,#768,#386,.T.);
#948=EDGE_CURVE('',#768,#768,#686,.T.);
#949=EDGE_CURVE('',#769,#769,#687,.T.);
#950=EDGE_CURVE('',#769,#770,#387,.T.);
#951=EDGE_CURVE('',#770,#770,#688,.T.);
#952=EDGE_CURVE('',#771,#772,#388,.T.);
#953=EDGE_CURVE('',#771,#773,#389,.T.);
#954=EDGE_CURVE('',#774,#773,#390,.T.);
#955=EDGE_CURVE('',#772,#774,#391,.T.);
#956=EDGE_CURVE('',#775,#772,#392,.T.);
#957=EDGE_CURVE('',#776,#774,#393,.T.);
#958=EDGE_CURVE('',#775,#776,#394,.T.);
#959=EDGE_CURVE('',#777,#775,#395,.T.);
#960=EDGE_CURVE('',#778,#776,#396,.T.);
#961=EDGE_CURVE('',#777,#778,#397,.T.);
#962=EDGE_CURVE('',#779,#777,#398,.T.);
#963=EDGE_CURVE('',#780,#778,#399,.T.);
#964=EDGE_CURVE('',#779,#780,#400,.T.);
#965=EDGE_CURVE('',#781,#779,#401,.T.);
#966=EDGE_CURVE('',#782,#780,#402,.T.);
#967=EDGE_CURVE('',#781,#782,#403,.T.);
#968=EDGE_CURVE('',#781,#783,#404,.T.);
#969=EDGE_CURVE('',#784,#782,#405,.T.);
#970=EDGE_CURVE('',#783,#784,#406,.T.);
#971=EDGE_CURVE('',#785,#783,#407,.T.);
#972=EDGE_CURVE('',#786,#784,#408,.T.);
#973=EDGE_CURVE('',#785,#786,#409,.T.);
#974=EDGE_CURVE('',#785,#787,#410,.T.);
#975=EDGE_CURVE('',#788,#786,#411,.T.);
#976=EDGE_CURVE('',#787,#788,#412,.T.);
#977=EDGE_CURVE('',#789,#787,#689,.T.);
#978=EDGE_CURVE('',#790,#788,#690,.T.);
#979=EDGE_CURVE('',#789,#790,#413,.T.);
#980=EDGE_CURVE('',#791,#789,#414,.T.);
#981=EDGE_CURVE('',#792,#790,#415,.T.);
#982=EDGE_CURVE('',#791,#792,#416,.T.);
#983=EDGE_CURVE('',#791,#793,#417,.T.);
#984=EDGE_CURVE('',#794,#792,#418,.T.);
#985=EDGE_CURVE('',#793,#794,#419,.T.);
#986=EDGE_CURVE('',#795,#793,#420,.T.);
#987=EDGE_CURVE('',#796,#794,#421,.T.);
#988=EDGE_CURVE('',#795,#796,#422,.T.);
#989=EDGE_CURVE('',#795,#797,#423,.T.);
#990=EDGE_CURVE('',#798,#796,#424,.T.);
#991=EDGE_CURVE('',#797,#798,#425,.T.);
#992=EDGE_CURVE('',#797,#799,#426,.T.);
#993=EDGE_CURVE('',#800,#798,#427,.T.);
#994=EDGE_CURVE('',#799,#800,#428,.T.);
#995=EDGE_CURVE('',#799,#801,#429,.T.);
#996=EDGE_CURVE('',#802,#800,#430,.T.);
#997=EDGE_CURVE('',#801,#802,#431,.T.);
#998=EDGE_CURVE('',#801,#803,#432,.T.);
#999=EDGE_CURVE('',#804,#802,#433,.T.);
#1000=EDGE_CURVE('',#803,#804,#434,.T.);
#1001=EDGE_CURVE('',#805,#803,#435,.T.);
#1002=EDGE_CURVE('',#806,#804,#436,.T.);
#1003=EDGE_CURVE('',#805,#806,#437,.T.);
#1004=EDGE_CURVE('',#807,#805,#438,.T.);
#1005=EDGE_CURVE('',#808,#806,#439,.T.);
#1006=EDGE_CURVE('',#807,#808,#440,.T.);
#1007=EDGE_CURVE('',#807,#809,#441,.T.);
#1008=EDGE_CURVE('',#810,#808,#442,.T.);
#1009=EDGE_CURVE('',#809,#810,#443,.T.);
#1010=EDGE_CURVE('',#809,#811,#444,.T.);
#1011=EDGE_CURVE('',#812,#810,#445,.T.);
#1012=EDGE_CURVE('',#811,#812,#446,.T.);
#1013=EDGE_CURVE('',#811,#813,#447,.T.);
#1014=EDGE_CURVE('',#814,#812,#448,.T.);
#1015=EDGE_CURVE('',#813,#814,#449,.T.);
#1016=EDGE_CURVE('',#813,#815,#450,.T.);
#1017=EDGE_CURVE('',#816,#814,#451,.T.);
#1018=EDGE_CURVE('',#815,#816,#452,.T.);
#1019=EDGE_CURVE('',#815,#817,#453,.T.);
#1020=EDGE_CURVE('',#818,#816,#454,.T.);
#1021=EDGE_CURVE('',#817,#818,#455,.T.);
#1022=EDGE_CURVE('',#817,#819,#456,.T.);
#1023=EDGE_CURVE('',#820,#818,#457,.T.);
#1024=EDGE_CURVE('',#819,#820,#458,.T.);
#1025=EDGE_CURVE('',#821,#819,#691,.T.);
#1026=EDGE_CURVE('',#822,#820,#692,.T.);
#1027=EDGE_CURVE('',#821,#822,#459,.T.);
#1028=EDGE_CURVE('',#823,#821,#460,.T.);
#1029=EDGE_CURVE('',#824,#822,#461,.T.);
#1030=EDGE_CURVE('',#823,#824,#462,.T.);
#1031=EDGE_CURVE('',#825,#823,#463,.T.);
#1032=EDGE_CURVE('',#826,#824,#464,.T.);
#1033=EDGE_CURVE('',#825,#826,#465,.T.);
#1034=EDGE_CURVE('',#827,#825,#466,.T.);
#1035=EDGE_CURVE('',#828,#826,#467,.T.);
#1036=EDGE_CURVE('',#827,#828,#468,.T.);
#1037=EDGE_CURVE('',#829,#827,#469,.T.);
#1038=EDGE_CURVE('',#830,#828,#470,.T.);
#1039=EDGE_CURVE('',#829,#830,#471,.T.);
#1040=EDGE_CURVE('',#831,#829,#472,.T.);
#1041=EDGE_CURVE('',#832,#830,#473,.T.);
#1042=EDGE_CURVE('',#831,#832,#474,.T.);
#1043=EDGE_CURVE('',#833,#831,#475,.T.);
#1044=EDGE_CURVE('',#834,#832,#476,.T.);
#1045=EDGE_CURVE('',#833,#834,#477,.T.);
#1046=EDGE_CURVE('',#833,#771,#478,.T.);
#1047=EDGE_CURVE('',#773,#834,#479,.T.);
#1048=ORIENTED_EDGE('',*,*,#835,.F.);
#1049=ORIENTED_EDGE('',*,*,#836,.T.);
#1050=ORIENTED_EDGE('',*,*,#837,.T.);
#1051=ORIENTED_EDGE('',*,*,#836,.F.);
#1052=ORIENTED_EDGE('',*,*,#838,.F.);
#1053=ORIENTED_EDGE('',*,*,#839,.T.);
#1054=ORIENTED_EDGE('',*,*,#840,.T.);
#1055=ORIENTED_EDGE('',*,*,#839,.F.);
#1056=ORIENTED_EDGE('',*,*,#841,.F.);
#1057=ORIENTED_EDGE('',*,*,#842,.T.);
#1058=ORIENTED_EDGE('',*,*,#843,.T.);
#1059=ORIENTED_EDGE('',*,*,#842,.F.);
#1060=ORIENTED_EDGE('',*,*,#844,.T.);
#1061=ORIENTED_EDGE('',*,*,#845,.T.);
#1062=ORIENTED_EDGE('',*,*,#846,.F.);
#1063=ORIENTED_EDGE('',*,*,#847,.F.);
#1064=ORIENTED_EDGE('',*,*,#848,.T.);
#1065=ORIENTED_EDGE('',*,*,#847,.T.);
#1066=ORIENTED_EDGE('',*,*,#849,.F.);
#1067=ORIENTED_EDGE('',*,*,#850,.F.);
#1068=ORIENTED_EDGE('',*,*,#851,.T.);
#1069=ORIENTED_EDGE('',*,*,#850,.T.);
#1070=ORIENTED_EDGE('',*,*,#852,.F.);
#1071=ORIENTED_EDGE('',*,*,#853,.F.);
#1072=ORIENTED_EDGE('',*,*,#854,.T.);
#1073=ORIENTED_EDGE('',*,*,#853,.T.);
#1074=ORIENTED_EDGE('',*,*,#855,.F.);
#1075=ORIENTED_EDGE('',*,*,#845,.F.);
#1076=ORIENTED_EDGE('',*,*,#856,.T.);
#1077=ORIENTED_EDGE('',*,*,#857,.T.);
#1078=ORIENTED_EDGE('',*,*,#858,.F.);
#1079=ORIENTED_EDGE('',*,*,#859,.F.);
#1080=ORIENTED_EDGE('',*,*,#860,.T.);
#1081=ORIENTED_EDGE('',*,*,#859,.T.);
#1082=ORIENTED_EDGE('',*,*,#861,.F.);
#1083=ORIENTED_EDGE('',*,*,#862,.F.);
#1084=ORIENTED_EDGE('',*,*,#863,.T.);
#1085=ORIENTED_EDGE('',*,*,#862,.T.);
#1086=ORIENTED_EDGE('',*,*,#864,.F.);
#1087=ORIENTED_EDGE('',*,*,#865,.F.);
#1088=ORIENTED_EDGE('',*,*,#866,.T.);
#1089=ORIENTED_EDGE('',*,*,#865,.T.);
#1090=ORIENTED_EDGE('',*,*,#867,.F.);
#1091=ORIENTED_EDGE('',*,*,#857,.F.);
#1092=ORIENTED_EDGE('',*,*,#868,.F.);
#1093=ORIENTED_EDGE('',*,*,#869,.T.);
#1094=ORIENTED_EDGE('',*,*,#870,.T.);
#1095=ORIENTED_EDGE('',*,*,#869,.F.);
#1096=ORIENTED_EDGE('',*,*,#871,.F.);
#1097=ORIENTED_EDGE('',*,*,#872,.T.);
#1098=ORIENTED_EDGE('',*,*,#873,.T.);
#1099=ORIENTED_EDGE('',*,*,#872,.F.);
#1100=ORIENTED_EDGE('',*,*,#874,.F.);
#1101=ORIENTED_EDGE('',*,*,#875,.T.);
#1102=ORIENTED_EDGE('',*,*,#876,.T.);
#1103=ORIENTED_EDGE('',*,*,#875,.F.);
#1104=ORIENTED_EDGE('',*,*,#877,.T.);
#1105=ORIENTED_EDGE('',*,*,#878,.T.);
#1106=ORIENTED_EDGE('',*,*,#879,.F.);
#1107=ORIENTED_EDGE('',*,*,#880,.F.);
#1108=ORIENTED_EDGE('',*,*,#881,.T.);
#1109=ORIENTED_EDGE('',*,*,#880,.T.);
#1110=ORIENTED_EDGE('',*,*,#882,.F.);
#1111=ORIENTED_EDGE('',*,*,#883,.F.);
#1112=ORIENTED_EDGE('',*,*,#884,.T.);
#1113=ORIENTED_EDGE('',*,*,#883,.T.);
#1114=ORIENTED_EDGE('',*,*,#885,.F.);
#1115=ORIENTED_EDGE('',*,*,#886,.F.);
#1116=ORIENTED_EDGE('',*,*,#887,.T.);
#1117=ORIENTED_EDGE('',*,*,#886,.T.);
#1118=ORIENTED_EDGE('',*,*,#888,.F.);
#1119=ORIENTED_EDGE('',*,*,#878,.F.);
#1120=ORIENTED_EDGE('',*,*,#889,.F.);
#1121=ORIENTED_EDGE('',*,*,#890,.T.);
#1122=ORIENTED_EDGE('',*,*,#891,.T.);
#1123=ORIENTED_EDGE('',*,*,#890,.F.);
#1124=ORIENTED_EDGE('',*,*,#892,.F.);
#1125=ORIENTED_EDGE('',*,*,#893,.T.);
#1126=ORIENTED_EDGE('',*,*,#894,.T.);
#1127=ORIENTED_EDGE('',*,*,#893,.F.);
#1128=ORIENTED_EDGE('',*,*,#895,.T.);
#1129=ORIENTED_EDGE('',*,*,#896,.T.);
#1130=ORIENTED_EDGE('',*,*,#897,.F.);
#1131=ORIENTED_EDGE('',*,*,#898,.F.);
#1132=ORIENTED_EDGE('',*,*,#899,.T.);
#1133=ORIENTED_EDGE('',*,*,#898,.T.);
#1134=ORIENTED_EDGE('',*,*,#900,.F.);
#1135=ORIENTED_EDGE('',*,*,#901,.F.);
#1136=ORIENTED_EDGE('',*,*,#902,.T.);
#1137=ORIENTED_EDGE('',*,*,#901,.T.);
#1138=ORIENTED_EDGE('',*,*,#903,.F.);
#1139=ORIENTED_EDGE('',*,*,#904,.F.);
#1140=ORIENTED_EDGE('',*,*,#905,.T.);
#1141=ORIENTED_EDGE('',*,*,#904,.T.);
#1142=ORIENTED_EDGE('',*,*,#906,.F.);
#1143=ORIENTED_EDGE('',*,*,#896,.F.);
#1144=ORIENTED_EDGE('',*,*,#907,.F.);
#1145=ORIENTED_EDGE('',*,*,#908,.T.);
#1146=ORIENTED_EDGE('',*,*,#909,.T.);
#1147=ORIENTED_EDGE('',*,*,#908,.F.);
#1148=ORIENTED_EDGE('',*,*,#910,.F.);
#1149=ORIENTED_EDGE('',*,*,#911,.T.);
#1150=ORIENTED_EDGE('',*,*,#912,.T.);
#1151=ORIENTED_EDGE('',*,*,#911,.F.);
#1152=ORIENTED_EDGE('',*,*,#913,.F.);
#1153=ORIENTED_EDGE('',*,*,#914,.T.);
#1154=ORIENTED_EDGE('',*,*,#915,.T.);
#1155=ORIENTED_EDGE('',*,*,#914,.F.);
#1156=ORIENTED_EDGE('',*,*,#916,.F.);
#1157=ORIENTED_EDGE('',*,*,#917,.T.);
#1158=ORIENTED_EDGE('',*,*,#918,.T.);
#1159=ORIENTED_EDGE('',*,*,#917,.F.);
#1160=ORIENTED_EDGE('',*,*,#919,.F.);
#1161=ORIENTED_EDGE('',*,*,#920,.T.);
#1162=ORIENTED_EDGE('',*,*,#921,.T.);
#1163=ORIENTED_EDGE('',*,*,#920,.F.);
#1164=ORIENTED_EDGE('',*,*,#922,.F.);
#1165=ORIENTED_EDGE('',*,*,#923,.T.);
#1166=ORIENTED_EDGE('',*,*,#924,.T.);
#1167=ORIENTED_EDGE('',*,*,#923,.F.);
#1168=ORIENTED_EDGE('',*,*,#925,.F.);
#1169=ORIENTED_EDGE('',*,*,#926,.T.);
#1170=ORIENTED_EDGE('',*,*,#927,.T.);
#1171=ORIENTED_EDGE('',*,*,#926,.F.);
#1172=ORIENTED_EDGE('',*,*,#928,.F.);
#1173=ORIENTED_EDGE('',*,*,#929,.T.);
#1174=ORIENTED_EDGE('',*,*,#930,.T.);
#1175=ORIENTED_EDGE('',*,*,#929,.F.);
#1176=ORIENTED_EDGE('',*,*,#931,.F.);
#1177=ORIENTED_EDGE('',*,*,#932,.T.);
#1178=ORIENTED_EDGE('',*,*,#933,.T.);
#1179=ORIENTED_EDGE('',*,*,#932,.F.);
#1180=ORIENTED_EDGE('',*,*,#934,.F.);
#1181=ORIENTED_EDGE('',*,*,#935,.T.);
#1182=ORIENTED_EDGE('',*,*,#936,.T.);
#1183=ORIENTED_EDGE('',*,*,#935,.F.);
#1184=ORIENTED_EDGE('',*,*,#937,.F.);
#1185=ORIENTED_EDGE('',*,*,#938,.T.);
#1186=ORIENTED_EDGE('',*,*,#939,.T.);
#1187=ORIENTED_EDGE('',*,*,#938,.F.);
#1188=ORIENTED_EDGE('',*,*,#940,.F.);
#1189=ORIENTED_EDGE('',*,*,#941,.T.);
#1190=ORIENTED_EDGE('',*,*,#942,.T.);
#1191=ORIENTED_EDGE('',*,*,#941,.F.);
#1192=ORIENTED_EDGE('',*,*,#943,.F.);
#1193=ORIENTED_EDGE('',*,*,#944,.T.);
#1194=ORIENTED_EDGE('',*,*,#945,.T.);
#1195=ORIENTED_EDGE('',*,*,#944,.F.);
#1196=ORIENTED_EDGE('',*,*,#946,.F.);
#1197=ORIENTED_EDGE('',*,*,#947,.T.);
#1198=ORIENTED_EDGE('',*,*,#948,.T.);
#1199=ORIENTED_EDGE('',*,*,#947,.F.);
#1200=ORIENTED_EDGE('',*,*,#949,.F.);
#1201=ORIENTED_EDGE('',*,*,#950,.T.);
#1202=ORIENTED_EDGE('',*,*,#951,.T.);
#1203=ORIENTED_EDGE('',*,*,#950,.F.);
#1204=ORIENTED_EDGE('',*,*,#952,.F.);
#1205=ORIENTED_EDGE('',*,*,#953,.T.);
#1206=ORIENTED_EDGE('',*,*,#954,.F.);
#1207=ORIENTED_EDGE('',*,*,#955,.F.);
#1208=ORIENTED_EDGE('',*,*,#956,.T.);
#1209=ORIENTED_EDGE('',*,*,#955,.T.);
#1210=ORIENTED_EDGE('',*,*,#957,.F.);
#1211=ORIENTED_EDGE('',*,*,#958,.F.);
#1212=ORIENTED_EDGE('',*,*,#959,.T.);
#1213=ORIENTED_EDGE('',*,*,#958,.T.);
#1214=ORIENTED_EDGE('',*,*,#960,.F.);
#1215=ORIENTED_EDGE('',*,*,#961,.F.);
#1216=ORIENTED_EDGE('',*,*,#962,.T.);
#1217=ORIENTED_EDGE('',*,*,#961,.T.);
#1218=ORIENTED_EDGE('',*,*,#963,.F.);
#1219=ORIENTED_EDGE('',*,*,#964,.F.);
#1220=ORIENTED_EDGE('',*,*,#965,.T.);
#1221=ORIENTED_EDGE('',*,*,#964,.T.);
#1222=ORIENTED_EDGE('',*,*,#966,.F.);
#1223=ORIENTED_EDGE('',*,*,#967,.F.);
#1224=ORIENTED_EDGE('',*,*,#968,.F.);
#1225=ORIENTED_EDGE('',*,*,#967,.T.);
#1226=ORIENTED_EDGE('',*,*,#969,.F.);
#1227=ORIENTED_EDGE('',*,*,#970,.F.);
#1228=ORIENTED_EDGE('',*,*,#971,.T.);
#1229=ORIENTED_EDGE('',*,*,#970,.T.);
#1230=ORIENTED_EDGE('',*,*,#972,.F.);
#1231=ORIENTED_EDGE('',*,*,#973,.F.);
#1232=ORIENTED_EDGE('',*,*,#974,.F.);
#1233=ORIENTED_EDGE('',*,*,#973,.T.);
#1234=ORIENTED_EDGE('',*,*,#975,.F.);
#1235=ORIENTED_EDGE('',*,*,#976,.F.);
#1236=ORIENTED_EDGE('',*,*,#977,.T.);
#1237=ORIENTED_EDGE('',*,*,#976,.T.);
#1238=ORIENTED_EDGE('',*,*,#978,.F.);
#1239=ORIENTED_EDGE('',*,*,#979,.F.);
#1240=ORIENTED_EDGE('',*,*,#980,.T.);
#1241=ORIENTED_EDGE('',*,*,#979,.T.);
#1242=ORIENTED_EDGE('',*,*,#981,.F.);
#1243=ORIENTED_EDGE('',*,*,#982,.F.);
#1244=ORIENTED_EDGE('',*,*,#983,.F.);
#1245=ORIENTED_EDGE('',*,*,#982,.T.);
#1246=ORIENTED_EDGE('',*,*,#984,.F.);
#1247=ORIENTED_EDGE('',*,*,#985,.F.);
#1248=ORIENTED_EDGE('',*,*,#986,.T.);
#1249=ORIENTED_EDGE('',*,*,#985,.T.);
#1250=ORIENTED_EDGE('',*,*,#987,.F.);
#1251=ORIENTED_EDGE('',*,*,#988,.F.);
#1252=ORIENTED_EDGE('',*,*,#989,.F.);
#1253=ORIENTED_EDGE('',*,*,#988,.T.);
#1254=ORIENTED_EDGE('',*,*,#990,.F.);
#1255=ORIENTED_EDGE('',*,*,#991,.F.);
#1256=ORIENTED_EDGE('',*,*,#992,.F.);
#1257=ORIENTED_EDGE('',*,*,#991,.T.);
#1258=ORIENTED_EDGE('',*,*,#993,.F.);
#1259=ORIENTED_EDGE('',*,*,#994,.F.);
#1260=ORIENTED_EDGE('',*,*,#995,.F.);
#1261=ORIENTED_EDGE('',*,*,#994,.T.);
#1262=ORIENTED_EDGE('',*,*,#996,.F.);
#1263=ORIENTED_EDGE('',*,*,#997,.F.);
#1264=ORIENTED_EDGE('',*,*,#998,.F.);
#1265=ORIENTED_EDGE('',*,*,#997,.T.);
#1266=ORIENTED_EDGE('',*,*,#999,.F.);
#1267=ORIENTED_EDGE('',*,*,#1000,.F.);
#1268=ORIENTED_EDGE('',*,*,#1001,.T.);
#1269=ORIENTED_EDGE('',*,*,#1000,.T.);
#1270=ORIENTED_EDGE('',*,*,#1002,.F.);
#1271=ORIENTED_EDGE('',*,*,#1003,.F.);
#1272=ORIENTED_EDGE('',*,*,#1004,.T.);
#1273=ORIENTED_EDGE('',*,*,#1003,.T.);
#1274=ORIENTED_EDGE('',*,*,#1005,.F.);
#1275=ORIENTED_EDGE('',*,*,#1006,.F.);
#1276=ORIENTED_EDGE('',*,*,#1007,.F.);
#1277=ORIENTED_EDGE('',*,*,#1006,.T.);
#1278=ORIENTED_EDGE('',*,*,#1008,.F.);
#1279=ORIENTED_EDGE('',*,*,#1009,.F.);
#1280=ORIENTED_EDGE('',*,*,#1010,.F.);
#1281=ORIENTED_EDGE('',*,*,#1009,.T.);
#1282=ORIENTED_EDGE('',*,*,#1011,.F.);
#1283=ORIENTED_EDGE('',*,*,#1012,.F.);
#1284=ORIENTED_EDGE('',*,*,#1013,.F.);
#1285=ORIENTED_EDGE('',*,*,#1012,.T.);
#1286=ORIENTED_EDGE('',*,*,#1014,.F.);
#1287=ORIENTED_EDGE('',*,*,#1015,.F.);
#1288=ORIENTED_EDGE('',*,*,#1016,.F.);
#1289=ORIENTED_EDGE('',*,*,#1015,.T.);
#1290=ORIENTED_EDGE('',*,*,#1017,.F.);
#1291=ORIENTED_EDGE('',*,*,#1018,.F.);
#1292=ORIENTED_EDGE('',*,*,#1019,.F.);
#1293=ORIENTED_EDGE('',*,*,#1018,.T.);
#1294=ORIENTED_EDGE('',*,*,#1020,.F.);
#1295=ORIENTED_EDGE('',*,*,#1021,.F.);
#1296=ORIENTED_EDGE('',*,*,#1022,.F.);
#1297=ORIENTED_EDGE('',*,*,#1021,.T.);
#1298=ORIENTED_EDGE('',*,*,#1023,.F.);
#1299=ORIENTED_EDGE('',*,*,#1024,.F.);
#1300=ORIENTED_EDGE('',*,*,#1025,.T.);
#1301=ORIENTED_EDGE('',*,*,#1024,.T.);
#1302=ORIENTED_EDGE('',*,*,#1026,.F.);
#1303=ORIENTED_EDGE('',*,*,#1027,.F.);
#1304=ORIENTED_EDGE('',*,*,#1028,.T.);
#1305=ORIENTED_EDGE('',*,*,#1027,.T.);
#1306=ORIENTED_EDGE('',*,*,#1029,.F.);
#1307=ORIENTED_EDGE('',*,*,#1030,.F.);
#1308=ORIENTED_EDGE('',*,*,#1031,.T.);
#1309=ORIENTED_EDGE('',*,*,#1030,.T.);
#1310=ORIENTED_EDGE('',*,*,#1032,.F.);
#1311=ORIENTED_EDGE('',*,*,#1033,.F.);
#1312=ORIENTED_EDGE('',*,*,#1034,.T.);
#1313=ORIENTED_EDGE('',*,*,#1033,.T.);
#1314=ORIENTED_EDGE('',*,*,#1035,.F.);
#1315=ORIENTED_EDGE('',*,*,#1036,.F.);
#1316=ORIENTED_EDGE('',*,*,#1037,.T.);
#1317=ORIENTED_EDGE('',*,*,#1036,.T.);
#1318=ORIENTED_EDGE('',*,*,#1038,.F.);
#1319=ORIENTED_EDGE('',*,*,#1039,.F.);
#1320=ORIENTED_EDGE('',*,*,#1040,.T.);
#1321=ORIENTED_EDGE('',*,*,#1039,.T.);
#1322=ORIENTED_EDGE('',*,*,#1041,.F.);
#1323=ORIENTED_EDGE('',*,*,#1042,.F.);
#1324=ORIENTED_EDGE('',*,*,#1043,.T.);
#1325=ORIENTED_EDGE('',*,*,#1042,.T.);
#1326=ORIENTED_EDGE('',*,*,#1044,.F.);
#1327=ORIENTED_EDGE('',*,*,#1045,.F.);
#1328=ORIENTED_EDGE('',*,*,#1046,.F.);
#1329=ORIENTED_EDGE('',*,*,#1045,.T.);
#1330=ORIENTED_EDGE('',*,*,#1047,.F.);
#1331=ORIENTED_EDGE('',*,*,#953,.F.);
#1332=ORIENTED_EDGE('',*,*,#1047,.T.);
#1333=ORIENTED_EDGE('',*,*,#1044,.T.);
#1334=ORIENTED_EDGE('',*,*,#1041,.T.);
#1335=ORIENTED_EDGE('',*,*,#1038,.T.);
#1336=ORIENTED_EDGE('',*,*,#1035,.T.);
#1337=ORIENTED_EDGE('',*,*,#1032,.T.);
#1338=ORIENTED_EDGE('',*,*,#1029,.T.);
#1339=ORIENTED_EDGE('',*,*,#1026,.T.);
#1340=ORIENTED_EDGE('',*,*,#1023,.T.);
#1341=ORIENTED_EDGE('',*,*,#1020,.T.);
#1342=ORIENTED_EDGE('',*,*,#1017,.T.);
#1343=ORIENTED_EDGE('',*,*,#1014,.T.);
#1344=ORIENTED_EDGE('',*,*,#1011,.T.);
#1345=ORIENTED_EDGE('',*,*,#1008,.T.);
#1346=ORIENTED_EDGE('',*,*,#1005,.T.);
#1347=ORIENTED_EDGE('',*,*,#1002,.T.);
#1348=ORIENTED_EDGE('',*,*,#999,.T.);
#1349=ORIENTED_EDGE('',*,*,#996,.T.);
#1350=ORIENTED_EDGE('',*,*,#993,.T.);
#1351=ORIENTED_EDGE('',*,*,#990,.T.);
#1352=ORIENTED_EDGE('',*,*,#987,.T.);
#1353=ORIENTED_EDGE('',*,*,#984,.T.);
#1354=ORIENTED_EDGE('',*,*,#981,.T.);
#1355=ORIENTED_EDGE('',*,*,#978,.T.);
#1356=ORIENTED_EDGE('',*,*,#975,.T.);
#1357=ORIENTED_EDGE('',*,*,#972,.T.);
#1358=ORIENTED_EDGE('',*,*,#969,.T.);
#1359=ORIENTED_EDGE('',*,*,#966,.T.);
#1360=ORIENTED_EDGE('',*,*,#963,.T.);
#1361=ORIENTED_EDGE('',*,*,#960,.T.);
#1362=ORIENTED_EDGE('',*,*,#957,.T.);
#1363=ORIENTED_EDGE('',*,*,#954,.T.);
#1364=ORIENTED_EDGE('',*,*,#949,.T.);
#1365=ORIENTED_EDGE('',*,*,#946,.T.);
#1366=ORIENTED_EDGE('',*,*,#943,.T.);
#1367=ORIENTED_EDGE('',*,*,#940,.T.);
#1368=ORIENTED_EDGE('',*,*,#937,.T.);
#1369=ORIENTED_EDGE('',*,*,#934,.T.);
#1370=ORIENTED_EDGE('',*,*,#931,.T.);
#1371=ORIENTED_EDGE('',*,*,#928,.T.);
#1372=ORIENTED_EDGE('',*,*,#925,.T.);
#1373=ORIENTED_EDGE('',*,*,#922,.T.);
#1374=ORIENTED_EDGE('',*,*,#919,.T.);
#1375=ORIENTED_EDGE('',*,*,#916,.T.);
#1376=ORIENTED_EDGE('',*,*,#913,.T.);
#1377=ORIENTED_EDGE('',*,*,#910,.T.);
#1378=ORIENTED_EDGE('',*,*,#907,.T.);
#1379=ORIENTED_EDGE('',*,*,#906,.T.);
#1380=ORIENTED_EDGE('',*,*,#903,.T.);
#1381=ORIENTED_EDGE('',*,*,#900,.T.);
#1382=ORIENTED_EDGE('',*,*,#897,.T.);
#1383=ORIENTED_EDGE('',*,*,#892,.T.);
#1384=ORIENTED_EDGE('',*,*,#889,.T.);
#1385=ORIENTED_EDGE('',*,*,#888,.T.);
#1386=ORIENTED_EDGE('',*,*,#885,.T.);
#1387=ORIENTED_EDGE('',*,*,#882,.T.);
#1388=ORIENTED_EDGE('',*,*,#879,.T.);
#1389=ORIENTED_EDGE('',*,*,#874,.T.);
#1390=ORIENTED_EDGE('',*,*,#871,.T.);
#1391=ORIENTED_EDGE('',*,*,#868,.T.);
#1392=ORIENTED_EDGE('',*,*,#867,.T.);
#1393=ORIENTED_EDGE('',*,*,#864,.T.);
#1394=ORIENTED_EDGE('',*,*,#861,.T.);
#1395=ORIENTED_EDGE('',*,*,#858,.T.);
#1396=ORIENTED_EDGE('',*,*,#855,.T.);
#1397=ORIENTED_EDGE('',*,*,#852,.T.);
#1398=ORIENTED_EDGE('',*,*,#849,.T.);
#1399=ORIENTED_EDGE('',*,*,#846,.T.);
#1400=ORIENTED_EDGE('',*,*,#841,.T.);
#1401=ORIENTED_EDGE('',*,*,#838,.T.);
#1402=ORIENTED_EDGE('',*,*,#835,.T.);
#1403=ORIENTED_EDGE('',*,*,#1046,.T.);
#1404=ORIENTED_EDGE('',*,*,#952,.T.);
#1405=ORIENTED_EDGE('',*,*,#956,.F.);
#1406=ORIENTED_EDGE('',*,*,#959,.F.);
#1407=ORIENTED_EDGE('',*,*,#962,.F.);
#1408=ORIENTED_EDGE('',*,*,#965,.F.);
#1409=ORIENTED_EDGE('',*,*,#968,.T.);
#1410=ORIENTED_EDGE('',*,*,#971,.F.);
#1411=ORIENTED_EDGE('',*,*,#974,.T.);
#1412=ORIENTED_EDGE('',*,*,#977,.F.);
#1413=ORIENTED_EDGE('',*,*,#980,.F.);
#1414=ORIENTED_EDGE('',*,*,#983,.T.);
#1415=ORIENTED_EDGE('',*,*,#986,.F.);
#1416=ORIENTED_EDGE('',*,*,#989,.T.);
#1417=ORIENTED_EDGE('',*,*,#992,.T.);
#1418=ORIENTED_EDGE('',*,*,#995,.T.);
#1419=ORIENTED_EDGE('',*,*,#998,.T.);
#1420=ORIENTED_EDGE('',*,*,#1001,.F.);
#1421=ORIENTED_EDGE('',*,*,#1004,.F.);
#1422=ORIENTED_EDGE('',*,*,#1007,.T.);
#1423=ORIENTED_EDGE('',*,*,#1010,.T.);
#1424=ORIENTED_EDGE('',*,*,#1013,.T.);
#1425=ORIENTED_EDGE('',*,*,#1016,.T.);
#1426=ORIENTED_EDGE('',*,*,#1019,.T.);
#1427=ORIENTED_EDGE('',*,*,#1022,.T.);
#1428=ORIENTED_EDGE('',*,*,#1025,.F.);
#1429=ORIENTED_EDGE('',*,*,#1028,.F.);
#1430=ORIENTED_EDGE('',*,*,#1031,.F.);
#1431=ORIENTED_EDGE('',*,*,#1034,.F.);
#1432=ORIENTED_EDGE('',*,*,#1037,.F.);
#1433=ORIENTED_EDGE('',*,*,#1040,.F.);
#1434=ORIENTED_EDGE('',*,*,#1043,.F.);
#1435=ORIENTED_EDGE('',*,*,#951,.F.);
#1436=ORIENTED_EDGE('',*,*,#948,.F.);
#1437=ORIENTED_EDGE('',*,*,#945,.F.);
#1438=ORIENTED_EDGE('',*,*,#942,.F.);
#1439=ORIENTED_EDGE('',*,*,#939,.F.);
#1440=ORIENTED_EDGE('',*,*,#936,.F.);
#1441=ORIENTED_EDGE('',*,*,#933,.F.);
#1442=ORIENTED_EDGE('',*,*,#930,.F.);
#1443=ORIENTED_EDGE('',*,*,#927,.F.);
#1444=ORIENTED_EDGE('',*,*,#924,.F.);
#1445=ORIENTED_EDGE('',*,*,#921,.F.);
#1446=ORIENTED_EDGE('',*,*,#918,.F.);
#1447=ORIENTED_EDGE('',*,*,#915,.F.);
#1448=ORIENTED_EDGE('',*,*,#912,.F.);
#1449=ORIENTED_EDGE('',*,*,#909,.F.);
#1450=ORIENTED_EDGE('',*,*,#905,.F.);
#1451=ORIENTED_EDGE('',*,*,#895,.F.);
#1452=ORIENTED_EDGE('',*,*,#899,.F.);
#1453=ORIENTED_EDGE('',*,*,#902,.F.);
#1454=ORIENTED_EDGE('',*,*,#894,.F.);
#1455=ORIENTED_EDGE('',*,*,#891,.F.);
#1456=ORIENTED_EDGE('',*,*,#887,.F.);
#1457=ORIENTED_EDGE('',*,*,#877,.F.);
#1458=ORIENTED_EDGE('',*,*,#881,.F.);
#1459=ORIENTED_EDGE('',*,*,#884,.F.);
#1460=ORIENTED_EDGE('',*,*,#876,.F.);
#1461=ORIENTED_EDGE('',*,*,#873,.F.);
#1462=ORIENTED_EDGE('',*,*,#870,.F.);
#1463=ORIENTED_EDGE('',*,*,#866,.F.);
#1464=ORIENTED_EDGE('',*,*,#856,.F.);
#1465=ORIENTED_EDGE('',*,*,#860,.F.);
#1466=ORIENTED_EDGE('',*,*,#863,.F.);
#1467=ORIENTED_EDGE('',*,*,#854,.F.);
#1468=ORIENTED_EDGE('',*,*,#844,.F.);
#1469=ORIENTED_EDGE('',*,*,#848,.F.);
#1470=ORIENTED_EDGE('',*,*,#851,.F.);
#1471=ORIENTED_EDGE('',*,*,#843,.F.);
#1472=ORIENTED_EDGE('',*,*,#840,.F.);
#1473=ORIENTED_EDGE('',*,*,#837,.F.);
#1474=CYLINDRICAL_SURFACE('',#1586,1.75);
#1475=CYLINDRICAL_SURFACE('',#1589,1.75);
#1476=CYLINDRICAL_SURFACE('',#1592,1.75);
#1477=CYLINDRICAL_SURFACE('',#1603,1.75);
#1478=CYLINDRICAL_SURFACE('',#1606,1.75);
#1479=CYLINDRICAL_SURFACE('',#1609,1.75);
#1480=CYLINDRICAL_SURFACE('',#1616,1.75);
#1481=CYLINDRICAL_SURFACE('',#1619,1.75);
#1482=CYLINDRICAL_SURFACE('',#1626,1.75);
#1483=CYLINDRICAL_SURFACE('',#1629,1.75);
#1484=CYLINDRICAL_SURFACE('',#1632,1.75);
#1485=CYLINDRICAL_SURFACE('',#1635,1.75);
#1486=CYLINDRICAL_SURFACE('',#1638,1.75);
#1487=CYLINDRICAL_SURFACE('',#1641,1.75);
#1488=CYLINDRICAL_SURFACE('',#1644,12.5);
#1489=CYLINDRICAL_SURFACE('',#1647,1.75);
#1490=CYLINDRICAL_SURFACE('',#1650,1.75);
#1491=CYLINDRICAL_SURFACE('',#1653,1.75);
#1492=CYLINDRICAL_SURFACE('',#1656,1.75);
#1493=CYLINDRICAL_SURFACE('',#1659,1.75);
#1494=CYLINDRICAL_SURFACE('',#1662,1.75);
#1495=CYLINDRICAL_SURFACE('',#1665,1.75);
#1496=CYLINDRICAL_SURFACE('',#1668,1.75);
#1497=CYLINDRICAL_SURFACE('',#1679,132.);
#1498=CYLINDRICAL_SURFACE('',#1697,132.);
#1499=ADVANCED_FACE('',(#117),#1474,.F.);
#1500=ADVANCED_FACE('',(#118),#1475,.F.);
#1501=ADVANCED_FACE('',(#119),#1476,.F.);
#1502=ADVANCED_FACE('',(#120),#69,.T.);
#1503=ADVANCED_FACE('',(#121),#70,.T.);
#1504=ADVANCED_FACE('',(#122),#71,.T.);
#1505=ADVANCED_FACE('',(#123),#72,.T.);
#1506=ADVANCED_FACE('',(#124),#73,.T.);
#1507=ADVANCED_FACE('',(#125),#74,.T.);
#1508=ADVANCED_FACE('',(#126),#75,.T.);
#1509=ADVANCED_FACE('',(#127),#76,.T.);
#1510=ADVANCED_FACE('',(#128),#1477,.F.);
#1511=ADVANCED_FACE('',(#129),#1478,.F.);
#1512=ADVANCED_FACE('',(#130),#1479,.F.);
#1513=ADVANCED_FACE('',(#131),#77,.T.);
#1514=ADVANCED_FACE('',(#132),#78,.T.);
#1515=ADVANCED_FACE('',(#133),#79,.T.);
#1516=ADVANCED_FACE('',(#134),#80,.T.);
#1517=ADVANCED_FACE('',(#135),#1480,.F.);
#1518=ADVANCED_FACE('',(#136),#1481,.F.);
#1519=ADVANCED_FACE('',(#137),#81,.T.);
#1520=ADVANCED_FACE('',(#138),#82,.T.);
#1521=ADVANCED_FACE('',(#139),#83,.T.);
#1522=ADVANCED_FACE('',(#140),#84,.T.);
#1523=ADVANCED_FACE('',(#141),#1482,.F.);
#1524=ADVANCED_FACE('',(#142),#1483,.F.);
#1525=ADVANCED_FACE('',(#143),#1484,.F.);
#1526=ADVANCED_FACE('',(#144),#1485,.F.);
#1527=ADVANCED_FACE('',(#145),#1486,.F.);
#1528=ADVANCED_FACE('',(#146),#1487,.F.);
#1529=ADVANCED_FACE('',(#147),#1488,.F.);
#1530=ADVANCED_FACE('',(#148),#1489,.F.);
#1531=ADVANCED_FACE('',(#149),#1490,.F.);
#1532=ADVANCED_FACE('',(#150),#1491,.F.);
#1533=ADVANCED_FACE('',(#151),#1492,.F.);
#1534=ADVANCED_FACE('',(#152),#1493,.F.);
#1535=ADVANCED_FACE('',(#153),#1494,.F.);
#1536=ADVANCED_FACE('',(#154),#1495,.F.);
#1537=ADVANCED_FACE('',(#155),#1496,.F.);
#1538=ADVANCED_FACE('',(#156),#85,.T.);
#1539=ADVANCED_FACE('',(#157),#86,.T.);
#1540=ADVANCED_FACE('',(#158),#87,.T.);
#1541=ADVANCED_FACE('',(#159),#88,.T.);
#1542=ADVANCED_FACE('',(#160),#89,.T.);
#1543=ADVANCED_FACE('',(#161),#90,.T.);
#1544=ADVANCED_FACE('',(#162),#91,.T.);
#1545=ADVANCED_FACE('',(#163),#92,.T.);
#1546=ADVANCED_FACE('',(#164),#1497,.T.);
#1547=ADVANCED_FACE('',(#165),#93,.T.);
#1548=ADVANCED_FACE('',(#166),#94,.T.);
#1549=ADVANCED_FACE('',(#167),#95,.T.);
#1550=ADVANCED_FACE('',(#168),#96,.T.);
#1551=ADVANCED_FACE('',(#169),#97,.T.);
#1552=ADVANCED_FACE('',(#170),#98,.T.);
#1553=ADVANCED_FACE('',(#171),#99,.T.);
#1554=ADVANCED_FACE('',(#172),#100,.T.);
#1555=ADVANCED_FACE('',(#173),#101,.T.);
#1556=ADVANCED_FACE('',(#174),#102,.T.);
#1557=ADVANCED_FACE('',(#175),#103,.T.);
#1558=ADVANCED_FACE('',(#176),#104,.T.);
#1559=ADVANCED_FACE('',(#177),#105,.T.);
#1560=ADVANCED_FACE('',(#178),#106,.T.);
#1561=ADVANCED_FACE('',(#179),#107,.T.);
#1562=ADVANCED_FACE('',(#180),#1498,.T.);
#1563=ADVANCED_FACE('',(#181),#108,.T.);
#1564=ADVANCED_FACE('',(#182),#109,.T.);
#1565=ADVANCED_FACE('',(#183),#110,.T.);
#1566=ADVANCED_FACE('',(#184),#111,.T.);
#1567=ADVANCED_FACE('',(#185),#112,.T.);
#1568=ADVANCED_FACE('',(#186),#113,.T.);
#1569=ADVANCED_FACE('',(#187),#114,.T.);
#1570=ADVANCED_FACE('',(#188,#15,#16,#17,#18,#19,#20,#21,#22,#23,#24,#25,
#26,#27,#28,#29,#30,#31,#32,#33,#34,#35,#36,#37,#38,#39,#40,#41),#115,.T.);
#1571=ADVANCED_FACE('',(#189,#42,#43,#44,#45,#46,#47,#48,#49,#50,#51,#52,
#53,#54,#55,#56,#57,#58,#59,#60,#61,#62,#63,#64,#65,#66,#67,#68),#116,.F.);
#1572=CLOSED_SHELL('',(#1499,#1500,#1501,#1502,#1503,#1504,#1505,#1506,
#1507,#1508,#1509,#1510,#1511,#1512,#1513,#1514,#1515,#1516,#1517,#1518,
#1519,#1520,#1521,#1522,#1523,#1524,#1525,#1526,#1527,#1528,#1529,#1530,
#1531,#1532,#1533,#1534,#1535,#1536,#1537,#1538,#1539,#1540,#1541,#1542,
#1543,#1544,#1545,#1546,#1547,#1548,#1549,#1550,#1551,#1552,#1553,#1554,
#1555,#1556,#1557,#1558,#1559,#1560,#1561,#1562,#1563,#1564,#1565,#1566,
#1567,#1568,#1569,#1570,#1571));
#1573=DERIVED_UNIT_ELEMENT(#1575,1.);
#1574=DERIVED_UNIT_ELEMENT(#2554,-3.);
#1575=(
MASS_UNIT()
NAMED_UNIT(*)
SI_UNIT(.KILO.,.GRAM.)
);
#1576=DERIVED_UNIT((#1573,#1574));
#1577=MEASURE_REPRESENTATION_ITEM('density measure',
POSITIVE_RATIO_MEASURE(7850.),#1576);
#1578=PROPERTY_DEFINITION_REPRESENTATION(#1583,#1580);
#1579=PROPERTY_DEFINITION_REPRESENTATION(#1584,#1581);
#1580=REPRESENTATION('material name',(#1582),#2551);
#1581=REPRESENTATION('density',(#1577),#2551);
#1582=DESCRIPTIVE_REPRESENTATION_ITEM('Steel','Steel');
#1583=PROPERTY_DEFINITION('material property','material name',#2561);
#1584=PROPERTY_DEFINITION('material property','density of part',#2561);
#1585=AXIS2_PLACEMENT_3D('',#2120,#1709,#1710);
#1586=AXIS2_PLACEMENT_3D('',#2121,#1711,#1712);
#1587=AXIS2_PLACEMENT_3D('',#2123,#1713,#1714);
#1588=AXIS2_PLACEMENT_3D('',#2126,#1716,#1717);
#1589=AXIS2_PLACEMENT_3D('',#2127,#1718,#1719);
#1590=AXIS2_PLACEMENT_3D('',#2129,#1720,#1721);
#1591=AXIS2_PLACEMENT_3D('',#2132,#1723,#1724);
#1592=AXIS2_PLACEMENT_3D('',#2133,#1725,#1726);
#1593=AXIS2_PLACEMENT_3D('',#2135,#1727,#1728);
#1594=AXIS2_PLACEMENT_3D('',#2138,#1730,#1731);
#1595=AXIS2_PLACEMENT_3D('',#2139,#1732,#1733);
#1596=AXIS2_PLACEMENT_3D('',#2148,#1738,#1739);
#1597=AXIS2_PLACEMENT_3D('',#2154,#1743,#1744);
#1598=AXIS2_PLACEMENT_3D('',#2160,#1748,#1749);
#1599=AXIS2_PLACEMENT_3D('',#2163,#1752,#1753);
#1600=AXIS2_PLACEMENT_3D('',#2172,#1758,#1759);
#1601=AXIS2_PLACEMENT_3D('',#2178,#1763,#1764);
#1602=AXIS2_PLACEMENT_3D('',#2184,#1768,#1769);
#1603=AXIS2_PLACEMENT_3D('',#2187,#1772,#1773);
#1604=AXIS2_PLACEMENT_3D('',#2189,#1774,#1775);
#1605=AXIS2_PLACEMENT_3D('',#2192,#1777,#1778);
#1606=AXIS2_PLACEMENT_3D('',#2193,#1779,#1780);
#1607=AXIS2_PLACEMENT_3D('',#2195,#1781,#1782);
#1608=AXIS2_PLACEMENT_3D('',#2198,#1784,#1785);
#1609=AXIS2_PLACEMENT_3D('',#2199,#1786,#1787);
#1610=AXIS2_PLACEMENT_3D('',#2201,#1788,#1789);
#1611=AXIS2_PLACEMENT_3D('',#2204,#1791,#1792);
#1612=AXIS2_PLACEMENT_3D('',#2205,#1793,#1794);
#1613=AXIS2_PLACEMENT_3D('',#2214,#1799,#1800);
#1614=AXIS2_PLACEMENT_3D('',#2220,#1804,#1805);
#1615=AXIS2_PLACEMENT_3D('',#2226,#1809,#1810);
#1616=AXIS2_PLACEMENT_3D('',#2229,#1813,#1814);
#1617=AXIS2_PLACEMENT_3D('',#2231,#1815,#1816);
#1618=AXIS2_PLACEMENT_3D('',#2234,#1818,#1819);
#1619=AXIS2_PLACEMENT_3D('',#2235,#1820,#1821);
#1620=AXIS2_PLACEMENT_3D('',#2237,#1822,#1823);
#1621=AXIS2_PLACEMENT_3D('',#2240,#1825,#1826);
#1622=AXIS2_PLACEMENT_3D('',#2241,#1827,#1828);
#1623=AXIS2_PLACEMENT_3D('',#2250,#1833,#1834);
#1624=AXIS2_PLACEMENT_3D('',#2256,#1838,#1839);
#1625=AXIS2_PLACEMENT_3D('',#2262,#1843,#1844);
#1626=AXIS2_PLACEMENT_3D('',#2265,#1847,#1848);
#1627=AXIS2_PLACEMENT_3D('',#2267,#1849,#1850);
#1628=AXIS2_PLACEMENT_3D('',#2270,#1852,#1853);
#1629=AXIS2_PLACEMENT_3D('',#2271,#1854,#1855);
#1630=AXIS2_PLACEMENT_3D('',#2273,#1856,#1857);
#1631=AXIS2_PLACEMENT_3D('',#2276,#1859,#1860);
#1632=AXIS2_PLACEMENT_3D('',#2277,#1861,#1862);
#1633=AXIS2_PLACEMENT_3D('',#2279,#1863,#1864);
#1634=AXIS2_PLACEMENT_3D('',#2282,#1866,#1867);
#1635=AXIS2_PLACEMENT_3D('',#2283,#1868,#1869);
#1636=AXIS2_PLACEMENT_3D('',#2285,#1870,#1871);
#1637=AXIS2_PLACEMENT_3D('',#2288,#1873,#1874);
#1638=AXIS2_PLACEMENT_3D('',#2289,#1875,#1876);
#1639=AXIS2_PLACEMENT_3D('',#2291,#1877,#1878);
#1640=AXIS2_PLACEMENT_3D('',#2294,#1880,#1881);
#1641=AXIS2_PLACEMENT_3D('',#2295,#1882,#1883);
#1642=AXIS2_PLACEMENT_3D('',#2297,#1884,#1885);
#1643=AXIS2_PLACEMENT_3D('',#2300,#1887,#1888);
#1644=AXIS2_PLACEMENT_3D('',#2301,#1889,#1890);
#1645=AXIS2_PLACEMENT_3D('',#2303,#1891,#1892);
#1646=AXIS2_PLACEMENT_3D('',#2306,#1894,#1895);
#1647=AXIS2_PLACEMENT_3D('',#2307,#1896,#1897);
#1648=AXIS2_PLACEMENT_3D('',#2309,#1898,#1899);
#1649=AXIS2_PLACEMENT_3D('',#2312,#1901,#1902);
#1650=AXIS2_PLACEMENT_3D('',#2313,#1903,#1904);
#1651=AXIS2_PLACEMENT_3D('',#2315,#1905,#1906);
#1652=AXIS2_PLACEMENT_3D('',#2318,#1908,#1909);
#1653=AXIS2_PLACEMENT_3D('',#2319,#1910,#1911);
#1654=AXIS2_PLACEMENT_3D('',#2321,#1912,#1913);
#1655=AXIS2_PLACEMENT_3D('',#2324,#1915,#1916);
#1656=AXIS2_PLACEMENT_3D('',#2325,#1917,#1918);
#1657=AXIS2_PLACEMENT_3D('',#2327,#1919,#1920);
#1658=AXIS2_PLACEMENT_3D('',#2330,#1922,#1923);
#1659=AXIS2_PLACEMENT_3D('',#2331,#1924,#1925);
#1660=AXIS2_PLACEMENT_3D('',#2333,#1926,#1927);
#1661=AXIS2_PLACEMENT_3D('',#2336,#1929,#1930);
#1662=AXIS2_PLACEMENT_3D('',#2337,#1931,#1932);
#1663=AXIS2_PLACEMENT_3D('',#2339,#1933,#1934);
#1664=AXIS2_PLACEMENT_3D('',#2342,#1936,#1937);
#1665=AXIS2_PLACEMENT_3D('',#2343,#1938,#1939);
#1666=AXIS2_PLACEMENT_3D('',#2345,#1940,#1941);
#1667=AXIS2_PLACEMENT_3D('',#2348,#1943,#1944);
#1668=AXIS2_PLACEMENT_3D('',#2349,#1945,#1946);
#1669=AXIS2_PLACEMENT_3D('',#2351,#1947,#1948);
#1670=AXIS2_PLACEMENT_3D('',#2354,#1950,#1951);
#1671=AXIS2_PLACEMENT_3D('',#2355,#1952,#1953);
#1672=AXIS2_PLACEMENT_3D('',#2364,#1958,#1959);
#1673=AXIS2_PLACEMENT_3D('',#2370,#1963,#1964);
#1674=AXIS2_PLACEMENT_3D('',#2376,#1968,#1969);
#1675=AXIS2_PLACEMENT_3D('',#2382,#1973,#1974);
#1676=AXIS2_PLACEMENT_3D('',#2388,#1978,#1979);
#1677=AXIS2_PLACEMENT_3D('',#2394,#1983,#1984);
#1678=AXIS2_PLACEMENT_3D('',#2400,#1988,#1989);
#1679=AXIS2_PLACEMENT_3D('',#2406,#1993,#1994);
#1680=AXIS2_PLACEMENT_3D('',#2408,#1995,#1996);
#1681=AXIS2_PLACEMENT_3D('',#2410,#1997,#1998);
#1682=AXIS2_PLACEMENT_3D('',#2412,#2000,#2001);
#1683=AXIS2_PLACEMENT_3D('',#2418,#2005,#2006);
#1684=AXIS2_PLACEMENT_3D('',#2424,#2010,#2011);
#1685=AXIS2_PLACEMENT_3D('',#2430,#2015,#2016);
#1686=AXIS2_PLACEMENT_3D('',#2436,#2020,#2021);
#1687=AXIS2_PLACEMENT_3D('',#2442,#2025,#2026);
#1688=AXIS2_PLACEMENT_3D('',#2448,#2030,#2031);
#1689=AXIS2_PLACEMENT_3D('',#2454,#2035,#2036);
#1690=AXIS2_PLACEMENT_3D('',#2460,#2040,#2041);
#1691=AXIS2_PLACEMENT_3D('',#2466,#2045,#2046);
#1692=AXIS2_PLACEMENT_3D('',#2472,#2050,#2051);
#1693=AXIS2_PLACEMENT_3D('',#2478,#2055,#2056);
#1694=AXIS2_PLACEMENT_3D('',#2484,#2060,#2061);
#1695=AXIS2_PLACEMENT_3D('',#2490,#2065,#2066);
#1696=AXIS2_PLACEMENT_3D('',#2496,#2070,#2071);
#1697=AXIS2_PLACEMENT_3D('',#2502,#2075,#2076);
#1698=AXIS2_PLACEMENT_3D('',#2504,#2077,#2078);
#1699=AXIS2_PLACEMENT_3D('',#2506,#2079,#2080);
#1700=AXIS2_PLACEMENT_3D('',#2508,#2082,#2083);
#1701=AXIS2_PLACEMENT_3D('',#2514,#2087,#2088);
#1702=AXIS2_PLACEMENT_3D('',#2520,#2092,#2093);
#1703=AXIS2_PLACEMENT_3D('',#2526,#2097,#2098);
#1704=AXIS2_PLACEMENT_3D('',#2532,#2102,#2103);
#1705=AXIS2_PLACEMENT_3D('',#2538,#2107,#2108);
#1706=AXIS2_PLACEMENT_3D('',#2544,#2112,#2113);
#1707=AXIS2_PLACEMENT_3D('',#2547,#2116,#2117);
#1708=AXIS2_PLACEMENT_3D('',#2548,#2118,#2119);
#1709=DIRECTION('axis',(0.,0.,1.));
#1710=DIRECTION('refdir',(1.,0.,0.));
#1711=DIRECTION('center_axis',(0.,0.,1.));
#1712=DIRECTION('ref_axis',(1.,0.,0.));
#1713=DIRECTION('center_axis',(0.,0.,-1.));
#1714=DIRECTION('ref_axis',(1.,0.,0.));
#1715=DIRECTION('',(0.,0.,-1.));
#1716=DIRECTION('center_axis',(0.,0.,-1.));
#1717=DIRECTION('ref_axis',(1.,0.,0.));
#1718=DIRECTION('center_axis',(0.,0.,1.));
#1719=DIRECTION('ref_axis',(1.,0.,0.));
#1720=DIRECTION('center_axis',(0.,0.,-1.));
#1721=DIRECTION('ref_axis',(1.,0.,0.));
#1722=DIRECTION('',(0.,0.,-1.));
#1723=DIRECTION('center_axis',(0.,0.,-1.));
#1724=DIRECTION('ref_axis',(1.,0.,0.));
#1725=DIRECTION('center_axis',(0.,0.,1.));
#1726=DIRECTION('ref_axis',(1.,0.,0.));
#1727=DIRECTION('center_axis',(0.,0.,-1.));
#1728=DIRECTION('ref_axis',(1.,0.,0.));
#1729=DIRECTION('',(0.,0.,-1.));
#1730=DIRECTION('center_axis',(0.,0.,-1.));
#1731=DIRECTION('ref_axis',(1.,0.,0.));
#1732=DIRECTION('center_axis',(1.,0.,0.));
#1733=DIRECTION('ref_axis',(0.,1.,0.));
#1734=DIRECTION('',(0.,1.,0.));
#1735=DIRECTION('',(0.,0.,1.));
#1736=DIRECTION('',(0.,1.,0.));
#1737=DIRECTION('',(0.,0.,1.));
#1738=DIRECTION('center_axis',(0.,1.,0.));
#1739=DIRECTION('ref_axis',(-1.,0.,0.));
#1740=DIRECTION('',(-1.,0.,0.));
#1741=DIRECTION('',(-1.,0.,0.));
#1742=DIRECTION('',(0.,0.,1.));
#1743=DIRECTION('center_axis',(-1.,0.,0.));
#1744=DIRECTION('ref_axis',(0.,-1.,0.));
#1745=DIRECTION('',(0.,-1.,0.));
#1746=DIRECTION('',(0.,-1.,0.));
#1747=DIRECTION('',(0.,0.,1.));
#1748=DIRECTION('center_axis',(0.,-1.,0.));
#1749=DIRECTION('ref_axis',(1.,0.,0.));
#1750=DIRECTION('',(1.,0.,0.));
#1751=DIRECTION('',(1.,0.,0.));
#1752=DIRECTION('center_axis',(0.,-1.,0.));
#1753=DIRECTION('ref_axis',(1.,0.,0.));
#1754=DIRECTION('',(1.,0.,0.));
#1755=DIRECTION('',(0.,0.,1.));
#1756=DIRECTION('',(1.,0.,0.));
#1757=DIRECTION('',(0.,0.,1.));
#1758=DIRECTION('center_axis',(1.,0.,0.));
#1759=DIRECTION('ref_axis',(0.,1.,0.));
#1760=DIRECTION('',(0.,1.,0.));
#1761=DIRECTION('',(0.,1.,0.));
#1762=DIRECTION('',(0.,0.,1.));
#1763=DIRECTION('center_axis',(0.,1.,0.));
#1764=DIRECTION('ref_axis',(-1.,0.,0.));
#1765=DIRECTION('',(-1.,0.,0.));
#1766=DIRECTION('',(-1.,0.,0.));
#1767=DIRECTION('',(0.,0.,1.));
#1768=DIRECTION('center_axis',(-1.,0.,0.));
#1769=DIRECTION('ref_axis',(0.,-1.,0.));
#1770=DIRECTION('',(0.,-1.,0.));
#1771=DIRECTION('',(0.,-1.,0.));
#1772=DIRECTION('center_axis',(0.,0.,1.));
#1773=DIRECTION('ref_axis',(1.,0.,0.));
#1774=DIRECTION('center_axis',(0.,0.,-1.));
#1775=DIRECTION('ref_axis',(1.,0.,0.));
#1776=DIRECTION('',(0.,0.,-1.));
#1777=DIRECTION('center_axis',(0.,0.,-1.));
#1778=DIRECTION('ref_axis',(1.,0.,0.));
#1779=DIRECTION('center_axis',(0.,0.,1.));
#1780=DIRECTION('ref_axis',(1.,0.,0.));
#1781=DIRECTION('center_axis',(0.,0.,-1.));
#1782=DIRECTION('ref_axis',(1.,0.,0.));
#1783=DIRECTION('',(0.,0.,-1.));
#1784=DIRECTION('center_axis',(0.,0.,-1.));
#1785=DIRECTION('ref_axis',(1.,0.,0.));
#1786=DIRECTION('center_axis',(0.,0.,1.));
#1787=DIRECTION('ref_axis',(1.,0.,0.));
#1788=DIRECTION('center_axis',(0.,0.,-1.));
#1789=DIRECTION('ref_axis',(1.,0.,0.));
#1790=DIRECTION('',(0.,0.,-1.));
#1791=DIRECTION('center_axis',(0.,0.,-1.));
#1792=DIRECTION('ref_axis',(1.,0.,0.));
#1793=DIRECTION('center_axis',(1.,0.,0.));
#1794=DIRECTION('ref_axis',(0.,1.,0.));
#1795=DIRECTION('',(0.,1.,0.));
#1796=DIRECTION('',(0.,0.,1.));
#1797=DIRECTION('',(0.,1.,0.));
#1798=DIRECTION('',(0.,0.,1.));
#1799=DIRECTION('center_axis',(0.,1.,0.));
#1800=DIRECTION('ref_axis',(-1.,0.,0.));
#1801=DIRECTION('',(-1.,0.,0.));
#1802=DIRECTION('',(-1.,0.,0.));
#1803=DIRECTION('',(0.,0.,1.));
#1804=DIRECTION('center_axis',(-1.,0.,0.));
#1805=DIRECTION('ref_axis',(0.,-1.,0.));
#1806=DIRECTION('',(0.,-1.,0.));
#1807=DIRECTION('',(0.,-1.,0.));
#1808=DIRECTION('',(0.,0.,1.));
#1809=DIRECTION('center_axis',(0.,-1.,0.));
#1810=DIRECTION('ref_axis',(1.,0.,0.));
#1811=DIRECTION('',(1.,0.,0.));
#1812=DIRECTION('',(1.,0.,0.));
#1813=DIRECTION('center_axis',(0.,0.,1.));
#1814=DIRECTION('ref_axis',(1.,0.,0.));
#1815=DIRECTION('center_axis',(0.,0.,-1.));
#1816=DIRECTION('ref_axis',(1.,0.,0.));
#1817=DIRECTION('',(0.,0.,-1.));
#1818=DIRECTION('center_axis',(0.,0.,-1.));
#1819=DIRECTION('ref_axis',(1.,0.,0.));
#1820=DIRECTION('center_axis',(0.,0.,1.));
#1821=DIRECTION('ref_axis',(1.,0.,0.));
#1822=DIRECTION('center_axis',(0.,0.,-1.));
#1823=DIRECTION('ref_axis',(1.,0.,0.));
#1824=DIRECTION('',(0.,0.,-1.));
#1825=DIRECTION('center_axis',(0.,0.,-1.));
#1826=DIRECTION('ref_axis',(1.,0.,0.));
#1827=DIRECTION('center_axis',(1.,0.,0.));
#1828=DIRECTION('ref_axis',(0.,1.,0.));
#1829=DIRECTION('',(0.,1.,0.));
#1830=DIRECTION('',(0.,0.,1.));
#1831=DIRECTION('',(0.,1.,0.));
#1832=DIRECTION('',(0.,0.,1.));
#1833=DIRECTION('center_axis',(0.,1.,0.));
#1834=DIRECTION('ref_axis',(-1.,0.,0.));
#1835=DIRECTION('',(-1.,0.,0.));
#1836=DIRECTION('',(-1.,0.,0.));
#1837=DIRECTION('',(0.,0.,1.));
#1838=DIRECTION('center_axis',(-1.,0.,0.));
#1839=DIRECTION('ref_axis',(0.,-1.,0.));
#1840=DIRECTION('',(0.,-1.,0.));
#1841=DIRECTION('',(0.,-1.,0.));
#1842=DIRECTION('',(0.,0.,1.));
#1843=DIRECTION('center_axis',(0.,-1.,0.));
#1844=DIRECTION('ref_axis',(1.,0.,0.));
#1845=DIRECTION('',(1.,0.,0.));
#1846=DIRECTION('',(1.,0.,0.));
#1847=DIRECTION('center_axis',(0.,0.,1.));
#1848=DIRECTION('ref_axis',(1.,0.,0.));
#1849=DIRECTION('center_axis',(0.,0.,-1.));
#1850=DIRECTION('ref_axis',(1.,0.,0.));
#1851=DIRECTION('',(0.,0.,-1.));
#1852=DIRECTION('center_axis',(0.,0.,-1.));
#1853=DIRECTION('ref_axis',(1.,0.,0.));
#1854=DIRECTION('center_axis',(0.,0.,1.));
#1855=DIRECTION('ref_axis',(1.,0.,0.));
#1856=DIRECTION('center_axis',(0.,0.,-1.));
#1857=DIRECTION('ref_axis',(1.,0.,0.));
#1858=DIRECTION('',(0.,0.,-1.));
#1859=DIRECTION('center_axis',(0.,0.,-1.));
#1860=DIRECTION('ref_axis',(1.,0.,0.));
#1861=DIRECTION('center_axis',(0.,0.,1.));
#1862=DIRECTION('ref_axis',(1.,0.,0.));
#1863=DIRECTION('center_axis',(0.,0.,-1.));
#1864=DIRECTION('ref_axis',(1.,0.,0.));
#1865=DIRECTION('',(0.,0.,-1.));
#1866=DIRECTION('center_axis',(0.,0.,-1.));
#1867=DIRECTION('ref_axis',(1.,0.,0.));
#1868=DIRECTION('center_axis',(0.,0.,1.));
#1869=DIRECTION('ref_axis',(1.,0.,0.));
#1870=DIRECTION('center_axis',(0.,0.,-1.));
#1871=DIRECTION('ref_axis',(1.,0.,0.));
#1872=DIRECTION('',(0.,0.,-1.));
#1873=DIRECTION('center_axis',(0.,0.,-1.));
#1874=DIRECTION('ref_axis',(1.,0.,0.));
#1875=DIRECTION('center_axis',(0.,0.,1.));
#1876=DIRECTION('ref_axis',(1.,0.,0.));
#1877=DIRECTION('center_axis',(0.,0.,-1.));
#1878=DIRECTION('ref_axis',(1.,0.,0.));
#1879=DIRECTION('',(0.,0.,-1.));
#1880=DIRECTION('center_axis',(0.,0.,-1.));
#1881=DIRECTION('ref_axis',(1.,0.,0.));
#1882=DIRECTION('center_axis',(0.,0.,1.));
#1883=DIRECTION('ref_axis',(1.,0.,0.));
#1884=DIRECTION('center_axis',(0.,0.,-1.));
#1885=DIRECTION('ref_axis',(1.,0.,0.));
#1886=DIRECTION('',(0.,0.,-1.));
#1887=DIRECTION('center_axis',(0.,0.,-1.));
#1888=DIRECTION('ref_axis',(1.,0.,0.));
#1889=DIRECTION('center_axis',(0.,0.,1.));
#1890=DIRECTION('ref_axis',(1.,0.,0.));
#1891=DIRECTION('center_axis',(0.,0.,-1.));
#1892=DIRECTION('ref_axis',(1.,0.,0.));
#1893=DIRECTION('',(0.,0.,-1.));
#1894=DIRECTION('center_axis',(0.,0.,-1.));
#1895=DIRECTION('ref_axis',(1.,0.,0.));
#1896=DIRECTION('center_axis',(0.,0.,1.));
#1897=DIRECTION('ref_axis',(1.,0.,0.));
#1898=DIRECTION('center_axis',(0.,0.,-1.));
#1899=DIRECTION('ref_axis',(1.,0.,0.));
#1900=DIRECTION('',(0.,0.,-1.));
#1901=DIRECTION('center_axis',(0.,0.,-1.));
#1902=DIRECTION('ref_axis',(1.,0.,0.));
#1903=DIRECTION('center_axis',(0.,0.,1.));
#1904=DIRECTION('ref_axis',(1.,0.,0.));
#1905=DIRECTION('center_axis',(0.,0.,-1.));
#1906=DIRECTION('ref_axis',(1.,0.,0.));
#1907=DIRECTION('',(0.,0.,-1.));
#1908=DIRECTION('center_axis',(0.,0.,-1.));
#1909=DIRECTION('ref_axis',(1.,0.,0.));
#1910=DIRECTION('center_axis',(0.,0.,1.));
#1911=DIRECTION('ref_axis',(1.,0.,0.));
#1912=DIRECTION('center_axis',(0.,0.,-1.));
#1913=DIRECTION('ref_axis',(1.,0.,0.));
#1914=DIRECTION('',(0.,0.,-1.));
#1915=DIRECTION('center_axis',(0.,0.,-1.));
#1916=DIRECTION('ref_axis',(1.,0.,0.));
#1917=DIRECTION('center_axis',(0.,0.,1.));
#1918=DIRECTION('ref_axis',(1.,0.,0.));
#1919=DIRECTION('center_axis',(0.,0.,-1.));
#1920=DIRECTION('ref_axis',(1.,0.,0.));
#1921=DIRECTION('',(0.,0.,-1.));
#1922=DIRECTION('center_axis',(0.,0.,-1.));
#1923=DIRECTION('ref_axis',(1.,0.,0.));
#1924=DIRECTION('center_axis',(0.,0.,1.));
#1925=DIRECTION('ref_axis',(1.,0.,0.));
#1926=DIRECTION('center_axis',(0.,0.,-1.));
#1927=DIRECTION('ref_axis',(1.,0.,0.));
#1928=DIRECTION('',(0.,0.,-1.));
#1929=DIRECTION('center_axis',(0.,0.,-1.));
#1930=DIRECTION('ref_axis',(1.,0.,0.));
#1931=DIRECTION('center_axis',(0.,0.,1.));
#1932=DIRECTION('ref_axis',(1.,0.,0.));
#1933=DIRECTION('center_axis',(0.,0.,-1.));
#1934=DIRECTION('ref_axis',(1.,0.,0.));
#1935=DIRECTION('',(0.,0.,-1.));
#1936=DIRECTION('center_axis',(0.,0.,-1.));
#1937=DIRECTION('ref_axis',(1.,0.,0.));
#1938=DIRECTION('center_axis',(0.,0.,1.));
#1939=DIRECTION('ref_axis',(1.,0.,0.));
#1940=DIRECTION('center_axis',(0.,0.,-1.));
#1941=DIRECTION('ref_axis',(1.,0.,0.));
#1942=DIRECTION('',(0.,0.,-1.));
#1943=DIRECTION('center_axis',(0.,0.,-1.));
#1944=DIRECTION('ref_axis',(1.,0.,0.));
#1945=DIRECTION('center_axis',(0.,0.,1.));
#1946=DIRECTION('ref_axis',(1.,0.,0.));
#1947=DIRECTION('center_axis',(0.,0.,-1.));
#1948=DIRECTION('ref_axis',(1.,0.,0.));
#1949=DIRECTION('',(0.,0.,-1.));
#1950=DIRECTION('center_axis',(0.,0.,-1.));
#1951=DIRECTION('ref_axis',(1.,0.,0.));
#1952=DIRECTION('center_axis',(1.,0.,0.));
#1953=DIRECTION('ref_axis',(0.,1.,0.));
#1954=DIRECTION('',(0.,-1.,0.));
#1955=DIRECTION('',(0.,0.,1.));
#1956=DIRECTION('',(0.,1.,0.));
#1957=DIRECTION('',(0.,0.,1.));
#1958=DIRECTION('center_axis',(-3.91843420455937E-16,1.,0.));
#1959=DIRECTION('ref_axis',(-1.,-3.91843420455937E-16,0.));
#1960=DIRECTION('',(-1.,-3.91843420455937E-16,0.));
#1961=DIRECTION('',(-1.,-3.91843420455937E-16,0.));
#1962=DIRECTION('',(0.,0.,1.));
#1963=DIRECTION('center_axis',(1.,0.,0.));
#1964=DIRECTION('ref_axis',(0.,1.,0.));
#1965=DIRECTION('',(0.,1.,0.));
#1966=DIRECTION('',(0.,1.,0.));
#1967=DIRECTION('',(0.,0.,1.));
#1968=DIRECTION('center_axis',(0.,1.,0.));
#1969=DIRECTION('ref_axis',(-1.,0.,0.));
#1970=DIRECTION('',(-1.,0.,0.));
#1971=DIRECTION('',(-1.,0.,0.));
#1972=DIRECTION('',(0.,0.,1.));
#1973=DIRECTION('center_axis',(-1.,0.,0.));
#1974=DIRECTION('ref_axis',(0.,-1.,0.));
#1975=DIRECTION('',(0.,-1.,0.));
#1976=DIRECTION('',(0.,-1.,0.));
#1977=DIRECTION('',(0.,0.,1.));
#1978=DIRECTION('center_axis',(0.,1.,0.));
#1979=DIRECTION('ref_axis',(-1.,0.,0.));
#1980=DIRECTION('',(1.,0.,0.));
#1981=DIRECTION('',(-1.,0.,0.));
#1982=DIRECTION('',(0.,0.,1.));
#1983=DIRECTION('center_axis',(1.,0.,0.));
#1984=DIRECTION('ref_axis',(0.,1.,0.));
#1985=DIRECTION('',(0.,1.,0.));
#1986=DIRECTION('',(0.,1.,0.));
#1987=DIRECTION('',(0.,0.,1.));
#1988=DIRECTION('center_axis',(0.,1.,0.));
#1989=DIRECTION('ref_axis',(-1.,0.,0.));
#1990=DIRECTION('',(1.,0.,0.));
#1991=DIRECTION('',(-1.,0.,0.));
#1992=DIRECTION('',(0.,0.,1.));
#1993=DIRECTION('center_axis',(0.,0.,1.));
#1994=DIRECTION('ref_axis',(1.,0.,0.));
#1995=DIRECTION('center_axis',(0.,0.,1.));
#1996=DIRECTION('ref_axis',(1.,0.,0.));
#1997=DIRECTION('center_axis',(0.,0.,1.));
#1998=DIRECTION('ref_axis',(1.,0.,0.));
#1999=DIRECTION('',(0.,0.,1.));
#2000=DIRECTION('center_axis',(0.,1.,0.));
#2001=DIRECTION('ref_axis',(-1.,0.,0.));
#2002=DIRECTION('',(-1.,0.,0.));
#2003=DIRECTION('',(-1.,0.,0.));
#2004=DIRECTION('',(0.,0.,1.));
#2005=DIRECTION('center_axis',(-1.,0.,0.));
#2006=DIRECTION('ref_axis',(0.,-1.,0.));
#2007=DIRECTION('',(0.,1.,0.));
#2008=DIRECTION('',(0.,-1.,0.));
#2009=DIRECTION('',(0.,0.,1.));
#2010=DIRECTION('center_axis',(0.,1.,0.));
#2011=DIRECTION('ref_axis',(-1.,0.,0.));
#2012=DIRECTION('',(-1.,0.,0.));
#2013=DIRECTION('',(-1.,0.,0.));
#2014=DIRECTION('',(0.,0.,1.));
#2015=DIRECTION('center_axis',(1.,0.,0.));
#2016=DIRECTION('ref_axis',(0.,1.,0.));
#2017=DIRECTION('',(0.,-1.,0.));
#2018=DIRECTION('',(0.,1.,0.));
#2019=DIRECTION('',(0.,0.,1.));
#2020=DIRECTION('center_axis',(0.,1.,0.));
#2021=DIRECTION('ref_axis',(-1.,0.,0.));
#2022=DIRECTION('',(1.,0.,0.));
#2023=DIRECTION('',(-1.,0.,0.));
#2024=DIRECTION('',(0.,0.,1.));
#2025=DIRECTION('center_axis',(-1.,0.,0.));
#2026=DIRECTION('ref_axis',(0.,-1.,0.));
#2027=DIRECTION('',(0.,1.,0.));
#2028=DIRECTION('',(0.,-1.,0.));
#2029=DIRECTION('',(0.,0.,1.));
#2030=DIRECTION('center_axis',(3.91843420455937E-16,1.,0.));
#2031=DIRECTION('ref_axis',(-1.,3.91843420455937E-16,0.));
#2032=DIRECTION('',(1.,-3.91843420455937E-16,0.));
#2033=DIRECTION('',(-1.,3.91843420455937E-16,0.));
#2034=DIRECTION('',(0.,0.,1.));
#2035=DIRECTION('center_axis',(-1.,0.,0.));
#2036=DIRECTION('ref_axis',(0.,-1.,0.));
#2037=DIRECTION('',(0.,-1.,0.));
#2038=DIRECTION('',(0.,-1.,0.));
#2039=DIRECTION('',(0.,0.,1.));
#2040=DIRECTION('center_axis',(-3.91843420455937E-16,-1.,0.));
#2041=DIRECTION('ref_axis',(1.,-3.91843420455937E-16,0.));
#2042=DIRECTION('',(1.,-3.91843420455937E-16,0.));
#2043=DIRECTION('',(1.,-3.91843420455937E-16,0.));
#2044=DIRECTION('',(0.,0.,1.));
#2045=DIRECTION('center_axis',(-1.,0.,0.));
#2046=DIRECTION('ref_axis',(0.,-1.,0.));
#2047=DIRECTION('',(0.,1.,0.));
#2048=DIRECTION('',(0.,-1.,0.));
#2049=DIRECTION('',(0.,0.,1.));
#2050=DIRECTION('center_axis',(0.,-1.,0.));
#2051=DIRECTION('ref_axis',(1.,0.,0.));
#2052=DIRECTION('',(-1.,0.,0.));
#2053=DIRECTION('',(1.,0.,0.));
#2054=DIRECTION('',(0.,0.,1.));
#2055=DIRECTION('center_axis',(1.,0.,0.));
#2056=DIRECTION('ref_axis',(0.,1.,0.));
#2057=DIRECTION('',(0.,-1.,0.));
#2058=DIRECTION('',(0.,1.,0.));
#2059=DIRECTION('',(0.,0.,1.));
#2060=DIRECTION('center_axis',(0.,-1.,0.));
#2061=DIRECTION('ref_axis',(1.,0.,0.));
#2062=DIRECTION('',(-1.,0.,0.));
#2063=DIRECTION('',(1.,0.,0.));
#2064=DIRECTION('',(0.,0.,1.));
#2065=DIRECTION('center_axis',(-1.,0.,0.));
#2066=DIRECTION('ref_axis',(0.,-1.,0.));
#2067=DIRECTION('',(0.,1.,0.));
#2068=DIRECTION('',(0.,-1.,0.));
#2069=DIRECTION('',(0.,0.,1.));
#2070=DIRECTION('center_axis',(0.,-1.,0.));
#2071=DIRECTION('ref_axis',(1.,0.,0.));
#2072=DIRECTION('',(-1.,0.,0.));
#2073=DIRECTION('',(1.,0.,0.));
#2074=DIRECTION('',(0.,0.,1.));
#2075=DIRECTION('center_axis',(0.,0.,1.));
#2076=DIRECTION('ref_axis',(1.,0.,0.));
#2077=DIRECTION('center_axis',(0.,0.,1.));
#2078=DIRECTION('ref_axis',(1.,0.,0.));
#2079=DIRECTION('center_axis',(0.,0.,1.));
#2080=DIRECTION('ref_axis',(1.,0.,0.));
#2081=DIRECTION('',(0.,0.,1.));
#2082=DIRECTION('center_axis',(0.,-1.,0.));
#2083=DIRECTION('ref_axis',(1.,0.,0.));
#2084=DIRECTION('',(1.,0.,0.));
#2085=DIRECTION('',(1.,0.,0.));
#2086=DIRECTION('',(0.,0.,1.));
#2087=DIRECTION('center_axis',(1.,0.,0.));
#2088=DIRECTION('ref_axis',(0.,1.,0.));
#2089=DIRECTION('',(0.,1.,0.));
#2090=DIRECTION('',(0.,1.,0.));
#2091=DIRECTION('',(0.,0.,1.));
#2092=DIRECTION('center_axis',(0.,-1.,0.));
#2093=DIRECTION('ref_axis',(1.,0.,0.));
#2094=DIRECTION('',(1.,0.,0.));
#2095=DIRECTION('',(1.,0.,0.));
#2096=DIRECTION('',(0.,0.,1.));
#2097=DIRECTION('center_axis',(-1.,0.,0.));
#2098=DIRECTION('ref_axis',(0.,-1.,0.));
#2099=DIRECTION('',(0.,-1.,0.));
#2100=DIRECTION('',(0.,-1.,0.));
#2101=DIRECTION('',(0.,0.,1.));
#2102=DIRECTION('center_axis',(0.,-1.,0.));
#2103=DIRECTION('ref_axis',(1.,0.,0.));
#2104=DIRECTION('',(1.,0.,0.));
#2105=DIRECTION('',(1.,0.,0.));
#2106=DIRECTION('',(0.,0.,1.));
#2107=DIRECTION('center_axis',(1.,0.,0.));
#2108=DIRECTION('ref_axis',(0.,1.,0.));
#2109=DIRECTION('',(0.,1.,0.));
#2110=DIRECTION('',(0.,1.,0.));
#2111=DIRECTION('',(0.,0.,1.));
#2112=DIRECTION('center_axis',(3.91843420455937E-16,-1.,0.));
#2113=DIRECTION('ref_axis',(1.,3.91843420455937E-16,0.));
#2114=DIRECTION('',(-1.,-3.91843420455937E-16,0.));
#2115=DIRECTION('',(1.,3.91843420455937E-16,0.));
#2116=DIRECTION('center_axis',(0.,0.,1.));
#2117=DIRECTION('ref_axis',(1.,0.,0.));
#2118=DIRECTION('center_axis',(0.,0.,1.));
#2119=DIRECTION('ref_axis',(1.,0.,0.));
#2120=CARTESIAN_POINT('',(0.,0.,0.));
#2121=CARTESIAN_POINT('Origin',(-75.,75.,0.));
#2122=CARTESIAN_POINT('',(-76.75,75.,5.));
#2123=CARTESIAN_POINT('Origin',(-75.,75.,5.));
#2124=CARTESIAN_POINT('',(-76.75,75.,0.));
#2125=CARTESIAN_POINT('',(-76.75,75.,0.));
#2126=CARTESIAN_POINT('Origin',(-75.,75.,0.));
#2127=CARTESIAN_POINT('Origin',(2.31111593326468E-32,-83.3,0.));
#2128=CARTESIAN_POINT('',(-1.75,-83.3,5.));
#2129=CARTESIAN_POINT('Origin',(2.31111593326468E-32,-83.3,5.));
#2130=CARTESIAN_POINT('',(-1.75,-83.3,0.));
#2131=CARTESIAN_POINT('',(-1.75,-83.3,0.));
#2132=CARTESIAN_POINT('Origin',(2.31111593326468E-32,-83.3,0.));
#2133=CARTESIAN_POINT('Origin',(1.92592994438724E-32,-61.3,0.));
#2134=CARTESIAN_POINT('',(-1.75,-61.3,5.));
#2135=CARTESIAN_POINT('Origin',(1.92592994438724E-32,-61.3,5.));
#2136=CARTESIAN_POINT('',(-1.75,-61.3,0.));
#2137=CARTESIAN_POINT('',(-1.75,-61.3,0.));
#2138=CARTESIAN_POINT('Origin',(1.92592994438724E-32,-61.3,0.));
#2139=CARTESIAN_POINT('Origin',(-35.,-76.3,0.));
#2140=CARTESIAN_POINT('',(-35.,-76.3,0.));
#2141=CARTESIAN_POINT('',(-35.,-71.3,0.));
#2142=CARTESIAN_POINT('',(-35.,-76.3,0.));
#2143=CARTESIAN_POINT('',(-35.,-71.3,5.));
#2144=CARTESIAN_POINT('',(-35.,-71.3,0.));
#2145=CARTESIAN_POINT('',(-35.,-76.3,5.));
#2146=CARTESIAN_POINT('',(-35.,-76.3,5.));
#2147=CARTESIAN_POINT('',(-35.,-76.3,0.));
#2148=CARTESIAN_POINT('Origin',(-30.,-76.3,0.));
#2149=CARTESIAN_POINT('',(-30.,-76.3,0.));
#2150=CARTESIAN_POINT('',(-30.,-76.3,0.));
#2151=CARTESIAN_POINT('',(-30.,-76.3,5.));
#2152=CARTESIAN_POINT('',(-30.,-76.3,5.));
#2153=CARTESIAN_POINT('',(-30.,-76.3,0.));
#2154=CARTESIAN_POINT('Origin',(-30.,-71.3,0.));
#2155=CARTESIAN_POINT('',(-30.,-71.3,0.));
#2156=CARTESIAN_POINT('',(-30.,-71.3,0.));
#2157=CARTESIAN_POINT('',(-30.,-71.3,5.));
#2158=CARTESIAN_POINT('',(-30.,-71.3,5.));
#2159=CARTESIAN_POINT('',(-30.,-71.3,0.));
#2160=CARTESIAN_POINT('Origin',(-35.,-71.3,0.));
#2161=CARTESIAN_POINT('',(-35.,-71.3,0.));
#2162=CARTESIAN_POINT('',(-35.,-71.3,5.));
#2163=CARTESIAN_POINT('Origin',(-40.5,39.3,0.));
#2164=CARTESIAN_POINT('',(-40.5,39.3,0.));
#2165=CARTESIAN_POINT('',(-29.5,39.3,0.));
#2166=CARTESIAN_POINT('',(-29.5,39.3,0.));
#2167=CARTESIAN_POINT('',(-29.5,39.3,5.));
#2168=CARTESIAN_POINT('',(-29.5,39.3,0.));
#2169=CARTESIAN_POINT('',(-40.5,39.3,5.));
#2170=CARTESIAN_POINT('',(-29.5,39.3,5.));
#2171=CARTESIAN_POINT('',(-40.5,39.3,0.));
#2172=CARTESIAN_POINT('Origin',(-40.5,36.3,0.));
#2173=CARTESIAN_POINT('',(-40.5,36.3,0.));
#2174=CARTESIAN_POINT('',(-40.5,39.3,0.));
#2175=CARTESIAN_POINT('',(-40.5,36.3,5.));
#2176=CARTESIAN_POINT('',(-40.5,39.3,5.));
#2177=CARTESIAN_POINT('',(-40.5,36.3,0.));
#2178=CARTESIAN_POINT('Origin',(-29.5,36.3,0.));
#2179=CARTESIAN_POINT('',(-29.5,36.3,0.));
#2180=CARTESIAN_POINT('',(-40.5,36.3,0.));
#2181=CARTESIAN_POINT('',(-29.5,36.3,5.));
#2182=CARTESIAN_POINT('',(-40.5,36.3,5.));
#2183=CARTESIAN_POINT('',(-29.5,36.3,0.));
#2184=CARTESIAN_POINT('Origin',(-29.5,39.3,0.));
#2185=CARTESIAN_POINT('',(-29.5,36.3,0.));
#2186=CARTESIAN_POINT('',(-29.5,36.3,5.));
#2187=CARTESIAN_POINT('Origin',(75.,75.,0.));
#2188=CARTESIAN_POINT('',(73.25,75.,5.));
#2189=CARTESIAN_POINT('Origin',(75.,75.,5.));
#2190=CARTESIAN_POINT('',(73.25,75.,0.));
#2191=CARTESIAN_POINT('',(73.25,75.,0.));
#2192=CARTESIAN_POINT('Origin',(75.,75.,0.));
#2193=CARTESIAN_POINT('Origin',(75.,-75.,0.));
#2194=CARTESIAN_POINT('',(73.25,-75.,5.));
#2195=CARTESIAN_POINT('Origin',(75.,-75.,5.));
#2196=CARTESIAN_POINT('',(73.25,-75.,0.));
#2197=CARTESIAN_POINT('',(73.25,-75.,0.));
#2198=CARTESIAN_POINT('Origin',(75.,-75.,0.));
#2199=CARTESIAN_POINT('Origin',(2.69630192214213E-32,-105.3,0.));
#2200=CARTESIAN_POINT('',(-1.75000000000001,-105.3,5.));
#2201=CARTESIAN_POINT('Origin',(2.69630192214213E-32,-105.3,5.));
#2202=CARTESIAN_POINT('',(-1.75,-105.3,0.));
#2203=CARTESIAN_POINT('',(-1.75,-105.3,0.));
#2204=CARTESIAN_POINT('Origin',(2.69630192214213E-32,-105.3,0.));
#2205=CARTESIAN_POINT('Origin',(-98.5,47.,0.));
#2206=CARTESIAN_POINT('',(-98.5,47.,0.));
#2207=CARTESIAN_POINT('',(-98.5,55.4,0.));
#2208=CARTESIAN_POINT('',(-98.5,47.,0.));
#2209=CARTESIAN_POINT('',(-98.5,55.4,5.));
#2210=CARTESIAN_POINT('',(-98.5,55.4,0.));
#2211=CARTESIAN_POINT('',(-98.5,47.,5.));
#2212=CARTESIAN_POINT('',(-98.5,47.,5.));
#2213=CARTESIAN_POINT('',(-98.5,47.,0.));
#2214=CARTESIAN_POINT('Origin',(-84.5,47.,0.));
#2215=CARTESIAN_POINT('',(-84.5,47.,0.));
#2216=CARTESIAN_POINT('',(-84.5,47.,0.));
#2217=CARTESIAN_POINT('',(-84.5,47.,5.));
#2218=CARTESIAN_POINT('',(-84.5,47.,5.));
#2219=CARTESIAN_POINT('',(-84.5,47.,0.));
#2220=CARTESIAN_POINT('Origin',(-84.5,55.4,0.));
#2221=CARTESIAN_POINT('',(-84.5,55.4,0.));
#2222=CARTESIAN_POINT('',(-84.5,55.4,0.));
#2223=CARTESIAN_POINT('',(-84.5,55.4,5.));
#2224=CARTESIAN_POINT('',(-84.5,55.4,5.));
#2225=CARTESIAN_POINT('',(-84.5,55.4,0.));
#2226=CARTESIAN_POINT('Origin',(-98.5,55.4,0.));
#2227=CARTESIAN_POINT('',(-98.5,55.4,0.));
#2228=CARTESIAN_POINT('',(-98.5,55.4,5.));
#2229=CARTESIAN_POINT('Origin',(-75.,-75.,0.));
#2230=CARTESIAN_POINT('',(-76.75,-75.,5.));
#2231=CARTESIAN_POINT('Origin',(-75.,-75.,5.));
#2232=CARTESIAN_POINT('',(-76.75,-75.,0.));
#2233=CARTESIAN_POINT('',(-76.75,-75.,0.));
#2234=CARTESIAN_POINT('Origin',(-75.,-75.,0.));
#2235=CARTESIAN_POINT('Origin',(-8.75,-53.,0.));
#2236=CARTESIAN_POINT('',(-10.5,-53.,5.));
#2237=CARTESIAN_POINT('Origin',(-8.75,-53.,5.));
#2238=CARTESIAN_POINT('',(-10.5,-53.,0.));
#2239=CARTESIAN_POINT('',(-10.5,-53.,0.));
#2240=CARTESIAN_POINT('Origin',(-8.75,-53.,0.));
#2241=CARTESIAN_POINT('Origin',(29.5,36.3,0.));
#2242=CARTESIAN_POINT('',(29.5,36.3,0.));
#2243=CARTESIAN_POINT('',(29.5,39.3,0.));
#2244=CARTESIAN_POINT('',(29.5,36.3,0.));
#2245=CARTESIAN_POINT('',(29.5,39.3,5.));
#2246=CARTESIAN_POINT('',(29.5,39.3,0.));
#2247=CARTESIAN_POINT('',(29.5,36.3,5.));
#2248=CARTESIAN_POINT('',(29.5,36.3,5.));
#2249=CARTESIAN_POINT('',(29.5,36.3,0.));
#2250=CARTESIAN_POINT('Origin',(40.5,36.3,0.));
#2251=CARTESIAN_POINT('',(40.5,36.3,0.));
#2252=CARTESIAN_POINT('',(40.5,36.3,0.));
#2253=CARTESIAN_POINT('',(40.5,36.3,5.));
#2254=CARTESIAN_POINT('',(40.5,36.3,5.));
#2255=CARTESIAN_POINT('',(40.5,36.3,0.));
#2256=CARTESIAN_POINT('Origin',(40.5,39.3,0.));
#2257=CARTESIAN_POINT('',(40.5,39.3,0.));
#2258=CARTESIAN_POINT('',(40.5,39.3,0.));
#2259=CARTESIAN_POINT('',(40.5,39.3,5.));
#2260=CARTESIAN_POINT('',(40.5,39.3,5.));
#2261=CARTESIAN_POINT('',(40.5,39.3,0.));
#2262=CARTESIAN_POINT('Origin',(29.5,39.3,0.));
#2263=CARTESIAN_POINT('',(29.5,39.3,0.));
#2264=CARTESIAN_POINT('',(29.5,39.3,5.));
#2265=CARTESIAN_POINT('Origin',(8.75,-53.,0.));
#2266=CARTESIAN_POINT('',(7.,-53.,5.));
#2267=CARTESIAN_POINT('Origin',(8.75,-53.,5.));
#2268=CARTESIAN_POINT('',(7.,-53.,0.));
#2269=CARTESIAN_POINT('',(7.,-53.,0.));
#2270=CARTESIAN_POINT('Origin',(8.75,-53.,0.));
#2271=CARTESIAN_POINT('Origin',(46.5,29.,0.));
#2272=CARTESIAN_POINT('',(44.75,29.,5.));
#2273=CARTESIAN_POINT('Origin',(46.5,29.,5.));
#2274=CARTESIAN_POINT('',(44.75,29.,0.));
#2275=CARTESIAN_POINT('',(44.75,29.,0.));
#2276=CARTESIAN_POINT('Origin',(46.5,29.,0.));
#2277=CARTESIAN_POINT('Origin',(-31.5,-105.3,0.));
#2278=CARTESIAN_POINT('',(-33.25,-105.3,5.));
#2279=CARTESIAN_POINT('Origin',(-31.5,-105.3,5.));
#2280=CARTESIAN_POINT('',(-33.25,-105.3,0.));
#2281=CARTESIAN_POINT('',(-33.25,-105.3,0.));
#2282=CARTESIAN_POINT('Origin',(-31.5,-105.3,0.));
#2283=CARTESIAN_POINT('Origin',(-46.5,-29.,0.));
#2284=CARTESIAN_POINT('',(-48.25,-29.,5.));
#2285=CARTESIAN_POINT('Origin',(-46.5,-29.,5.));
#2286=CARTESIAN_POINT('',(-48.25,-29.,0.));
#2287=CARTESIAN_POINT('',(-48.25,-29.,0.));
#2288=CARTESIAN_POINT('Origin',(-46.5,-29.,0.));
#2289=CARTESIAN_POINT('Origin',(-8.75,-40.,0.));
#2290=CARTESIAN_POINT('',(-10.5,-40.,5.));
#2291=CARTESIAN_POINT('Origin',(-8.75,-40.,5.));
#2292=CARTESIAN_POINT('',(-10.5,-40.,0.));
#2293=CARTESIAN_POINT('',(-10.5,-40.,0.));
#2294=CARTESIAN_POINT('Origin',(-8.75,-40.,0.));
#2295=CARTESIAN_POINT('Origin',(8.75,-40.,0.));
#2296=CARTESIAN_POINT('',(7.,-40.,5.));
#2297=CARTESIAN_POINT('Origin',(8.75,-40.,5.));
#2298=CARTESIAN_POINT('',(7.,-40.,0.));
#2299=CARTESIAN_POINT('',(7.,-40.,0.));
#2300=CARTESIAN_POINT('Origin',(8.75,-40.,0.));
#2301=CARTESIAN_POINT('Origin',(0.,0.,0.));
#2302=CARTESIAN_POINT('',(-12.5,0.,5.));
#2303=CARTESIAN_POINT('Origin',(0.,0.,5.));
#2304=CARTESIAN_POINT('',(-12.5,-1.53080849893419E-15,0.));
#2305=CARTESIAN_POINT('',(-12.5,-1.53080849893419E-15,0.));
#2306=CARTESIAN_POINT('Origin',(0.,0.,0.));
#2307=CARTESIAN_POINT('Origin',(-46.5,29.,0.));
#2308=CARTESIAN_POINT('',(-48.25,29.,5.));
#2309=CARTESIAN_POINT('Origin',(-46.5,29.,5.));
#2310=CARTESIAN_POINT('',(-48.25,29.,0.));
#2311=CARTESIAN_POINT('',(-48.25,29.,0.));
#2312=CARTESIAN_POINT('Origin',(-46.5,29.,0.));
#2313=CARTESIAN_POINT('Origin',(46.5,-29.,0.));
#2314=CARTESIAN_POINT('',(44.75,-29.,5.));
#2315=CARTESIAN_POINT('Origin',(46.5,-29.,5.));
#2316=CARTESIAN_POINT('',(44.75,-29.,0.));
#2317=CARTESIAN_POINT('',(44.75,-29.,0.));
#2318=CARTESIAN_POINT('Origin',(46.5,-29.,0.));
#2319=CARTESIAN_POINT('Origin',(31.5,-105.3,0.));
#2320=CARTESIAN_POINT('',(29.75,-105.3,5.));
#2321=CARTESIAN_POINT('Origin',(31.5,-105.3,5.));
#2322=CARTESIAN_POINT('',(29.75,-105.3,0.));
#2323=CARTESIAN_POINT('',(29.75,-105.3,0.));
#2324=CARTESIAN_POINT('Origin',(31.5,-105.3,0.));
#2325=CARTESIAN_POINT('Origin',(2.69630192214213E-32,105.3,0.));
#2326=CARTESIAN_POINT('',(-1.75000000000001,105.3,5.));
#2327=CARTESIAN_POINT('Origin',(2.69630192214213E-32,105.3,5.));
#2328=CARTESIAN_POINT('',(-1.75,105.3,0.));
#2329=CARTESIAN_POINT('',(-1.75,105.3,0.));
#2330=CARTESIAN_POINT('Origin',(2.69630192214213E-32,105.3,0.));
#2331=CARTESIAN_POINT('Origin',(-46.5,120.5,0.));
#2332=CARTESIAN_POINT('',(-48.25,120.5,5.));
#2333=CARTESIAN_POINT('Origin',(-46.5,120.5,5.));
#2334=CARTESIAN_POINT('',(-48.25,120.5,0.));
#2335=CARTESIAN_POINT('',(-48.25,120.5,0.));
#2336=CARTESIAN_POINT('Origin',(-46.5,120.5,0.));
#2337=CARTESIAN_POINT('Origin',(-31.5,105.3,0.));
#2338=CARTESIAN_POINT('',(-33.25,105.3,5.));
#2339=CARTESIAN_POINT('Origin',(-31.5,105.3,5.));
#2340=CARTESIAN_POINT('',(-33.25,105.3,0.));
#2341=CARTESIAN_POINT('',(-33.25,105.3,0.));
#2342=CARTESIAN_POINT('Origin',(-31.5,105.3,0.));
#2343=CARTESIAN_POINT('Origin',(31.5,105.3,0.));
#2344=CARTESIAN_POINT('',(29.75,105.3,5.));
#2345=CARTESIAN_POINT('Origin',(31.5,105.3,5.));
#2346=CARTESIAN_POINT('',(29.75,105.3,0.));
#2347=CARTESIAN_POINT('',(29.75,105.3,0.));
#2348=CARTESIAN_POINT('Origin',(31.5,105.3,0.));
#2349=CARTESIAN_POINT('Origin',(46.5,120.5,0.));
#2350=CARTESIAN_POINT('',(44.75,120.5,5.));
#2351=CARTESIAN_POINT('Origin',(46.5,120.5,5.));
#2352=CARTESIAN_POINT('',(44.75,120.5,0.));
#2353=CARTESIAN_POINT('',(44.75,120.5,0.));
#2354=CARTESIAN_POINT('Origin',(46.5,120.5,0.));
#2355=CARTESIAN_POINT('Origin',(29.5,-21.3,0.));
#2356=CARTESIAN_POINT('',(29.5,21.3,0.));
#2357=CARTESIAN_POINT('',(29.5,-21.3,0.));
#2358=CARTESIAN_POINT('',(29.5,21.3,0.));
#2359=CARTESIAN_POINT('',(29.5,21.3,5.));
#2360=CARTESIAN_POINT('',(29.5,21.3,0.));
#2361=CARTESIAN_POINT('',(29.5,-21.3,5.));
#2362=CARTESIAN_POINT('',(29.5,21.3,5.));
#2363=CARTESIAN_POINT('',(29.5,-21.3,0.));
#2364=CARTESIAN_POINT('Origin',(63.5,-21.3,0.));
#2365=CARTESIAN_POINT('',(63.5,-21.3,0.));
#2366=CARTESIAN_POINT('',(63.5,-21.3,0.));
#2367=CARTESIAN_POINT('',(63.5,-21.3,5.));
#2368=CARTESIAN_POINT('',(63.5,-21.3,5.));
#2369=CARTESIAN_POINT('',(63.5,-21.3,0.));
#2370=CARTESIAN_POINT('Origin',(63.5,-25.,0.));
#2371=CARTESIAN_POINT('',(63.5,-25.,0.));
#2372=CARTESIAN_POINT('',(63.5,-25.,0.));
#2373=CARTESIAN_POINT('',(63.5,-25.,5.));
#2374=CARTESIAN_POINT('',(63.5,-25.,5.));
#2375=CARTESIAN_POINT('',(63.5,-25.,0.));
#2376=CARTESIAN_POINT('Origin',(84.5,-25.,0.));
#2377=CARTESIAN_POINT('',(84.5,-25.,0.));
#2378=CARTESIAN_POINT('',(84.5,-25.,0.));
#2379=CARTESIAN_POINT('',(84.5,-25.,5.));
#2380=CARTESIAN_POINT('',(84.5,-25.,5.));
#2381=CARTESIAN_POINT('',(84.5,-25.,0.));
#2382=CARTESIAN_POINT('Origin',(84.5,-10.,0.));
#2383=CARTESIAN_POINT('',(84.5,-10.,0.));
#2384=CARTESIAN_POINT('',(84.5,-10.,0.));
#2385=CARTESIAN_POINT('',(84.5,-10.,5.));
#2386=CARTESIAN_POINT('',(84.5,-10.,5.));
#2387=CARTESIAN_POINT('',(84.5,-10.,0.));
#2388=CARTESIAN_POINT('Origin',(94.5,-10.,0.));
#2389=CARTESIAN_POINT('',(94.5,-10.,0.));
#2390=CARTESIAN_POINT('',(84.5,-10.,0.));
#2391=CARTESIAN_POINT('',(94.5,-10.,5.));
#2392=CARTESIAN_POINT('',(84.5,-10.,5.));
#2393=CARTESIAN_POINT('',(94.5,-10.,0.));
#2394=CARTESIAN_POINT('Origin',(94.5,-35.,0.));
#2395=CARTESIAN_POINT('',(94.5,-35.,0.));
#2396=CARTESIAN_POINT('',(94.5,-35.,0.));
#2397=CARTESIAN_POINT('',(94.5,-35.,5.));
#2398=CARTESIAN_POINT('',(94.5,-35.,5.));
#2399=CARTESIAN_POINT('',(94.5,-35.,0.));
#2400=CARTESIAN_POINT('Origin',(127.275292181947,-35.,0.));
#2401=CARTESIAN_POINT('',(127.275292181947,-35.,0.));
#2402=CARTESIAN_POINT('',(94.5,-35.,0.));
#2403=CARTESIAN_POINT('',(127.275292181947,-35.,5.));
#2404=CARTESIAN_POINT('',(94.5,-35.,5.));
#2405=CARTESIAN_POINT('',(127.275292181947,-35.,0.));
#2406=CARTESIAN_POINT('Origin',(0.,0.,0.));
#2407=CARTESIAN_POINT('',(-127.275292181947,-35.,0.));
#2408=CARTESIAN_POINT('Origin',(0.,0.,0.));
#2409=CARTESIAN_POINT('',(-127.275292181947,-35.,5.));
#2410=CARTESIAN_POINT('Origin',(0.,0.,5.));
#2411=CARTESIAN_POINT('',(-127.275292181947,-35.,0.));
#2412=CARTESIAN_POINT('Origin',(-94.5,-35.,0.));
#2413=CARTESIAN_POINT('',(-94.5,-35.,0.));
#2414=CARTESIAN_POINT('',(-94.5,-35.,0.));
#2415=CARTESIAN_POINT('',(-94.5,-35.,5.));
#2416=CARTESIAN_POINT('',(-94.5,-35.,5.));
#2417=CARTESIAN_POINT('',(-94.5,-35.,0.));
#2418=CARTESIAN_POINT('Origin',(-94.5,-10.,0.));
#2419=CARTESIAN_POINT('',(-94.5,-10.,0.));
#2420=CARTESIAN_POINT('',(-94.5,-35.,0.));
#2421=CARTESIAN_POINT('',(-94.5,-10.,5.));
#2422=CARTESIAN_POINT('',(-94.5,-35.,5.));
#2423=CARTESIAN_POINT('',(-94.5,-10.,0.));
#2424=CARTESIAN_POINT('Origin',(-84.5,-10.,0.));
#2425=CARTESIAN_POINT('',(-84.5,-10.,0.));
#2426=CARTESIAN_POINT('',(-84.5,-10.,0.));
#2427=CARTESIAN_POINT('',(-84.5,-10.,5.));
#2428=CARTESIAN_POINT('',(-84.5,-10.,5.));
#2429=CARTESIAN_POINT('',(-84.5,-10.,0.));
#2430=CARTESIAN_POINT('Origin',(-84.5,-25.,0.));
#2431=CARTESIAN_POINT('',(-84.5,-25.,0.));
#2432=CARTESIAN_POINT('',(-84.5,-10.,0.));
#2433=CARTESIAN_POINT('',(-84.5,-25.,5.));
#2434=CARTESIAN_POINT('',(-84.5,-10.,5.));
#2435=CARTESIAN_POINT('',(-84.5,-25.,0.));
#2436=CARTESIAN_POINT('Origin',(-63.5,-25.,0.));
#2437=CARTESIAN_POINT('',(-63.5,-25.,0.));
#2438=CARTESIAN_POINT('',(-84.5,-25.,0.));
#2439=CARTESIAN_POINT('',(-63.5,-25.,5.));
#2440=CARTESIAN_POINT('',(-84.5,-25.,5.));
#2441=CARTESIAN_POINT('',(-63.5,-25.,0.));
#2442=CARTESIAN_POINT('Origin',(-63.5,-21.3,0.));
#2443=CARTESIAN_POINT('',(-63.5,-21.3,0.));
#2444=CARTESIAN_POINT('',(-63.5,-25.,0.));
#2445=CARTESIAN_POINT('',(-63.5,-21.3,5.));
#2446=CARTESIAN_POINT('',(-63.5,-25.,5.));
#2447=CARTESIAN_POINT('',(-63.5,-21.3,0.));
#2448=CARTESIAN_POINT('Origin',(-29.5,-21.3,0.));
#2449=CARTESIAN_POINT('',(-29.5,-21.3,0.));
#2450=CARTESIAN_POINT('',(-63.5,-21.3,0.));
#2451=CARTESIAN_POINT('',(-29.5,-21.3,5.));
#2452=CARTESIAN_POINT('',(-63.5,-21.3,5.));
#2453=CARTESIAN_POINT('',(-29.5,-21.3,0.));
#2454=CARTESIAN_POINT('Origin',(-29.5,21.3,0.));
#2455=CARTESIAN_POINT('',(-29.5,21.3,0.));
#2456=CARTESIAN_POINT('',(-29.5,21.3,0.));
#2457=CARTESIAN_POINT('',(-29.5,21.3,5.));
#2458=CARTESIAN_POINT('',(-29.5,21.3,5.));
#2459=CARTESIAN_POINT('',(-29.5,21.3,0.));
#2460=CARTESIAN_POINT('Origin',(-63.5,21.3,0.));
#2461=CARTESIAN_POINT('',(-63.5,21.3,0.));
#2462=CARTESIAN_POINT('',(-63.5,21.3,0.));
#2463=CARTESIAN_POINT('',(-63.5,21.3,5.));
#2464=CARTESIAN_POINT('',(-63.5,21.3,5.));
#2465=CARTESIAN_POINT('',(-63.5,21.3,0.));
#2466=CARTESIAN_POINT('Origin',(-63.5,25.,0.));
#2467=CARTESIAN_POINT('',(-63.5,25.,0.));
#2468=CARTESIAN_POINT('',(-63.5,21.3,0.));
#2469=CARTESIAN_POINT('',(-63.5,25.,5.));
#2470=CARTESIAN_POINT('',(-63.5,21.3,5.));
#2471=CARTESIAN_POINT('',(-63.5,25.,0.));
#2472=CARTESIAN_POINT('Origin',(-84.5,25.,0.));
#2473=CARTESIAN_POINT('',(-84.5,25.,0.));
#2474=CARTESIAN_POINT('',(-63.5,25.,0.));
#2475=CARTESIAN_POINT('',(-84.5,25.,5.));
#2476=CARTESIAN_POINT('',(-63.5,25.,5.));
#2477=CARTESIAN_POINT('',(-84.5,25.,0.));
#2478=CARTESIAN_POINT('Origin',(-84.5,10.,0.));
#2479=CARTESIAN_POINT('',(-84.5,10.,0.));
#2480=CARTESIAN_POINT('',(-84.5,25.,0.));
#2481=CARTESIAN_POINT('',(-84.5,10.,5.));
#2482=CARTESIAN_POINT('',(-84.5,25.,5.));
#2483=CARTESIAN_POINT('',(-84.5,10.,0.));
#2484=CARTESIAN_POINT('Origin',(-94.5,10.,0.));
#2485=CARTESIAN_POINT('',(-94.5,10.,0.));
#2486=CARTESIAN_POINT('',(-84.5,10.,0.));
#2487=CARTESIAN_POINT('',(-94.5,10.,5.));
#2488=CARTESIAN_POINT('',(-84.5,10.,5.));
#2489=CARTESIAN_POINT('',(-94.5,10.,0.));
#2490=CARTESIAN_POINT('Origin',(-94.5,35.,0.));
#2491=CARTESIAN_POINT('',(-94.5,35.,0.));
#2492=CARTESIAN_POINT('',(-94.5,10.,0.));
#2493=CARTESIAN_POINT('',(-94.5,35.,5.));
#2494=CARTESIAN_POINT('',(-94.5,10.,5.));
#2495=CARTESIAN_POINT('',(-94.5,35.,0.));
#2496=CARTESIAN_POINT('Origin',(-127.275292181947,35.,0.));
#2497=CARTESIAN_POINT('',(-127.275292181947,35.,0.));
#2498=CARTESIAN_POINT('',(-94.5,35.,0.));
#2499=CARTESIAN_POINT('',(-127.275292181947,35.,5.));
#2500=CARTESIAN_POINT('',(-94.5,35.,5.));
#2501=CARTESIAN_POINT('',(-127.275292181947,35.,0.));
#2502=CARTESIAN_POINT('Origin',(0.,0.,0.));
#2503=CARTESIAN_POINT('',(127.275292181947,35.,0.));
#2504=CARTESIAN_POINT('Origin',(0.,0.,0.));
#2505=CARTESIAN_POINT('',(127.275292181947,35.,5.));
#2506=CARTESIAN_POINT('Origin',(0.,0.,5.));
#2507=CARTESIAN_POINT('',(127.275292181947,35.,0.));
#2508=CARTESIAN_POINT('Origin',(94.5,35.,0.));
#2509=CARTESIAN_POINT('',(94.5,35.,0.));
#2510=CARTESIAN_POINT('',(94.5,35.,0.));
#2511=CARTESIAN_POINT('',(94.5,35.,5.));
#2512=CARTESIAN_POINT('',(94.5,35.,5.));
#2513=CARTESIAN_POINT('',(94.5,35.,0.));
#2514=CARTESIAN_POINT('Origin',(94.5,10.,0.));
#2515=CARTESIAN_POINT('',(94.5,10.,0.));
#2516=CARTESIAN_POINT('',(94.5,10.,0.));
#2517=CARTESIAN_POINT('',(94.5,10.,5.));
#2518=CARTESIAN_POINT('',(94.5,10.,5.));
#2519=CARTESIAN_POINT('',(94.5,10.,0.));
#2520=CARTESIAN_POINT('Origin',(84.5,10.,0.));
#2521=CARTESIAN_POINT('',(84.5,10.,0.));
#2522=CARTESIAN_POINT('',(84.5,10.,0.));
#2523=CARTESIAN_POINT('',(84.5,10.,5.));
#2524=CARTESIAN_POINT('',(84.5,10.,5.));
#2525=CARTESIAN_POINT('',(84.5,10.,0.));
#2526=CARTESIAN_POINT('Origin',(84.5,25.,0.));
#2527=CARTESIAN_POINT('',(84.5,25.,0.));
#2528=CARTESIAN_POINT('',(84.5,25.,0.));
#2529=CARTESIAN_POINT('',(84.5,25.,5.));
#2530=CARTESIAN_POINT('',(84.5,25.,5.));
#2531=CARTESIAN_POINT('',(84.5,25.,0.));
#2532=CARTESIAN_POINT('Origin',(63.5,25.,0.));
#2533=CARTESIAN_POINT('',(63.5,25.,0.));
#2534=CARTESIAN_POINT('',(63.5,25.,0.));
#2535=CARTESIAN_POINT('',(63.5,25.,5.));
#2536=CARTESIAN_POINT('',(63.5,25.,5.));
#2537=CARTESIAN_POINT('',(63.5,25.,0.));
#2538=CARTESIAN_POINT('Origin',(63.5,21.3,0.));
#2539=CARTESIAN_POINT('',(63.5,21.3,0.));
#2540=CARTESIAN_POINT('',(63.5,21.3,0.));
#2541=CARTESIAN_POINT('',(63.5,21.3,5.));
#2542=CARTESIAN_POINT('',(63.5,21.3,5.));
#2543=CARTESIAN_POINT('',(63.5,21.3,0.));
#2544=CARTESIAN_POINT('Origin',(29.5,21.3,0.));
#2545=CARTESIAN_POINT('',(63.5,21.3,0.));
#2546=CARTESIAN_POINT('',(63.5,21.3,5.));
#2547=CARTESIAN_POINT('Origin',(0.,0.,5.));
#2548=CARTESIAN_POINT('Origin',(0.,0.,0.));
#2549=UNCERTAINTY_MEASURE_WITH_UNIT(LENGTH_MEASURE(0.01),#2553,
'DISTANCE_ACCURACY_VALUE',
'Maximum model space distance between geometric entities at asserted c
onnectivities');
#2550=UNCERTAINTY_MEASURE_WITH_UNIT(LENGTH_MEASURE(0.01),#2553,
'DISTANCE_ACCURACY_VALUE',
'Maximum model space distance between geometric entities at asserted c
onnectivities');
#2551=(
GEOMETRIC_REPRESENTATION_CONTEXT(3)
GLOBAL_UNCERTAINTY_ASSIGNED_CONTEXT((#2549))
GLOBAL_UNIT_ASSIGNED_CONTEXT((#2553,#2555,#2556))
REPRESENTATION_CONTEXT('','3D')
);
#2552=(
GEOMETRIC_REPRESENTATION_CONTEXT(3)
GLOBAL_UNCERTAINTY_ASSIGNED_CONTEXT((#2550))
GLOBAL_UNIT_ASSIGNED_CONTEXT((#2553,#2555,#2556))
REPRESENTATION_CONTEXT('','3D')
);
#2553=(
LENGTH_UNIT()
NAMED_UNIT(*)
SI_UNIT(.MILLI.,.METRE.)
);
#2554=(
LENGTH_UNIT()
NAMED_UNIT(*)
SI_UNIT($,.METRE.)
);
#2555=(
NAMED_UNIT(*)
PLANE_ANGLE_UNIT()
SI_UNIT($,.RADIAN.)
);
#2556=(
NAMED_UNIT(*)
SI_UNIT($,.STERADIAN.)
SOLID_ANGLE_UNIT()
);
#2557=SHAPE_DEFINITION_REPRESENTATION(#2558,#2559);
#2558=PRODUCT_DEFINITION_SHAPE('',$,#2561);
#2559=SHAPE_REPRESENTATION('',(#1585),#2551);
#2560=PRODUCT_DEFINITION_CONTEXT('part definition',#2565,'design');
#2561=PRODUCT_DEFINITION('m\X2\1EB7\X0\t \X2\01111EBF\X0\',
'm\X2\1EB7\X0\t \X2\01111EBF\X0\ v9',#2562,#2560);
#2562=PRODUCT_DEFINITION_FORMATION('',$,#2567);
#2563=PRODUCT_RELATED_PRODUCT_CATEGORY('m\X2\1EB7\X0\t \X2\01111EBF\X0\ 
v9','m\X2\1EB7\X0\t \X2\01111EBF\X0\ v9',(#2567));
#2564=APPLICATION_PROTOCOL_DEFINITION('international standard',
'automotive_design',2009,#2565);
#2565=APPLICATION_CONTEXT(
'Core Data for Automotive Mechanical Design Process');
#2566=PRODUCT_CONTEXT('part definition',#2565,'mechanical');
#2567=PRODUCT('m\X2\1EB7\X0\t \X2\01111EBF\X0\','m\X2\1EB7\X0\t \X2\01111EBF\X0\ 
v9',$,(#2566));
#2568=PRESENTATION_STYLE_ASSIGNMENT((#2570));
#2569=PRESENTATION_STYLE_ASSIGNMENT((#2571));
#2570=SURFACE_STYLE_USAGE(.BOTH.,#2572);
#2571=SURFACE_STYLE_USAGE(.BOTH.,#2573);
#2572=SURFACE_SIDE_STYLE('',(#2574));
#2573=SURFACE_SIDE_STYLE('',(#2575));
#2574=SURFACE_STYLE_FILL_AREA(#2576);
#2575=SURFACE_STYLE_FILL_AREA(#2577);
#2576=FILL_AREA_STYLE('Steel - Satin',(#2578));
#2577=FILL_AREA_STYLE('Oak - Semigloss',(#2579));
#2578=FILL_AREA_STYLE_COLOUR('Steel - Satin',#2580);
#2579=FILL_AREA_STYLE_COLOUR('Oak - Semigloss',#2581);
#2580=COLOUR_RGB('Steel - Satin',0.627450980392157,0.627450980392157,0.627450980392157);
#2581=COLOUR_RGB('Oak - Semigloss',0.,0.,0.);
ENDSEC;
END-ISO-10303-21;
