ISO-10303-21;
HEADER;
FILE_DESCRIPTION (( 'STEP AP214' ),
    '1' );
FILE_NAME ('casing lid.STEP',
    '2026-03-05T04:54:29',
    ( '' ),
    ( '' ),
    'SwSTEP 2.0',
    'SolidWorks 2025',
    '' );
FILE_SCHEMA (( 'AUTOMOTIVE_DESIGN' ));
ENDSEC;

DATA;
#1 = CARTESIAN_POINT ( 'NONE',  ( 34.00000000000000000, -46.00000000000000000, 1.000000000000000000 ) ) ;
#2 = AXIS2_PLACEMENT_3D ( 'NONE', #500, #575, #371 ) ;
#3 = EDGE_CURVE ( 'NONE', #752, #190, #397, .T. ) ;
#4 = LINE ( 'NONE', #279, #855 ) ;
#5 = EDGE_LOOP ( 'NONE', ( #103, #507, #878, #132 ) ) ;
#6 = DIRECTION ( 'NONE',  ( 0.000000000000000000, -1.000000000000000000, 0.000000000000000000 ) ) ;
#7 = ORIENTED_EDGE ( 'NONE', *, *, #444, .T. ) ;
#8 = CARTESIAN_POINT ( 'NONE',  ( -31.00000000000000000, 50.00000000000000000, 3.000000000000000000 ) ) ;
#9 = CARTESIAN_POINT ( 'NONE',  ( 33.00000000000000000, -46.00000000000000000, 2.000000000000000000 ) ) ;
#10 = EDGE_CURVE ( 'NONE', #820, #693, #581, .T. ) ;
#11 = ORIENTED_EDGE ( 'NONE', *, *, #367, .F. ) ;
#12 = AXIS2_PLACEMENT_3D ( 'NONE', #43, #880, #460 ) ;
#13 = CARTESIAN_POINT ( 'NONE',  ( 34.00000000000000000, 46.00000000000000000, 2.000000000000000000 ) ) ;
#14 = CARTESIAN_POINT ( 'NONE',  ( 31.00000000000000355, -46.00000000000000000, 5.000000000000000000 ) ) ;
#15 = EDGE_CURVE ( 'NONE', #674, #605, #531, .T. ) ;
#16 = FACE_OUTER_BOUND ( 'NONE', #55, .T. ) ;
#17 = ORIENTED_EDGE ( 'NONE', *, *, #550, .T. ) ;
#18 = DIRECTION ( 'NONE',  ( -0.000000000000000000, -0.000000000000000000, 1.000000000000000000 ) ) ;
#19 = DIRECTION ( 'NONE',  ( 1.000000000000000000, -0.000000000000000000, -0.000000000000000000 ) ) ;
#20 = AXIS2_PLACEMENT_3D ( 'NONE', #218, #151, #427 ) ;
#21 = EDGE_LOOP ( 'NONE', ( #184, #324, #601, #405 ) ) ;
#22 = MECHANICAL_DESIGN_GEOMETRIC_PRESENTATION_REPRESENTATION (  '', ( #57 ), #530 ) ;
#23 = FACE_OUTER_BOUND ( 'NONE', #129, .T. ) ;
#24 = CARTESIAN_POINT ( 'NONE',  ( 34.00000000000000000, -46.00000000000000000, 2.000000000000000000 ) ) ;
#25 = ORIENTED_EDGE ( 'NONE', *, *, #429, .T. ) ;
#26 = CIRCLE ( 'NONE', #376, 4.000000000000000000 ) ;
#27 = CARTESIAN_POINT ( 'NONE',  ( 35.00000000000000000, -46.00000000000000000, 3.000000000000000000 ) ) ;
#28 = DIRECTION ( 'NONE',  ( -1.000000000000000000, 0.000000000000000000, 0.000000000000000000 ) ) ;
#29 = EDGE_CURVE ( 'NONE', #727, #68, #807, .T. ) ;
#30 = ORIENTED_EDGE ( 'NONE', *, *, #3, .T. ) ;
#31 = AXIS2_PLACEMENT_3D ( 'NONE', #319, #181, #805 ) ;
#32 = DIRECTION ( 'NONE',  ( -1.000000000000000000, 0.000000000000000000, 0.000000000000000000 ) ) ;
#33 = DIRECTION ( 'NONE',  ( -1.000000000000000000, 0.000000000000000000, 0.000000000000000000 ) ) ;
#34 = PRESENTATION_STYLE_ASSIGNMENT (( #609 ) ) ;
#35 = ORIENTED_EDGE ( 'NONE', *, *, #558, .T. ) ;
#36 = ORIENTED_EDGE ( 'NONE', *, *, #228, .F. ) ;
#37 = DIRECTION ( 'NONE',  ( -0.000000000000000000, 1.000000000000000000, -0.000000000000000000 ) ) ;
#38 = CARTESIAN_POINT ( 'NONE',  ( -34.00000000000000000, 46.00000000000000000, 1.000000000000000000 ) ) ;
#39 = CARTESIAN_POINT ( 'NONE',  ( 31.00000000000000355, 46.00000000000000000, 5.000000000000000000 ) ) ;
#40 = EDGE_LOOP ( 'NONE', ( #594, #747, #216, #411, #276, #600, #894, #137 ) ) ;
#41 = ADVANCED_FACE ( 'NONE', ( #187 ), #461, .F. ) ;
#42 = VERTEX_POINT ( 'NONE', #118 ) ;
#43 = CARTESIAN_POINT ( 'NONE',  ( -35.00000000000000000, -50.00000000000000000, 5.000000000000000000 ) ) ;
#44 = CARTESIAN_POINT ( 'NONE',  ( -33.00000000000000000, 46.00000000000000000, 2.000000000000000000 ) ) ;
#45 = LINE ( 'NONE', #534, #441 ) ;
#46 = ADVANCED_FACE ( 'NONE', ( #464 ), #684, .F. ) ;
#47 = VERTEX_POINT ( 'NONE', #71 ) ;
#48 = VECTOR ( 'NONE', #709, 1000.000000000000000 ) ;
#49 = VERTEX_POINT ( 'NONE', #687 ) ;
#50 = VECTOR ( 'NONE', #583, 1000.000000000000000 ) ;
#51 = EDGE_CURVE ( 'NONE', #354, #423, #675, .T. ) ;
#52 = DIRECTION ( 'NONE',  ( -1.000000000000000000, 0.000000000000000000, 0.000000000000000000 ) ) ;
#53 = PLANE ( 'NONE',  #372 ) ;
#54 = EDGE_LOOP ( 'NONE', ( #661, #448, #825, #458 ) ) ;
#55 = EDGE_LOOP ( 'NONE', ( #590, #542, #178, #717 ) ) ;
#56 = LINE ( 'NONE', #822, #264 ) ;
#57 = STYLED_ITEM ( 'NONE', ( #34 ), #573 ) ;
#58 = FILL_AREA_STYLE_COLOUR ( '', #282 ) ;
#59 = CARTESIAN_POINT ( 'NONE',  ( -33.00000000000000000, -46.00000000000000000, -2.449293598294700991E-16 ) ) ;
#60 = ORIENTED_EDGE ( 'NONE', *, *, #552, .T. ) ;
#61 = EDGE_CURVE ( 'NONE', #842, #433, #131, .T. ) ;
#62 = DIRECTION ( 'NONE',  ( 1.000000000000000000, 0.000000000000000000, 0.000000000000000000 ) ) ;
#63 = VECTOR ( 'NONE', #379, 1000.000000000000000 ) ;
#64 = CARTESIAN_POINT ( 'NONE',  ( -31.00000000000000000, -50.00000000000000000, 5.000000000000000000 ) ) ;
#65 = ORIENTED_EDGE ( 'NONE', *, *, #793, .T. ) ;
#66 =( NAMED_UNIT ( * ) PLANE_ANGLE_UNIT ( ) SI_UNIT ( $, .RADIAN. ) );
#67 = CARTESIAN_POINT ( 'NONE',  ( 35.00000000000000000, -46.00000000000000000, 3.000000000000000000 ) ) ;
#68 = VERTEX_POINT ( 'NONE', #610 ) ;
#69 = FACE_OUTER_BOUND ( 'NONE', #510, .T. ) ;
#70 = LINE ( 'NONE', #856, #762 ) ;
#71 = CARTESIAN_POINT ( 'NONE',  ( -33.00000000000000000, 46.00000000000000000, 2.000000000000000000 ) ) ;
#72 = VERTEX_POINT ( 'NONE', #467 ) ;
#73 = ADVANCED_FACE ( 'NONE', ( #85 ), #696, .F. ) ;
#74 = DIRECTION ( 'NONE',  ( -1.000000000000000000, 0.000000000000000000, -0.000000000000000000 ) ) ;
#75 = CARTESIAN_POINT ( 'NONE',  ( 33.00000000000000000, 46.00000000000000000, 0.9999999999999997780 ) ) ;
#76 = VECTOR ( 'NONE', #445, 1000.000000000000000 ) ;
#77 = ORIENTED_EDGE ( 'NONE', *, *, #326, .F. ) ;
#78 = VECTOR ( 'NONE', #545, 1000.000000000000000 ) ;
#79 = CARTESIAN_POINT ( 'NONE',  ( 11.30000000000000426, -20.94999999999999929, -0.000000000000000000 ) ) ;
#80 = FACE_OUTER_BOUND ( 'NONE', #54, .T. ) ;
#81 = EDGE_LOOP ( 'NONE', ( #387, #89, #567, #208 ) ) ;
#82 = CARTESIAN_POINT ( 'NONE',  ( 11.30000000000000426, 6.049999999999999822, 5.000000000000000000 ) ) ;
#83 = VERTEX_POINT ( 'NONE', #64 ) ;
#84 = EDGE_CURVE ( 'NONE', #606, #866, #495, .T. ) ;
#85 = FACE_OUTER_BOUND ( 'NONE', #328, .T. ) ;
#86 = CARTESIAN_POINT ( 'NONE',  ( 33.00000000000000000, -46.00000000000000000, 0.9999999999999997780 ) ) ;
#87 = CARTESIAN_POINT ( 'NONE',  ( 35.00000000000000000, -46.00000000000000000, 3.000000000000000000 ) ) ;
#88 = EDGE_CURVE ( 'NONE', #72, #877, #629, .T. ) ;
#89 = ORIENTED_EDGE ( 'NONE', *, *, #608, .F. ) ;
#90 = CARTESIAN_POINT ( 'NONE',  ( -8.699999999999999289, 6.049999999999999822, 5.000000000000000000 ) ) ;
#91 = DIRECTION ( 'NONE',  ( 0.000000000000000000, 0.000000000000000000, -1.000000000000000000 ) ) ;
#92 = VECTOR ( 'NONE', #222, 1000.000000000000000 ) ;
#93 = ORIENTED_EDGE ( 'NONE', *, *, #883, .F. ) ;
#94 = CARTESIAN_POINT ( 'NONE',  ( -34.00000000000000000, -46.00000000000000000, 1.000000000000000000 ) ) ;
#95 = CARTESIAN_POINT ( 'NONE',  ( -35.00000000000000000, -46.00000000000000000, 3.000000000000000000 ) ) ;
#96 = EDGE_LOOP ( 'NONE', ( #848, #303, #11, #283 ) ) ;
#97 = VECTOR ( 'NONE', #513, 1000.000000000000000 ) ;
#98 = CARTESIAN_POINT ( 'NONE',  ( -33.00000000000000000, 46.00000000000000000, 1.000000000000000000 ) ) ;
#99 = DIRECTION ( 'NONE',  ( -1.000000000000000000, 0.000000000000000000, 0.000000000000000000 ) ) ;
#100 = ORIENTED_EDGE ( 'NONE', *, *, #293, .T. ) ;
#101 = VECTOR ( 'NONE', #300, 1000.000000000000000 ) ;
#102 = PLANE ( 'NONE',  #302 ) ;
#103 = ORIENTED_EDGE ( 'NONE', *, *, #608, .T. ) ;
#104 = ORIENTED_EDGE ( 'NONE', *, *, #392, .T. ) ;
#105 = VECTOR ( 'NONE', #665, 1000.000000000000000 ) ;
#106 = CARTESIAN_POINT ( 'NONE',  ( -34.00000000000000000, -46.00000000000000000, 2.000000000000000000 ) ) ;
#107 = LINE ( 'NONE', #327, #209 ) ;
#108 = EDGE_CURVE ( 'NONE', #299, #337, #473, .T. ) ;
#109 = ORIENTED_EDGE ( 'NONE', *, *, #757, .F. ) ;
#110 = VERTEX_POINT ( 'NONE', #624 ) ;
#111 = EDGE_CURVE ( 'NONE', #83, #516, #207, .T. ) ;
#112 = FACE_OUTER_BOUND ( 'NONE', #382, .T. ) ;
#113 = CARTESIAN_POINT ( 'NONE',  ( 34.00000000000000000, 46.00000000000000000, 1.000000000000000000 ) ) ;
#114 = DIRECTION ( 'NONE',  ( -0.000000000000000000, 1.000000000000000000, -0.000000000000000000 ) ) ;
#115 = ORIENTED_EDGE ( 'NONE', *, *, #84, .F. ) ;
#116 = ADVANCED_FACE ( 'NONE', ( #275 ), #770, .F. ) ;
#117 = VERTEX_POINT ( 'NONE', #346 ) ;
#118 = CARTESIAN_POINT ( 'NONE',  ( -34.00000000000000000, 46.00000000000000000, 2.000000000000000000 ) ) ;
#119 = VECTOR ( 'NONE', #841, 1000.000000000000000 ) ;
#120 = VERTEX_POINT ( 'NONE', #336 ) ;
#121 = AXIS2_PLACEMENT_3D ( 'NONE', #496, #284, #868 ) ;
#122 = DIRECTION ( 'NONE',  ( -0.000000000000000000, -0.000000000000000000, 1.000000000000000000 ) ) ;
#123 = DIRECTION ( 'NONE',  ( -0.000000000000000000, -0.000000000000000000, -1.000000000000000000 ) ) ;
#124 = DIRECTION ( 'NONE',  ( -0.000000000000000000, 1.000000000000000000, -0.000000000000000000 ) ) ;
#125 = VERTEX_POINT ( 'NONE', #755 ) ;
#126 = PRODUCT_DEFINITION_SHAPE ( 'NONE', 'NONE',  #212 ) ;
#127 = DIRECTION ( 'NONE',  ( 0.000000000000000000, -1.000000000000000000, 0.000000000000000000 ) ) ;
#128 = FACE_BOUND ( 'NONE', #81, .T. ) ;
#129 = EDGE_LOOP ( 'NONE', ( #580, #643, #425, #697, #263, #311, #179, #829, #419, #347 ) ) ;
#130 = LINE ( 'NONE', #847, #364 ) ;
#131 = LINE ( 'NONE', #90, #48 ) ;
#132 = ORIENTED_EDGE ( 'NONE', *, *, #61, .T. ) ;
#133 = CARTESIAN_POINT ( 'NONE',  ( -33.00000000000000000, -46.00000000000000000, 2.000000000000000000 ) ) ;
#134 = EDGE_CURVE ( 'NONE', #291, #125, #200, .T. ) ;
#135 = CARTESIAN_POINT ( 'NONE',  ( 31.00000000000000355, 46.00000000000000000, 3.000000000000000000 ) ) ;
#136 = EDGE_CURVE ( 'NONE', #152, #866, #261, .T. ) ;
#137 = ORIENTED_EDGE ( 'NONE', *, *, #189, .T. ) ;
#138 = ADVANCED_FACE ( 'NONE', ( #142 ), #541, .F. ) ;
#139 = DIRECTION ( 'NONE',  ( -1.000000000000000000, 0.000000000000000000, -0.000000000000000000 ) ) ;
#140 = VECTOR ( 'NONE', #144, 1000.000000000000000 ) ;
#141 = DIRECTION ( 'NONE',  ( -1.000000000000000000, 0.000000000000000000, 0.000000000000000000 ) ) ;
#142 = FACE_OUTER_BOUND ( 'NONE', #733, .T. ) ;
#143 = ORIENTED_EDGE ( 'NONE', *, *, #565, .T. ) ;
#144 = DIRECTION ( 'NONE',  ( 1.000000000000000000, 0.000000000000000000, 0.000000000000000000 ) ) ;
#145 = CARTESIAN_POINT ( 'NONE',  ( -33.00000000000000000, 46.00000000000000000, 3.000000000000000000 ) ) ;
#146 = ORIENTED_EDGE ( 'NONE', *, *, #482, .F. ) ;
#147 = CIRCLE ( 'NONE', #660, 4.000000000000003553 ) ;
#148 = ADVANCED_FACE ( 'NONE', ( #128, #288 ), #639, .T. ) ;
#149 = EDGE_LOOP ( 'NONE', ( #143, #36, #161, #753 ) ) ;
#150 = CARTESIAN_POINT ( 'NONE',  ( -35.00000000000000000, -46.00000000000000000, 5.000000000000000000 ) ) ;
#151 = DIRECTION ( 'NONE',  ( 0.000000000000000000, 1.000000000000000000, -0.000000000000000000 ) ) ;
#152 = VERTEX_POINT ( 'NONE', #13 ) ;
#153 = CARTESIAN_POINT ( 'NONE',  ( 34.00000000000000000, -46.00000000000000000, 1.000000000000000000 ) ) ;
#154 = FACE_OUTER_BOUND ( 'NONE', #96, .T. ) ;
#155 = DIRECTION ( 'NONE',  ( -0.000000000000000000, 1.000000000000000000, -0.000000000000000000 ) ) ;
#156 = ORIENTED_EDGE ( 'NONE', *, *, #552, .F. ) ;
#157 = DIRECTION ( 'NONE',  ( 0.000000000000000000, 0.000000000000000000, -1.000000000000000000 ) ) ;
#158 = LINE ( 'NONE', #801, #396 ) ;
#159 = AXIS2_PLACEMENT_3D ( 'NONE', #59, #332, #869 ) ;
#160 = AXIS2_PLACEMENT_3D ( 'NONE', #551, #352, #204 ) ;
#161 = ORIENTED_EDGE ( 'NONE', *, *, #694, .F. ) ;
#162 = ADVANCED_FACE ( 'NONE', ( #266 ), #470, .F. ) ;
#163 = CARTESIAN_POINT ( 'NONE',  ( -33.00000000000000000, -46.00000000000000000, 3.000000000000000000 ) ) ;
#164 = DIRECTION ( 'NONE',  ( -1.000000000000000000, 0.000000000000000000, -0.000000000000000000 ) ) ;
#165 = APPLICATION_CONTEXT ( 'automotive_design' ) ;
#166 = ORIENTED_EDGE ( 'NONE', *, *, #527, .T. ) ;
#167 = LINE ( 'NONE', #508, #563 ) ;
#168 = EDGE_LOOP ( 'NONE', ( #65, #779, #104, #813, #349, #557, #480, #572 ) ) ;
#169 = EDGE_CURVE ( 'NONE', #693, #49, #410, .T. ) ;
#170 = LINE ( 'NONE', #106, #536 ) ;
#171 = LINE ( 'NONE', #659, #897 ) ;
#172 = CARTESIAN_POINT ( 'NONE',  ( -31.00000000000000000, -50.00000000000000000, 0.000000000000000000 ) ) ;
#173 = VERTEX_POINT ( 'NONE', #67 ) ;
#174 = EDGE_CURVE ( 'NONE', #125, #47, #582, .T. ) ;
#175 = VERTEX_POINT ( 'NONE', #436 ) ;
#176 = CARTESIAN_POINT ( 'NONE',  ( 11.30000000000000426, 6.049999999999999822, 0.000000000000000000 ) ) ;
#177 = SURFACE_SIDE_STYLE ('',( #520 ) ) ;
#178 = ORIENTED_EDGE ( 'NONE', *, *, #459, .T. ) ;
#179 = ORIENTED_EDGE ( 'NONE', *, *, #818, .F. ) ;
#180 = CARTESIAN_POINT ( 'NONE',  ( -31.00000000000000000, -46.00000000000000000, 5.000000000000000000 ) ) ;
#181 = DIRECTION ( 'NONE',  ( 0.000000000000000000, 1.000000000000000000, 0.000000000000000000 ) ) ;
#182 = CARTESIAN_POINT ( 'NONE',  ( 35.00000000000000000, -46.00000000000000000, 5.000000000000000000 ) ) ;
#183 = ORIENTED_EDGE ( 'NONE', *, *, #493, .T. ) ;
#184 = ORIENTED_EDGE ( 'NONE', *, *, #15, .T. ) ;
#185 = CARTESIAN_POINT ( 'NONE',  ( -35.00000000000000000, -46.00000000000000000, 5.000000000000000000 ) ) ;
#186 = DIRECTION ( 'NONE',  ( -0.000000000000000000, 0.000000000000000000, -1.000000000000000000 ) ) ;
#187 = FACE_OUTER_BOUND ( 'NONE', #312, .T. ) ;
#188 = VECTOR ( 'NONE', #404, 1000.000000000000000 ) ;
#189 = EDGE_CURVE ( 'NONE', #443, #173, #504, .T. ) ;
#190 = VERTEX_POINT ( 'NONE', #650 ) ;
#191 = LINE ( 'NONE', #672, #97 ) ;
#192 = DIRECTION ( 'NONE',  ( 1.000000000000000000, 0.000000000000000000, 2.168404344971006896E-16 ) ) ;
#193 = ORIENTED_EDGE ( 'NONE', *, *, #698, .F. ) ;
#194 = APPLICATION_CONTEXT ( 'automotive_design' ) ;
#195 = FACE_OUTER_BOUND ( 'NONE', #168, .T. ) ;
#196 = DIRECTION ( 'NONE',  ( 1.000000000000000000, 0.000000000000000000, -0.000000000000000000 ) ) ;
#197 = ORIENTED_EDGE ( 'NONE', *, *, #527, .F. ) ;
#198 = ADVANCED_FACE ( 'NONE', ( #225 ), #577, .T. ) ;
#199 = DIRECTION ( 'NONE',  ( 1.000000000000000000, -0.000000000000000000, -0.000000000000000000 ) ) ;
#200 = LINE ( 'NONE', #614, #78 ) ;
#201 = ORIENTED_EDGE ( 'NONE', *, *, #378, .T. ) ;
#202 = EDGE_CURVE ( 'NONE', #49, #239, #26, .T. ) ;
#203 = VECTOR ( 'NONE', #578, 1000.000000000000000 ) ;
#204 = DIRECTION ( 'NONE',  ( 0.000000000000000000, -0.000000000000000000, 1.000000000000000000 ) ) ;
#205 = EDGE_CURVE ( 'NONE', #68, #152, #167, .T. ) ;
#206 = PLANE ( 'NONE',  #20 ) ;
#207 = LINE ( 'NONE', #478, #350 ) ;
#208 = ORIENTED_EDGE ( 'NONE', *, *, #15, .F. ) ;
#209 = VECTOR ( 'NONE', #114, 1000.000000000000000 ) ;
#210 = LINE ( 'NONE', #774, #454 ) ;
#211 = ORIENTED_EDGE ( 'NONE', *, *, #169, .F. ) ;
#212 = PRODUCT_DEFINITION ( 'UNKNOWN', '', #570, #442 ) ;
#213 = LINE ( 'NONE', #699, #481 ) ;
#214 = EDGE_CURVE ( 'NONE', #117, #42, #803, .T. ) ;
#215 = VECTOR ( 'NONE', #37, 1000.000000000000000 ) ;
#216 = ORIENTED_EDGE ( 'NONE', *, *, #786, .T. ) ;
#217 = DIRECTION ( 'NONE',  ( -0.000000000000000000, 0.000000000000000000, -1.000000000000000000 ) ) ;
#218 = CARTESIAN_POINT ( 'NONE',  ( 35.00000000000000000, -50.00000000000000000, 5.000000000000000000 ) ) ;
#219 = VECTOR ( 'NONE', #237, 1000.000000000000000 ) ;
#220 = ORIENTED_EDGE ( 'NONE', *, *, #596, .T. ) ;
#221 = DIRECTION ( 'NONE',  ( -1.000000000000000000, 0.000000000000000000, -0.000000000000000000 ) ) ;
#222 = DIRECTION ( 'NONE',  ( -0.000000000000000000, 1.000000000000000000, -0.000000000000000000 ) ) ;
#223 = DIRECTION ( 'NONE',  ( 1.000000000000000000, -0.000000000000000000, -0.000000000000000000 ) ) ;
#224 = ORIENTED_EDGE ( 'NONE', *, *, #169, .T. ) ;
#225 = FACE_OUTER_BOUND ( 'NONE', #475, .T. ) ;
#226 = DIRECTION ( 'NONE',  ( -0.000000000000000000, -0.000000000000000000, 1.000000000000000000 ) ) ;
#227 = ORIENTED_EDGE ( 'NONE', *, *, #459, .F. ) ;
#228 = EDGE_CURVE ( 'NONE', #899, #674, #728, .T. ) ;
#229 = LINE ( 'NONE', #236, #824 ) ;
#230 = CARTESIAN_POINT ( 'NONE',  ( 33.00000000000000000, -46.00000000000000000, 2.000000000000000000 ) ) ;
#231 = VECTOR ( 'NONE', #440, 1000.000000000000000 ) ;
#232 = ORIENTED_EDGE ( 'NONE', *, *, #205, .F. ) ;
#233 = CARTESIAN_POINT ( 'NONE',  ( 11.30000000000000426, 6.049999999999999822, 5.000000000000000000 ) ) ;
#234 = LINE ( 'NONE', #82, #543 ) ;
#235 = EDGE_LOOP ( 'NONE', ( #232, #368, #253, #884 ) ) ;
#236 = CARTESIAN_POINT ( 'NONE',  ( -33.00000000000000000, 46.00000000000000000, -2.449293598294700991E-16 ) ) ;
#237 = DIRECTION ( 'NONE',  ( -0.000000000000000000, -0.000000000000000000, 1.000000000000000000 ) ) ;
#238 = EDGE_CURVE ( 'NONE', #576, #756, #499, .T. ) ;
#239 = VERTEX_POINT ( 'NONE', #658 ) ;
#240 = ORIENTED_EDGE ( 'NONE', *, *, #214, .T. ) ;
#241 = EDGE_CURVE ( 'NONE', #423, #175, #313, .T. ) ;
#242 = CARTESIAN_POINT ( 'NONE',  ( -31.00000000000000355, 46.00000000000000000, 5.000000000000000000 ) ) ;
#243 = DIRECTION ( 'NONE',  ( -1.000000000000000000, 0.000000000000000000, 0.000000000000000000 ) ) ;
#244 = VECTOR ( 'NONE', #417, 1000.000000000000000 ) ;
#245 = PLANE ( 'NONE',  #845 ) ;
#246 = VECTOR ( 'NONE', #199, 1000.000000000000000 ) ;
#247 = ORIENTED_EDGE ( 'NONE', *, *, #272, .T. ) ;
#248 = EDGE_LOOP ( 'NONE', ( #25, #595, #193, #783 ) ) ;
#249 = CARTESIAN_POINT ( 'NONE',  ( 35.00000000000000000, -46.00000000000000000, 3.000000000000000000 ) ) ;
#250 = PLANE ( 'NONE',  #31 ) ;
#251 = DIRECTION ( 'NONE',  ( 0.000000000000000000, 0.000000000000000000, -1.000000000000000000 ) ) ;
#252 = CARTESIAN_POINT ( 'NONE',  ( -33.00000000000000000, -46.00000000000000000, 1.000000000000000000 ) ) ;
#253 = ORIENTED_EDGE ( 'NONE', *, *, #832, .F. ) ;
#254 = VECTOR ( 'NONE', #768, 1000.000000000000000 ) ;
#255 = SHAPE_DEFINITION_REPRESENTATION ( #126, #715 ) ;
#256 = CARTESIAN_POINT ( 'NONE',  ( 34.00000000000000000, 46.00000000000000000, 1.000000000000000000 ) ) ;
#257 = ORIENTED_EDGE ( 'NONE', *, *, #307, .F. ) ;
#258 = ORIENTED_EDGE ( 'NONE', *, *, #893, .T. ) ;
#259 = AXIS2_PLACEMENT_3D ( 'NONE', #831, #759, #568 ) ;
#260 = CARTESIAN_POINT ( 'NONE',  ( -35.00000000000000000, -46.00000000000000000, 0.000000000000000000 ) ) ;
#261 = LINE ( 'NONE', #905, #702 ) ;
#262 = PRODUCT ( 'casing lid', 'casing lid', '', ( #744 ) ) ;
#263 = ORIENTED_EDGE ( 'NONE', *, *, #444, .F. ) ;
#264 = VECTOR ( 'NONE', #729, 1000.000000000000000 ) ;
#265 = FACE_OUTER_BOUND ( 'NONE', #705, .T. ) ;
#266 = FACE_OUTER_BOUND ( 'NONE', #149, .T. ) ;
#267 = VERTEX_POINT ( 'NONE', #176 ) ;
#268 = EDGE_CURVE ( 'NONE', #415, #110, #579, .T. ) ;
#269 = DIRECTION ( 'NONE',  ( -0.000000000000000000, -0.000000000000000000, -1.000000000000000000 ) ) ;
#270 = ADVANCED_FACE ( 'NONE', ( #23 ), #102, .F. ) ;
#271 = VERTEX_POINT ( 'NONE', #233 ) ;
#272 = EDGE_CURVE ( 'NONE', #120, #190, #229, .T. ) ;
#273 = PLANE ( 'NONE',  #160 ) ;
#274 = CARTESIAN_POINT ( 'NONE',  ( 33.00000000000000000, -46.00000000000000000, 3.000000000000000000 ) ) ;
#275 = FACE_OUTER_BOUND ( 'NONE', #680, .T. ) ;
#276 = ORIENTED_EDGE ( 'NONE', *, *, #776, .T. ) ;
#277 = AXIS2_PLACEMENT_3D ( 'NONE', #14, #91, #28 ) ;
#278 = LINE ( 'NONE', #835, #246 ) ;
#279 = CARTESIAN_POINT ( 'NONE',  ( -33.00000000000000000, -46.00000000000000000, 2.000000000000000000 ) ) ;
#280 = ORIENTED_EDGE ( 'NONE', *, *, #621, .T. ) ;
#281 = CARTESIAN_POINT ( 'NONE',  ( -8.699999999999999289, -20.94999999999999929, 5.000000000000000000 ) ) ;
#282 = COLOUR_RGB ( '',0.7921568627450980005, 0.8196078431372548767, 0.9333333333333333481 ) ;
#283 = ORIENTED_EDGE ( 'NONE', *, *, #29, .T. ) ;
#284 = DIRECTION ( 'NONE',  ( -0.000000000000000000, -0.000000000000000000, 1.000000000000000000 ) ) ;
#285 = LINE ( 'NONE', #782, #815 ) ;
#286 = ORIENTED_EDGE ( 'NONE', *, *, #456, .T. ) ;
#287 = VECTOR ( 'NONE', #670, 1000.000000000000000 ) ;
#288 = FACE_OUTER_BOUND ( 'NONE', #851, .T. ) ;
#289 = DIRECTION ( 'NONE',  ( -0.000000000000000000, -0.000000000000000000, -1.000000000000000000 ) ) ;
#290 = CARTESIAN_POINT ( 'NONE',  ( 33.00000000000000000, -46.00000000000000000, 3.000000000000000000 ) ) ;
#291 = VERTEX_POINT ( 'NONE', #163 ) ;
#292 = EDGE_CURVE ( 'NONE', #110, #49, #790, .T. ) ;
#293 = EDGE_CURVE ( 'NONE', #117, #323, #170, .T. ) ;
#294 = CARTESIAN_POINT ( 'NONE',  ( -34.00000000000000000, -46.00000000000000000, 2.000000000000000000 ) ) ;
#295 = CARTESIAN_POINT ( 'NONE',  ( -35.00000000000000000, 46.00000000000000000, 3.000000000000000000 ) ) ;
#296 = VECTOR ( 'NONE', #904, 1000.000000000000000 ) ;
#297 = VECTOR ( 'NONE', #528, 1000.000000000000000 ) ;
#298 = EDGE_CURVE ( 'NONE', #498, #415, #370, .T. ) ;
#299 = VERTEX_POINT ( 'NONE', #449 ) ;
#300 = DIRECTION ( 'NONE',  ( -0.000000000000000000, 1.000000000000000000, -0.000000000000000000 ) ) ;
#301 = LINE ( 'NONE', #86, #231 ) ;
#302 = AXIS2_PLACEMENT_3D ( 'NONE', #365, #863, #720 ) ;
#303 = ORIENTED_EDGE ( 'NONE', *, *, #369, .F. ) ;
#304 = CARTESIAN_POINT ( 'NONE',  ( 33.00000000000000000, 46.00000000000000000, 3.000000000000000000 ) ) ;
#305 = CARTESIAN_POINT ( 'NONE',  ( -35.00000000000000000, -50.00000000000000000, 5.000000000000000000 ) ) ;
#306 = VERTEX_POINT ( 'NONE', #304 ) ;
#307 = EDGE_CURVE ( 'NONE', #323, #826, #664, .T. ) ;
#308 = CARTESIAN_POINT ( 'NONE',  ( 31.00000000000000355, -50.00000000000000000, 5.000000000000000000 ) ) ;
#309 = DIRECTION ( 'NONE',  ( 0.000000000000000000, -1.000000000000000000, 0.000000000000000000 ) ) ;
#310 = LINE ( 'NONE', #587, #683 ) ;
#311 = ORIENTED_EDGE ( 'NONE', *, *, #761, .F. ) ;
#312 = EDGE_LOOP ( 'NONE', ( #197, #257, #486, #240 ) ) ;
#313 = LINE ( 'NONE', #308, #76 ) ;
#314 = CARTESIAN_POINT ( 'NONE',  ( 35.00000000000000000, 46.00000000000000000, 0.000000000000000000 ) ) ;
#315 = LINE ( 'NONE', #678, #297 ) ;
#316 = ORIENTED_EDGE ( 'NONE', *, *, #338, .T. ) ;
#317 = VERTEX_POINT ( 'NONE', #859 ) ;
#318 = CARTESIAN_POINT ( 'NONE',  ( 33.00000000000000000, 46.00000000000000000, 0.9999999999999997780 ) ) ;
#319 = CARTESIAN_POINT ( 'NONE',  ( 0.000000000000000000, -46.00000000000000000, 0.000000000000000000 ) ) ;
#320 = VECTOR ( 'NONE', #514, 1000.000000000000000 ) ;
#321 =( LENGTH_UNIT ( ) NAMED_UNIT ( * ) SI_UNIT ( .MILLI., .METRE. ) );
#322 = AXIS2_PLACEMENT_3D ( 'NONE', #569, #217, #99 ) ;
#323 = VERTEX_POINT ( 'NONE', #94 ) ;
#324 = ORIENTED_EDGE ( 'NONE', *, *, #351, .F. ) ;
#325 = DIRECTION ( 'NONE',  ( 1.000000000000000000, 0.000000000000000000, 0.000000000000000000 ) ) ;
#326 = EDGE_CURVE ( 'NONE', #190, #826, #725, .T. ) ;
#327 = CARTESIAN_POINT ( 'NONE',  ( -35.00000000000000000, -46.00000000000000000, 3.000000000000000000 ) ) ;
#328 = EDGE_LOOP ( 'NONE', ( #77, #453, #562, #888 ) ) ;
#329 = ORIENTED_EDGE ( 'NONE', *, *, #214, .F. ) ;
#330 = VECTOR ( 'NONE', #741, 1000.000000000000000 ) ;
#331 = LINE ( 'NONE', #540, #330 ) ;
#332 = DIRECTION ( 'NONE',  ( 1.000000000000000000, 0.000000000000000000, -0.000000000000000000 ) ) ;
#333 = ORIENTED_EDGE ( 'NONE', *, *, #202, .F. ) ;
#334 = LINE ( 'NONE', #339, #556 ) ;
#335 = ADVANCED_FACE ( 'NONE', ( #112 ), #597, .F. ) ;
#336 = CARTESIAN_POINT ( 'NONE',  ( -33.00000000000000000, 46.00000000000000000, 0.000000000000000000 ) ) ;
#337 = VERTEX_POINT ( 'NONE', #318 ) ;
#338 = EDGE_CURVE ( 'NONE', #173, #877, #388, .T. ) ;
#339 = CARTESIAN_POINT ( 'NONE',  ( 31.00000000000000355, 50.00000000000000000, 5.000000000000000000 ) ) ;
#340 = VECTOR ( 'NONE', #630, 1000.000000000000000 ) ;
#341 = DIRECTION ( 'NONE',  ( 0.000000000000000000, 0.000000000000000000, -1.000000000000000000 ) ) ;
#342 = ORIENTED_EDGE ( 'NONE', *, *, #636, .F. ) ;
#343 = ADVANCED_FACE ( 'NONE', ( #525 ), #814, .T. ) ;
#344 = DIRECTION ( 'NONE',  ( -0.000000000000000000, 0.000000000000000000, -1.000000000000000000 ) ) ;
#345 = FACE_OUTER_BOUND ( 'NONE', #21, .T. ) ;
#346 = CARTESIAN_POINT ( 'NONE',  ( -34.00000000000000000, -46.00000000000000000, 2.000000000000000000 ) ) ;
#347 = ORIENTED_EDGE ( 'NONE', *, *, #636, .T. ) ;
#348 = CARTESIAN_POINT ( 'NONE',  ( 35.00000000000000000, 46.00000000000000000, 5.000000000000000000 ) ) ;
#349 = ORIENTED_EDGE ( 'NONE', *, *, #298, .T. ) ;
#350 = VECTOR ( 'NONE', #548, 1000.000000000000000 ) ;
#351 = EDGE_CURVE ( 'NONE', #772, #605, #70, .T. ) ;
#352 = DIRECTION ( 'NONE',  ( 0.000000000000000000, 1.000000000000000000, 0.000000000000000000 ) ) ;
#353 = LINE ( 'NONE', #274, #244 ) ;
#354 = VERTEX_POINT ( 'NONE', #554 ) ;
#355 = DIRECTION ( 'NONE',  ( -1.000000000000000000, 0.000000000000000000, 0.000000000000000000 ) ) ;
#356 = EDGE_LOOP ( 'NONE', ( #494, #638, #381, #521, #794 ) ) ;
#357 = DIRECTION ( 'NONE',  ( -2.168404344971006896E-16, 0.000000000000000000, 1.000000000000000000 ) ) ;
#358 = LINE ( 'NONE', #305, #50 ) ;
#359 = LINE ( 'NONE', #769, #647 ) ;
#360 = UNCERTAINTY_MEASURE_WITH_UNIT (LENGTH_MEASURE( 1.000000000000000082E-05 ), #876, 'distance_accuracy_value', 'NONE');
#361 = ADVANCED_FACE ( 'NONE', ( #345 ), #492, .F. ) ;
#362 = ORIENTED_EDGE ( 'NONE', *, *, #761, .T. ) ;
#363 = VECTOR ( 'NONE', #574, 1000.000000000000000 ) ;
#364 = VECTOR ( 'NONE', #628, 1000.000000000000000 ) ;
#365 = CARTESIAN_POINT ( 'NONE',  ( 35.00000000000000000, -46.00000000000000000, 3.000000000000000000 ) ) ;
#366 = LINE ( 'NONE', #645, #522 ) ;
#367 = EDGE_CURVE ( 'NONE', #727, #443, #840, .T. ) ;
#368 = ORIENTED_EDGE ( 'NONE', *, *, #29, .F. ) ;
#369 = EDGE_CURVE ( 'NONE', #443, #306, #353, .T. ) ;
#370 = LINE ( 'NONE', #439, #363 ) ;
#371 = DIRECTION ( 'NONE',  ( 0.000000000000000000, -0.000000000000000000, -1.000000000000000000 ) ) ;
#372 = AXIS2_PLACEMENT_3D ( 'NONE', #666, #385, #603 ) ;
#373 = ORIENTED_EDGE ( 'NONE', *, *, #10, .F. ) ;
#374 = DIRECTION ( 'NONE',  ( -1.000000000000000000, 0.000000000000000000, 0.000000000000000000 ) ) ;
#375 = LINE ( 'NONE', #24, #474 ) ;
#376 = AXIS2_PLACEMENT_3D ( 'NONE', #242, #518, #32 ) ;
#377 = ORIENTED_EDGE ( 'NONE', *, *, #174, .T. ) ;
#378 = EDGE_CURVE ( 'NONE', #337, #756, #704, .T. ) ;
#379 = DIRECTION ( 'NONE',  ( 1.000000000000000000, -0.000000000000000000, -0.000000000000000000 ) ) ;
#380 = CARTESIAN_POINT ( 'NONE',  ( 0.000000000000000000, -46.00000000000000000, 0.000000000000000000 ) ) ;
#381 = ORIENTED_EDGE ( 'NONE', *, *, #51, .F. ) ;
#382 = EDGE_LOOP ( 'NONE', ( #280, #632, #428, #862 ) ) ;
#383 = DIRECTION ( 'NONE',  ( 1.000000000000000000, 0.000000000000000000, 0.000000000000000000 ) ) ;
#384 = CARTESIAN_POINT ( 'NONE',  ( 35.00000000000000000, 46.00000000000000000, 5.000000000000000000 ) ) ;
#385 = DIRECTION ( 'NONE',  ( -1.000000000000000000, 0.000000000000000000, 0.000000000000000000 ) ) ;
#386 = DIRECTION ( 'NONE',  ( -0.000000000000000000, -0.000000000000000000, -1.000000000000000000 ) ) ;
#387 = ORIENTED_EDGE ( 'NONE', *, *, #565, .F. ) ;
#388 = LINE ( 'NONE', #249, #287 ) ;
#389 = PLANE ( 'NONE',  #780 ) ;
#390 = ORIENTED_EDGE ( 'NONE', *, *, #378, .F. ) ;
#391 = ORIENTED_EDGE ( 'NONE', *, *, #757, .T. ) ;
#392 = EDGE_CURVE ( 'NONE', #83, #175, #285, .T. ) ;
#393 = VECTOR ( 'NONE', #679, 1000.000000000000000 ) ;
#394 = DIRECTION ( 'NONE',  ( -1.000000000000000000, 0.000000000000000000, 0.000000000000000000 ) ) ;
#395 = EDGE_CURVE ( 'NONE', #354, #576, #566, .T. ) ;
#396 = VECTOR ( 'NONE', #726, 1000.000000000000000 ) ;
#397 = LINE ( 'NONE', #252, #320 ) ;
#398 = VERTEX_POINT ( 'NONE', #145 ) ;
#399 = LINE ( 'NONE', #830, #140 ) ;
#400 = DIRECTION ( 'NONE',  ( 0.000000000000000000, 0.000000000000000000, -1.000000000000000000 ) ) ;
#401 = ORIENTED_EDGE ( 'NONE', *, *, #108, .F. ) ;
#402 = FILL_AREA_STYLE ('',( #58 ) ) ;
#403 = PRODUCT_RELATED_PRODUCT_CATEGORY ( 'part', '', ( #262 ) ) ;
#404 = DIRECTION ( 'NONE',  ( -0.000000000000000000, 1.000000000000000000, -0.000000000000000000 ) ) ;
#405 = ORIENTED_EDGE ( 'NONE', *, *, #228, .T. ) ;
#406 = ADVANCED_FACE ( 'NONE', ( #16 ), #206, .F. ) ;
#407 = AXIS2_PLACEMENT_3D ( 'NONE', #180, #432, #141 ) ;
#408 = CARTESIAN_POINT ( 'NONE',  ( 0.000000000000000000, 0.000000000000000000, 5.000000000000000000 ) ) ;
#409 = EDGE_CURVE ( 'NONE', #173, #354, #711, .T. ) ;
#410 = LINE ( 'NONE', #853, #777 ) ;
#411 = ORIENTED_EDGE ( 'NONE', *, *, #627, .T. ) ;
#412 = AXIS2_PLACEMENT_3D ( 'NONE', #533, #676, #325 ) ;
#413 = CARTESIAN_POINT ( 'NONE',  ( -8.699999999999999289, -20.94999999999999929, 0.000000000000000000 ) ) ;
#414 = CARTESIAN_POINT ( 'NONE',  ( 35.00000000000000000, -50.00000000000000000, 5.000000000000000000 ) ) ;
#415 = VERTEX_POINT ( 'NONE', #348 ) ;
#416 = PLANE ( 'NONE',  #648 ) ;
#417 = DIRECTION ( 'NONE',  ( -0.000000000000000000, 1.000000000000000000, -0.000000000000000000 ) ) ;
#418 = CARTESIAN_POINT ( 'NONE',  ( 34.00000000000000000, -46.00000000000000000, 1.000000000000000000 ) ) ;
#419 = ORIENTED_EDGE ( 'NONE', *, *, #10, .T. ) ;
#420 = VECTOR ( 'NONE', #644, 1000.000000000000000 ) ;
#421 = CARTESIAN_POINT ( 'NONE',  ( 34.00000000000000000, -46.00000000000000000, 2.000000000000000000 ) ) ;
#422 = DIRECTION ( 'NONE',  ( 1.000000000000000000, -0.000000000000000000, -0.000000000000000000 ) ) ;
#423 = VERTEX_POINT ( 'NONE', #484 ) ;
#424 = CARTESIAN_POINT ( 'NONE',  ( 33.00000000000000000, -46.00000000000000000, 2.000000000000000000 ) ) ;
#425 = ORIENTED_EDGE ( 'NONE', *, *, #189, .F. ) ;
#426 = DIRECTION ( 'NONE',  ( 0.000000000000000000, 0.000000000000000000, 1.000000000000000000 ) ) ;
#427 = DIRECTION ( 'NONE',  ( 0.000000000000000000, 0.000000000000000000, 1.000000000000000000 ) ) ;
#428 = ORIENTED_EDGE ( 'NONE', *, *, #834, .T. ) ;
#429 = EDGE_CURVE ( 'NONE', #605, #433, #359, .T. ) ;
#430 = DIRECTION ( 'NONE',  ( 0.000000000000000000, 0.000000000000000000, -1.000000000000000000 ) ) ;
#431 = CARTESIAN_POINT ( 'NONE',  ( -8.699999999999999289, -20.94999999999999929, 5.000000000000000000 ) ) ;
#432 = DIRECTION ( 'NONE',  ( 0.000000000000000000, -0.000000000000000000, -1.000000000000000000 ) ) ;
#433 = VERTEX_POINT ( 'NONE', #642 ) ;
#434 = AXIS2_PLACEMENT_3D ( 'NONE', #738, #746, #400 ) ;
#435 = VECTOR ( 'NONE', #864, 1000.000000000000000 ) ;
#436 = CARTESIAN_POINT ( 'NONE',  ( 31.00000000000000355, -50.00000000000000000, 5.000000000000000000 ) ) ;
#437 = PLANE ( 'NONE',  #2 ) ;
#438 = VERTEX_POINT ( 'NONE', #560 ) ;
#439 = CARTESIAN_POINT ( 'NONE',  ( 35.00000000000000000, -50.00000000000000000, 5.000000000000000000 ) ) ;
#440 = DIRECTION ( 'NONE',  ( -0.000000000000000000, -0.000000000000000000, 1.000000000000000000 ) ) ;
#441 = VECTOR ( 'NONE', #123, 1000.000000000000000 ) ;
#442 = PRODUCT_DEFINITION_CONTEXT ( 'detailed design', #165, 'design' ) ;
#443 = VERTEX_POINT ( 'NONE', #290 ) ;
#444 = EDGE_CURVE ( 'NONE', #398, #306, #571, .T. ) ;
#445 = DIRECTION ( 'NONE',  ( -0.000000000000000000, 0.000000000000000000, 1.000000000000000000 ) ) ;
#446 = CARTESIAN_POINT ( 'NONE',  ( -31.00000000000000000, -46.00000000000000000, 5.000000000000000000 ) ) ;
#447 = AXIS2_PLACEMENT_3D ( 'NONE', #898, #341, #221 ) ;
#448 = ORIENTED_EDGE ( 'NONE', *, *, #625, .F. ) ;
#449 = CARTESIAN_POINT ( 'NONE',  ( 33.00000000000000000, -46.00000000000000000, 0.9999999999999997780 ) ) ;
#450 = LINE ( 'NONE', #384, #219 ) ;
#451 = CARTESIAN_POINT ( 'NONE',  ( 33.00000000000000000, -46.00000000000000000, 2.000000000000000000 ) ) ;
#452 =( GEOMETRIC_REPRESENTATION_CONTEXT ( 3 ) GLOBAL_UNCERTAINTY_ASSIGNED_CONTEXT ( ( #360 ) ) GLOBAL_UNIT_ASSIGNED_CONTEXT ( ( #876, #519, #810 ) ) REPRESENTATION_CONTEXT ( 'NONE', 'WORKASPACE' ) );
#453 = ORIENTED_EDGE ( 'NONE', *, *, #3, .F. ) ;
#454 = VECTOR ( 'NONE', #422, 1000.000000000000000 ) ;
#455 = DIRECTION ( 'NONE',  ( -0.000000000000000000, 1.000000000000000000, -0.000000000000000000 ) ) ;
#456 = EDGE_CURVE ( 'NONE', #125, #117, #4, .T. ) ;
#457 = ORIENTED_EDGE ( 'NONE', *, *, #558, .F. ) ;
#458 = ORIENTED_EDGE ( 'NONE', *, *, #861, .F. ) ;
#459 = EDGE_CURVE ( 'NONE', #516, #423, #210, .T. ) ;
#460 = DIRECTION ( 'NONE',  ( 0.000000000000000000, 0.000000000000000000, -1.000000000000000000 ) ) ;
#461 = PLANE ( 'NONE',  #434 ) ;
#462 = ORIENTED_EDGE ( 'NONE', *, *, #134, .T. ) ;
#463 = LINE ( 'NONE', #314, #616 ) ;
#464 = FACE_OUTER_BOUND ( 'NONE', #612, .T. ) ;
#465 = ORIENTED_EDGE ( 'NONE', *, *, #857, .F. ) ;
#466 = DIRECTION ( 'NONE',  ( 0.000000000000000000, 0.000000000000000000, -1.000000000000000000 ) ) ;
#467 = CARTESIAN_POINT ( 'NONE',  ( 31.00000000000000355, 50.00000000000000000, 3.000000000000000000 ) ) ;
#468 = ORIENTED_EDGE ( 'NONE', *, *, #326, .T. ) ;
#469 = CARTESIAN_POINT ( 'NONE',  ( 33.00000000000000000, 46.00000000000000000, 2.000000000000000000 ) ) ;
#470 = PLANE ( 'NONE',  #259 ) ;
#471 = ORIENTED_EDGE ( 'NONE', *, *, #108, .T. ) ;
#472 = DIRECTION ( 'NONE',  ( -0.000000000000000000, 0.000000000000000000, 1.000000000000000000 ) ) ;
#473 = LINE ( 'NONE', #892, #188 ) ;
#474 = VECTOR ( 'NONE', #226, 1000.000000000000000 ) ;
#475 = EDGE_LOOP ( 'NONE', ( #211, #373, #798, #333 ) ) ;
#476 = FACE_BOUND ( 'NONE', #685, .T. ) ;
#477 = DIRECTION ( 'NONE',  ( -1.000000000000000000, 0.000000000000000000, 0.000000000000000000 ) ) ;
#478 = CARTESIAN_POINT ( 'NONE',  ( -31.00000000000000000, -50.00000000000000000, 5.000000000000000000 ) ) ;
#479 = ADVANCED_FACE ( 'NONE', ( #80 ), #634, .T. ) ;
#480 = ORIENTED_EDGE ( 'NONE', *, *, #292, .T. ) ;
#481 = VECTOR ( 'NONE', #62, 1000.000000000000000 ) ;
#482 = EDGE_CURVE ( 'NONE', #438, #120, #315, .T. ) ;
#483 = LINE ( 'NONE', #469, #254 ) ;
#484 = CARTESIAN_POINT ( 'NONE',  ( 31.00000000000000355, -50.00000000000000000, 0.000000000000000000 ) ) ;
#485 = UNCERTAINTY_MEASURE_WITH_UNIT (LENGTH_MEASURE( 1.000000000000000082E-05 ), #321, 'distance_accuracy_value', 'NONE');
#486 = ORIENTED_EDGE ( 'NONE', *, *, #293, .F. ) ;
#487 = AXIS2_PLACEMENT_3D ( 'NONE', #870, #800, #654 ) ;
#488 =( NAMED_UNIT ( * ) SI_UNIT ( $, .STERADIAN. ) SOLID_ANGLE_UNIT ( ) );
#489 = ORIENTED_EDGE ( 'NONE', *, *, #895, .T. ) ;
#490 = CARTESIAN_POINT ( 'NONE',  ( -33.00000000000000000, -46.00000000000000000, 3.000000000000000000 ) ) ;
#491 = VECTOR ( 'NONE', #735, 1000.000000000000000 ) ;
#492 = PLANE ( 'NONE',  #806 ) ;
#493 = EDGE_CURVE ( 'NONE', #498, #173, #310, .T. ) ;
#494 = ORIENTED_EDGE ( 'NONE', *, *, #722, .F. ) ;
#495 = LINE ( 'NONE', #153, #119 ) ;
#496 = CARTESIAN_POINT ( 'NONE',  ( 31.00000000000000355, -46.00000000000000000, 5.000000000000000000 ) ) ;
#497 = CARTESIAN_POINT ( 'NONE',  ( 35.00000000000000000, 46.00000000000000000, 3.000000000000000000 ) ) ;
#498 = VERTEX_POINT ( 'NONE', #182 ) ;
#499 = LINE ( 'NONE', #796, #215 ) ;
#500 = CARTESIAN_POINT ( 'NONE',  ( 35.00000000000000000, 50.00000000000000000, 5.000000000000000000 ) ) ;
#501 = ORIENTED_EDGE ( 'NONE', *, *, #272, .F. ) ;
#502 = VECTOR ( 'NONE', #124, 1000.000000000000000 ) ;
#503 = AXIS2_PLACEMENT_3D ( 'NONE', #424, #355, #426 ) ;
#504 = LINE ( 'NONE', #27, #63 ) ;
#505 = CARTESIAN_POINT ( 'NONE',  ( 33.00000000000000000, 46.00000000000000000, 0.000000000000000000 ) ) ;
#506 = EDGE_CURVE ( 'NONE', #317, #152, #191, .T. ) ;
#507 = ORIENTED_EDGE ( 'NONE', *, *, #802, .F. ) ;
#508 = CARTESIAN_POINT ( 'NONE',  ( 34.00000000000000000, 46.00000000000000000, 2.000000000000000000 ) ) ;
#509 = CARTESIAN_POINT ( 'NONE',  ( -8.699999999999999289, 6.049999999999999822, 5.000000000000000000 ) ) ;
#510 = EDGE_LOOP ( 'NONE', ( #626, #701, #662, #837 ) ) ;
#511 = DIRECTION ( 'NONE',  ( 0.000000000000000000, -0.000000000000000000, 1.000000000000000000 ) ) ;
#512 = LINE ( 'NONE', #44, #491 ) ;
#513 = DIRECTION ( 'NONE',  ( -0.000000000000000000, 1.000000000000000000, -0.000000000000000000 ) ) ;
#514 = DIRECTION ( 'NONE',  ( -0.000000000000000000, 1.000000000000000000, -0.000000000000000000 ) ) ;
#515 = VECTOR ( 'NONE', #374, 1000.000000000000000 ) ;
#516 = VERTEX_POINT ( 'NONE', #172 ) ;
#517 = EDGE_CURVE ( 'NONE', #712, #820, #107, .T. ) ;
#518 = DIRECTION ( 'NONE',  ( -0.000000000000000000, -0.000000000000000000, 1.000000000000000000 ) ) ;
#519 =( NAMED_UNIT ( * ) PLANE_ANGLE_UNIT ( ) SI_UNIT ( $, .RADIAN. ) );
#520 = SURFACE_STYLE_FILL_AREA ( #402 ) ;
#521 = ORIENTED_EDGE ( 'NONE', *, *, #409, .F. ) ;
#522 = VECTOR ( 'NONE', #19, 1000.000000000000000 ) ;
#523 = ADVANCED_FACE ( 'NONE', ( #736 ), #53, .F. ) ;
#524 = ORIENTED_EDGE ( 'NONE', *, *, #174, .F. ) ;
#525 = FACE_OUTER_BOUND ( 'NONE', #657, .T. ) ;
#526 = FACE_OUTER_BOUND ( 'NONE', #646, .T. ) ;
#527 = EDGE_CURVE ( 'NONE', #826, #42, #331, .T. ) ;
#528 = DIRECTION ( 'NONE',  ( -0.000000000000000000, 1.000000000000000000, -0.000000000000000000 ) ) ;
#529 = VECTOR ( 'NONE', #787, 1000.000000000000000 ) ;
#530 =( GEOMETRIC_REPRESENTATION_CONTEXT ( 3 ) GLOBAL_UNCERTAINTY_ASSIGNED_CONTEXT ( ( #485 ) ) GLOBAL_UNIT_ASSIGNED_CONTEXT ( ( #321, #66, #488 ) ) REPRESENTATION_CONTEXT ( 'NONE', 'WORKASPACE' ) );
#531 = LINE ( 'NONE', #819, #393 ) ;
#532 = ORIENTED_EDGE ( 'NONE', *, *, #482, .T. ) ;
#533 = CARTESIAN_POINT ( 'NONE',  ( 0.000000000000000000, 0.000000000000000000, 0.000000000000000000 ) ) ;
#534 = CARTESIAN_POINT ( 'NONE',  ( -33.00000000000000000, -46.00000000000000000, -2.449293598294700991E-16 ) ) ;
#535 = ORIENTED_EDGE ( 'NONE', *, *, #881, .F. ) ;
#536 = VECTOR ( 'NONE', #157, 1000.000000000000000 ) ;
#537 = ORIENTED_EDGE ( 'NONE', *, *, #292, .F. ) ;
#538 = CARTESIAN_POINT ( 'NONE',  ( -35.00000000000000000, -46.00000000000000000, 0.000000000000000000 ) ) ;
#539 = ADVANCED_FACE ( 'NONE', ( #872 ), #245, .F. ) ;
#540 = CARTESIAN_POINT ( 'NONE',  ( -34.00000000000000000, 46.00000000000000000, 2.000000000000000000 ) ) ;
#541 = PLANE ( 'NONE',  #656 ) ;
#542 = ORIENTED_EDGE ( 'NONE', *, *, #111, .T. ) ;
#543 = VECTOR ( 'NONE', #289, 1000.000000000000000 ) ;
#544 = DIRECTION ( 'NONE',  ( 0.000000000000000000, 0.000000000000000000, -1.000000000000000000 ) ) ;
#545 = DIRECTION ( 'NONE',  ( -0.000000000000000000, -0.000000000000000000, -1.000000000000000000 ) ) ;
#546 = ORIENTED_EDGE ( 'NONE', *, *, #625, .T. ) ;
#547 = CARTESIAN_POINT ( 'NONE',  ( -35.00000000000000000, 46.00000000000000000, 5.000000000000000000 ) ) ;
#548 = DIRECTION ( 'NONE',  ( 0.000000000000000000, -0.000000000000000000, -1.000000000000000000 ) ) ;
#549 = EDGE_LOOP ( 'NONE', ( #873, #329, #635, #377 ) ) ;
#550 = EDGE_CURVE ( 'NONE', #516, #858, #817, .T. ) ;
#551 = CARTESIAN_POINT ( 'NONE',  ( 0.000000000000000000, 46.00000000000000000, 0.000000000000000000 ) ) ;
#552 = EDGE_CURVE ( 'NONE', #866, #337, #751, .T. ) ;
#553 = CLOSED_SHELL ( 'NONE', ( #148, #46, #73, #41, #716, #668, #719, #539, #652, #138, #765, #732, #335, #406, #116, #593, #343, #789, #479, #198, #162, #663, #523, #361, #852, #270, #821, #681 ) ) ;
#554 = CARTESIAN_POINT ( 'NONE',  ( 35.00000000000000000, -46.00000000000000000, 0.000000000000000000 ) ) ;
#555 = DIRECTION ( 'NONE',  ( 0.000000000000000000, 0.000000000000000000, -1.000000000000000000 ) ) ;
#556 = VECTOR ( 'NONE', #613, 1000.000000000000000 ) ;
#557 = ORIENTED_EDGE ( 'NONE', *, *, #268, .T. ) ;
#558 = EDGE_CURVE ( 'NONE', #752, #438, #45, .T. ) ;
#559 = CARTESIAN_POINT ( 'NONE',  ( -8.699999999999999289, 6.049999999999999822, 5.000000000000000000 ) ) ;
#560 = CARTESIAN_POINT ( 'NONE',  ( -33.00000000000000000, -46.00000000000000000, -2.449293598294700991E-16 ) ) ;
#561 = ORIENTED_EDGE ( 'NONE', *, *, #698, .T. ) ;
#562 = ORIENTED_EDGE ( 'NONE', *, *, #649, .F. ) ;
#563 = VECTOR ( 'NONE', #383, 1000.000000000000000 ) ;
#564 = LINE ( 'NONE', #509, #435 ) ;
#565 = EDGE_CURVE ( 'NONE', #267, #674, #827, .T. ) ;
#566 = LINE ( 'NONE', #850, #617 ) ;
#567 = ORIENTED_EDGE ( 'NONE', *, *, #429, .F. ) ;
#568 = DIRECTION ( 'NONE',  ( -0.000000000000000000, 0.000000000000000000, -1.000000000000000000 ) ) ;
#569 = CARTESIAN_POINT ( 'NONE',  ( -33.00000000000000000, -46.00000000000000000, 2.000000000000000000 ) ) ;
#570 = PRODUCT_DEFINITION_FORMATION_WITH_SPECIFIED_SOURCE ( 'ANY', '', #262, .NOT_KNOWN. ) ;
#571 = LINE ( 'NONE', #497, #340 ) ;
#572 = ORIENTED_EDGE ( 'NONE', *, *, #202, .T. ) ;
#573 = MANIFOLD_SOLID_BREP ( 'Cut-Extrude3', #553 ) ;
#574 = DIRECTION ( 'NONE',  ( 0.000000000000000000, 1.000000000000000000, 0.000000000000000000 ) ) ;
#575 = DIRECTION ( 'NONE',  ( 0.000000000000000000, -1.000000000000000000, 0.000000000000000000 ) ) ;
#576 = VERTEX_POINT ( 'NONE', #686 ) ;
#577 = CYLINDRICAL_SURFACE ( 'NONE', #487, 4.000000000000000000 ) ;
#578 = DIRECTION ( 'NONE',  ( 0.000000000000000000, -1.000000000000000000, 0.000000000000000000 ) ) ;
#579 = CIRCLE ( 'NONE', #730, 4.000000000000000000 ) ;
#580 = ORIENTED_EDGE ( 'NONE', *, *, #88, .T. ) ;
#581 = CIRCLE ( 'NONE', #838, 4.000000000000000000 ) ;
#582 = LINE ( 'NONE', #585, #891 ) ;
#583 = DIRECTION ( 'NONE',  ( -0.000000000000000000, -1.000000000000000000, -0.000000000000000000 ) ) ;
#584 = ORIENTED_EDGE ( 'NONE', *, *, #136, .T. ) ;
#585 = CARTESIAN_POINT ( 'NONE',  ( -33.00000000000000000, -46.00000000000000000, 2.000000000000000000 ) ) ;
#586 = LINE ( 'NONE', #538, #737 ) ;
#587 = CARTESIAN_POINT ( 'NONE',  ( 35.00000000000000000, -46.00000000000000000, 5.000000000000000000 ) ) ;
#588 = ORIENTED_EDGE ( 'NONE', *, *, #238, .F. ) ;
#589 = EDGE_CURVE ( 'NONE', #842, #271, #399, .T. ) ;
#590 = ORIENTED_EDGE ( 'NONE', *, *, #392, .F. ) ;
#591 = CARTESIAN_POINT ( 'NONE',  ( -34.00000000000000000, -46.00000000000000000, 1.000000000000000000 ) ) ;
#592 = CARTESIAN_POINT ( 'NONE',  ( -31.00000000000000000, -46.00000000000000000, 0.000000000000000000 ) ) ;
#593 = ADVANCED_FACE ( 'NONE', ( #476, #195 ), #416, .F. ) ;
#594 = ORIENTED_EDGE ( 'NONE', *, *, #409, .T. ) ;
#595 = ORIENTED_EDGE ( 'NONE', *, *, #61, .F. ) ;
#596 = EDGE_CURVE ( 'NONE', #306, #68, #483, .T. ) ;
#597 = PLANE ( 'NONE',  #12 ) ;
#598 = CARTESIAN_POINT ( 'NONE',  ( 11.30000000000000426, -20.94999999999999929, 5.000000000000000000 ) ) ;
#599 = AXIS2_PLACEMENT_3D ( 'NONE', #421, #139, #472 ) ;
#600 = ORIENTED_EDGE ( 'NONE', *, *, #832, .T. ) ;
#601 = ORIENTED_EDGE ( 'NONE', *, *, #691, .F. ) ;
#602 = DIRECTION ( 'NONE',  ( -1.000000000000000000, -0.000000000000000000, 1.224646799147349263E-16 ) ) ;
#603 = DIRECTION ( 'NONE',  ( 0.000000000000000000, 0.000000000000000000, 1.000000000000000000 ) ) ;
#604 = AXIS2_PLACEMENT_3D ( 'NONE', #592, #466, #887 ) ;
#605 = VERTEX_POINT ( 'NONE', #413 ) ;
#606 = VERTEX_POINT ( 'NONE', #1 ) ;
#607 = DIRECTION ( 'NONE',  ( 0.000000000000000000, -0.000000000000000000, -1.000000000000000000 ) ) ;
#608 = EDGE_CURVE ( 'NONE', #433, #267, #213, .T. ) ;
#609 = SURFACE_STYLE_USAGE ( .BOTH. , #177 ) ;
#610 = CARTESIAN_POINT ( 'NONE',  ( 33.00000000000000000, 46.00000000000000000, 2.000000000000000000 ) ) ;
#611 = VECTOR ( 'NONE', #734, 1000.000000000000000 ) ;
#612 = EDGE_LOOP ( 'NONE', ( #501, #146, #457, #30 ) ) ;
#613 = DIRECTION ( 'NONE',  ( 0.000000000000000000, 0.000000000000000000, -1.000000000000000000 ) ) ;
#614 = CARTESIAN_POINT ( 'NONE',  ( -33.00000000000000000, -46.00000000000000000, 2.000000000000000000 ) ) ;
#615 = ORIENTED_EDGE ( 'NONE', *, *, #51, .T. ) ;
#616 = VECTOR ( 'NONE', #52, 1000.000000000000000 ) ;
#617 = VECTOR ( 'NONE', #477, 1000.000000000000000 ) ;
#618 = CARTESIAN_POINT ( 'NONE',  ( 35.00000000000000000, 50.00000000000000000, 3.000000000000000000 ) ) ;
#619 = CARTESIAN_POINT ( 'NONE',  ( 31.00000000000000355, -46.00000000000000000, 0.000000000000000000 ) ) ;
#620 = ORIENTED_EDGE ( 'NONE', *, *, #298, .F. ) ;
#621 = EDGE_CURVE ( 'NONE', #239, #820, #758, .T. ) ;
#622 = PLANE ( 'NONE',  #599 ) ;
#623 = DIRECTION ( 'NONE',  ( -0.000000000000000000, -0.000000000000000000, -1.000000000000000000 ) ) ;
#624 = CARTESIAN_POINT ( 'NONE',  ( 31.00000000000000355, 50.00000000000000000, 5.000000000000000000 ) ) ;
#625 = EDGE_CURVE ( 'NONE', #110, #72, #334, .T. ) ;
#626 = ORIENTED_EDGE ( 'NONE', *, *, #136, .F. ) ;
#627 = EDGE_CURVE ( 'NONE', #299, #606, #130, .T. ) ;
#628 = DIRECTION ( 'NONE',  ( 1.000000000000000000, -0.000000000000000000, 2.168404344971006896E-16 ) ) ;
#629 = CIRCLE ( 'NONE', #748, 4.000000000000000000 ) ;
#630 = DIRECTION ( 'NONE',  ( 1.000000000000000000, -0.000000000000000000, -0.000000000000000000 ) ) ;
#631 = AXIS2_PLACEMENT_3D ( 'NONE', #559, #903, #763 ) ;
#632 = ORIENTED_EDGE ( 'NONE', *, *, #517, .F. ) ;
#633 = LINE ( 'NONE', #281, #718 ) ;
#634 = CYLINDRICAL_SURFACE ( 'NONE', #771, 4.000000000000000000 ) ;
#635 = ORIENTED_EDGE ( 'NONE', *, *, #456, .F. ) ;
#636 = EDGE_CURVE ( 'NONE', #693, #72, #695, .T. ) ;
#637 = FACE_OUTER_BOUND ( 'NONE', #549, .T. ) ;
#638 = ORIENTED_EDGE ( 'NONE', *, *, #241, .F. ) ;
#639 = PLANE ( 'NONE',  #447 ) ;
#640 = LINE ( 'NONE', #721, #203 ) ;
#641 = VECTOR ( 'NONE', #778, 1000.000000000000000 ) ;
#642 = CARTESIAN_POINT ( 'NONE',  ( -8.699999999999999289, 6.049999999999999822, 0.000000000000000000 ) ) ;
#643 = ORIENTED_EDGE ( 'NONE', *, *, #338, .F. ) ;
#644 = DIRECTION ( 'NONE',  ( -1.000000000000000000, 0.000000000000000000, 0.000000000000000000 ) ) ;
#645 = CARTESIAN_POINT ( 'NONE',  ( -33.00000000000000000, -46.00000000000000000, 3.000000000000000000 ) ) ;
#646 = EDGE_LOOP ( 'NONE', ( #812, #489, #731, #462, #286, #100, #808, #35 ) ) ;
#647 = VECTOR ( 'NONE', #155, 1000.000000000000000 ) ;
#648 = AXIS2_PLACEMENT_3D ( 'NONE', #408, #544, #74 ) ;
#649 = EDGE_CURVE ( 'NONE', #323, #752, #278, .T. ) ;
#650 = CARTESIAN_POINT ( 'NONE',  ( -33.00000000000000000, 46.00000000000000000, 1.000000000000000000 ) ) ;
#651 = CARTESIAN_POINT ( 'NONE',  ( 33.00000000000000000, -46.00000000000000000, 0.9999999999999997780 ) ) ;
#652 = ADVANCED_FACE ( 'NONE', ( #69 ), #622, .F. ) ;
#653 = ORIENTED_EDGE ( 'NONE', *, *, #895, .F. ) ;
#654 = DIRECTION ( 'NONE',  ( -1.000000000000000000, 0.000000000000000000, 0.000000000000000000 ) ) ;
#655 = DIRECTION ( 'NONE',  ( -0.000000000000000000, 0.000000000000000000, 1.000000000000000000 ) ) ;
#656 = AXIS2_PLACEMENT_3D ( 'NONE', #418, #357, #192 ) ;
#657 = EDGE_LOOP ( 'NONE', ( #465, #889, #653, #723, #767 ) ) ;
#658 = CARTESIAN_POINT ( 'NONE',  ( -35.00000000000000000, 46.00000000000000000, 5.000000000000000000 ) ) ;
#659 = CARTESIAN_POINT ( 'NONE',  ( 34.00000000000000000, -46.00000000000000000, 2.000000000000000000 ) ) ;
#660 = AXIS2_PLACEMENT_3D ( 'NONE', #446, #122, #243 ) ;
#661 = ORIENTED_EDGE ( 'NONE', *, *, #88, .F. ) ;
#662 = ORIENTED_EDGE ( 'NONE', *, *, #776, .F. ) ;
#663 = ADVANCED_FACE ( 'NONE', ( #896 ), #773, .F. ) ;
#664 = LINE ( 'NONE', #591, #689 ) ;
#665 = DIRECTION ( 'NONE',  ( -0.000000000000000000, -0.000000000000000000, 1.000000000000000000 ) ) ;
#666 = CARTESIAN_POINT ( 'NONE',  ( -8.699999999999999289, 6.049999999999999822, 5.000000000000000000 ) ) ;
#667 = DIRECTION ( 'NONE',  ( 1.000000000000000000, 0.000000000000000000, 0.000000000000000000 ) ) ;
#668 = ADVANCED_FACE ( 'NONE', ( #265 ), #703, .F. ) ;
#669 = ORIENTED_EDGE ( 'NONE', *, *, #395, .F. ) ;
#670 = DIRECTION ( 'NONE',  ( -0.000000000000000000, 1.000000000000000000, -0.000000000000000000 ) ) ;
#671 = APPLICATION_PROTOCOL_DEFINITION ( 'draft international standard', 'automotive_design', 1998, #194 ) ;
#672 = CARTESIAN_POINT ( 'NONE',  ( 34.00000000000000000, -46.00000000000000000, 2.000000000000000000 ) ) ;
#673 = ORIENTED_EDGE ( 'NONE', *, *, #786, .F. ) ;
#674 = VERTEX_POINT ( 'NONE', #79 ) ;
#675 = CIRCLE ( 'NONE', #792, 4.000000000000000000 ) ;
#676 = DIRECTION ( 'NONE',  ( 0.000000000000000000, 0.000000000000000000, 1.000000000000000000 ) ) ;
#677 = VECTOR ( 'NONE', #690, 1000.000000000000000 ) ;
#678 = CARTESIAN_POINT ( 'NONE',  ( -33.00000000000000000, -46.00000000000000000, -2.449293598294700991E-16 ) ) ;
#679 = DIRECTION ( 'NONE',  ( -1.000000000000000000, -0.000000000000000000, -0.000000000000000000 ) ) ;
#680 = EDGE_LOOP ( 'NONE', ( #183, #316, #833, #620 ) ) ;
#681 = ADVANCED_FACE ( 'NONE', ( #839 ), #273, .T. ) ;
#682 = DIRECTION ( 'NONE',  ( -1.000000000000000000, 0.000000000000000000, -2.168404344971006896E-16 ) ) ;
#683 = VECTOR ( 'NONE', #823, 1000.000000000000000 ) ;
#684 = PLANE ( 'NONE',  #159 ) ;
#685 = EDGE_LOOP ( 'NONE', ( #788, #874, #775, #561 ) ) ;
#686 = CARTESIAN_POINT ( 'NONE',  ( 33.00000000000000000, -46.00000000000000000, 0.000000000000000000 ) ) ;
#687 = CARTESIAN_POINT ( 'NONE',  ( -31.00000000000000000, 50.00000000000000000, 5.000000000000000000 ) ) ;
#688 = EDGE_LOOP ( 'NONE', ( #546, #342, #224, #537 ) ) ;
#689 = VECTOR ( 'NONE', #875, 1000.000000000000000 ) ;
#690 = DIRECTION ( 'NONE',  ( 0.000000000000000000, 0.000000000000000000, -1.000000000000000000 ) ) ;
#691 = EDGE_CURVE ( 'NONE', #899, #772, #633, .T. ) ;
#692 = DIRECTION ( 'NONE',  ( -0.000000000000000000, -0.000000000000000000, 1.000000000000000000 ) ) ;
#693 = VERTEX_POINT ( 'NONE', #8 ) ;
#694 = EDGE_CURVE ( 'NONE', #271, #899, #640, .T. ) ;
#695 = LINE ( 'NONE', #618, #795 ) ;
#696 = PLANE ( 'NONE',  #907 ) ;
#697 = ORIENTED_EDGE ( 'NONE', *, *, #369, .T. ) ;
#698 = EDGE_CURVE ( 'NONE', #772, #842, #564, .T. ) ;
#699 = CARTESIAN_POINT ( 'NONE',  ( -8.699999999999999289, 6.049999999999999822, 0.000000000000000000 ) ) ;
#700 = DIRECTION ( 'NONE',  ( 0.000000000000000000, -0.000000000000000000, -1.000000000000000000 ) ) ;
#701 = ORIENTED_EDGE ( 'NONE', *, *, #506, .F. ) ;
#702 = VECTOR ( 'NONE', #555, 1000.000000000000000 ) ;
#703 = PLANE ( 'NONE',  #764 ) ;
#704 = LINE ( 'NONE', #75, #296 ) ;
#705 = EDGE_LOOP ( 'NONE', ( #109, #524, #906, #362 ) ) ;
#706 = CYLINDRICAL_SURFACE ( 'NONE', #277, 4.000000000000000000 ) ;
#707 = CARTESIAN_POINT ( 'NONE',  ( -8.699999999999999289, -20.94999999999999929, 5.000000000000000000 ) ) ;
#708 = ORIENTED_EDGE ( 'NONE', *, *, #205, .T. ) ;
#709 = DIRECTION ( 'NONE',  ( -0.000000000000000000, -0.000000000000000000, -1.000000000000000000 ) ) ;
#710 = PLANE ( 'NONE',  #503 ) ;
#711 = LINE ( 'NONE', #87, #529 ) ;
#712 = VERTEX_POINT ( 'NONE', #95 ) ;
#713 = DIRECTION ( 'NONE',  ( -1.000000000000000000, 0.000000000000000000, 0.000000000000000000 ) ) ;
#714 = FACE_OUTER_BOUND ( 'NONE', #356, .T. ) ;
#715 = ADVANCED_BREP_SHAPE_REPRESENTATION ( 'casing lid', ( #573, #412 ), #452 ) ;
#716 = ADVANCED_FACE ( 'NONE', ( #637 ), #854, .F. ) ;
#717 = ORIENTED_EDGE ( 'NONE', *, *, #241, .T. ) ;
#718 = VECTOR ( 'NONE', #797, 1000.000000000000000 ) ;
#719 = ADVANCED_FACE ( 'NONE', ( #154 ), #710, .F. ) ;
#720 = DIRECTION ( 'NONE',  ( 1.000000000000000000, 0.000000000000000000, -0.000000000000000000 ) ) ;
#721 = CARTESIAN_POINT ( 'NONE',  ( 11.30000000000000426, 6.049999999999999822, 5.000000000000000000 ) ) ;
#722 = EDGE_CURVE ( 'NONE', #175, #498, #750, .T. ) ;
#723 = ORIENTED_EDGE ( 'NONE', *, *, #550, .F. ) ;
#724 = PRESENTATION_LAYER_ASSIGNMENT (  '', '', ( #57 ) ) ;
#725 = LINE ( 'NONE', #98, #515 ) ;
#726 = DIRECTION ( 'NONE',  ( 0.000000000000000000, -0.000000000000000000, 1.000000000000000000 ) ) ;
#727 = VERTEX_POINT ( 'NONE', #230 ) ;
#728 = LINE ( 'NONE', #809, #611 ) ;
#729 = DIRECTION ( 'NONE',  ( -0.000000000000000000, -0.000000000000000000, 1.000000000000000000 ) ) ;
#730 = AXIS2_PLACEMENT_3D ( 'NONE', #867, #18, #740 ) ;
#731 = ORIENTED_EDGE ( 'NONE', *, *, #818, .T. ) ;
#732 = ADVANCED_FACE ( 'NONE', ( #785 ), #437, .F. ) ;
#733 = EDGE_LOOP ( 'NONE', ( #156, #115, #739, #471 ) ) ;
#734 = DIRECTION ( 'NONE',  ( -0.000000000000000000, -0.000000000000000000, -1.000000000000000000 ) ) ;
#735 = DIRECTION ( 'NONE',  ( 1.000000000000000000, 0.000000000000000000, 0.000000000000000000 ) ) ;
#736 = FACE_OUTER_BOUND ( 'NONE', #248, .T. ) ;
#737 = VECTOR ( 'NONE', #602, 1000.000000000000000 ) ;
#738 = CARTESIAN_POINT ( 'NONE',  ( -34.00000000000000000, -46.00000000000000000, 2.000000000000000000 ) ) ;
#739 = ORIENTED_EDGE ( 'NONE', *, *, #627, .F. ) ;
#740 = DIRECTION ( 'NONE',  ( -1.000000000000000000, 0.000000000000000000, 0.000000000000000000 ) ) ;
#741 = DIRECTION ( 'NONE',  ( 0.000000000000000000, 0.000000000000000000, 1.000000000000000000 ) ) ;
#742 = CARTESIAN_POINT ( 'NONE',  ( -31.00000000000000355, 46.00000000000000000, 3.000000000000000000 ) ) ;
#743 = VERTEX_POINT ( 'NONE', #150 ) ;
#744 = PRODUCT_CONTEXT ( 'NONE', #194, 'mechanical' ) ;
#745 = DIRECTION ( 'NONE',  ( -1.000000000000000000, 0.000000000000000000, 0.000000000000000000 ) ) ;
#746 = DIRECTION ( 'NONE',  ( 1.000000000000000000, 0.000000000000000000, 0.000000000000000000 ) ) ;
#747 = ORIENTED_EDGE ( 'NONE', *, *, #395, .T. ) ;
#748 = AXIS2_PLACEMENT_3D ( 'NONE', #135, #269, #828 ) ;
#749 = CARTESIAN_POINT ( 'NONE',  ( 35.00000000000000000, 46.00000000000000000, 3.000000000000000000 ) ) ;
#750 = CIRCLE ( 'NONE', #121, 4.000000000000000000 ) ;
#751 = LINE ( 'NONE', #256, #799 ) ;
#752 = VERTEX_POINT ( 'NONE', #791 ) ;
#753 = ORIENTED_EDGE ( 'NONE', *, *, #802, .T. ) ;
#754 = CARTESIAN_POINT ( 'NONE',  ( 11.30000000000000426, 6.049999999999999822, 0.000000000000000000 ) ) ;
#755 = CARTESIAN_POINT ( 'NONE',  ( -33.00000000000000000, -46.00000000000000000, 2.000000000000000000 ) ) ;
#756 = VERTEX_POINT ( 'NONE', #505 ) ;
#757 = EDGE_CURVE ( 'NONE', #47, #398, #158, .T. ) ;
#758 = LINE ( 'NONE', #547, #677 ) ;
#759 = DIRECTION ( 'NONE',  ( 1.000000000000000000, 0.000000000000000000, -0.000000000000000000 ) ) ;
#760 = EDGE_LOOP ( 'NONE', ( #247, #468, #166, #258, #391, #7, #220, #708, #584, #60, #201, #846 ) ) ;
#761 = EDGE_CURVE ( 'NONE', #291, #398, #849, .T. ) ;
#762 = VECTOR ( 'NONE', #623, 1000.000000000000000 ) ;
#763 = DIRECTION ( 'NONE',  ( 0.000000000000000000, -0.000000000000000000, 1.000000000000000000 ) ) ;
#764 = AXIS2_PLACEMENT_3D ( 'NONE', #133, #843, #344 ) ;
#765 = ADVANCED_FACE ( 'NONE', ( #860 ), #781, .F. ) ;
#766 = CARTESIAN_POINT ( 'NONE',  ( -33.00000000000000000, -46.00000000000000000, 1.000000000000000000 ) ) ;
#767 = ORIENTED_EDGE ( 'NONE', *, *, #111, .F. ) ;
#768 = DIRECTION ( 'NONE',  ( 0.000000000000000000, 0.000000000000000000, -1.000000000000000000 ) ) ;
#769 = CARTESIAN_POINT ( 'NONE',  ( -8.699999999999999289, 6.049999999999999822, 0.000000000000000000 ) ) ;
#770 = PLANE ( 'NONE',  #865 ) ;
#771 = AXIS2_PLACEMENT_3D ( 'NONE', #39, #251, #394 ) ;
#772 = VERTEX_POINT ( 'NONE', #431 ) ;
#773 = PLANE ( 'NONE',  #631 ) ;
#774 = CARTESIAN_POINT ( 'NONE',  ( 35.00000000000000000, -50.00000000000000000, 0.000000000000000000 ) ) ;
#775 = ORIENTED_EDGE ( 'NONE', *, *, #691, .T. ) ;
#776 = EDGE_CURVE ( 'NONE', #606, #317, #375, .T. ) ;
#777 = VECTOR ( 'NONE', #692, 1000.000000000000000 ) ;
#778 = DIRECTION ( 'NONE',  ( 0.000000000000000000, 0.000000000000000000, 1.000000000000000000 ) ) ;
#779 = ORIENTED_EDGE ( 'NONE', *, *, #857, .T. ) ;
#780 = AXIS2_PLACEMENT_3D ( 'NONE', #380, #309, #607 ) ;
#781 = PLANE ( 'NONE',  #879 ) ;
#782 = CARTESIAN_POINT ( 'NONE',  ( 35.00000000000000000, -50.00000000000000000, 5.000000000000000000 ) ) ;
#783 = ORIENTED_EDGE ( 'NONE', *, *, #351, .T. ) ;
#784 = DIRECTION ( 'NONE',  ( 0.000000000000000000, 0.000000000000000000, 1.000000000000000000 ) ) ;
#785 = FACE_OUTER_BOUND ( 'NONE', #688, .T. ) ;
#786 = EDGE_CURVE ( 'NONE', #576, #299, #301, .T. ) ;
#787 = DIRECTION ( 'NONE',  ( 0.000000000000000000, 0.000000000000000000, -1.000000000000000000 ) ) ;
#788 = ORIENTED_EDGE ( 'NONE', *, *, #589, .T. ) ;
#789 = ADVANCED_FACE ( 'NONE', ( #714 ), #706, .T. ) ;
#790 = LINE ( 'NONE', #804, #420 ) ;
#791 = CARTESIAN_POINT ( 'NONE',  ( -33.00000000000000000, -46.00000000000000000, 1.000000000000000000 ) ) ;
#792 = AXIS2_PLACEMENT_3D ( 'NONE', #619, #430, #901 ) ;
#793 = EDGE_CURVE ( 'NONE', #239, #743, #358, .T. ) ;
#794 = ORIENTED_EDGE ( 'NONE', *, *, #493, .F. ) ;
#795 = VECTOR ( 'NONE', #900, 1000.000000000000000 ) ;
#796 = CARTESIAN_POINT ( 'NONE',  ( 33.00000000000000000, -46.00000000000000000, 0.000000000000000000 ) ) ;
#797 = DIRECTION ( 'NONE',  ( -1.000000000000000000, -0.000000000000000000, -0.000000000000000000 ) ) ;
#798 = ORIENTED_EDGE ( 'NONE', *, *, #621, .F. ) ;
#799 = VECTOR ( 'NONE', #682, 1000.000000000000000 ) ;
#800 = DIRECTION ( 'NONE',  ( 0.000000000000000000, 0.000000000000000000, -1.000000000000000000 ) ) ;
#801 = CARTESIAN_POINT ( 'NONE',  ( -33.00000000000000000, 46.00000000000000000, 2.000000000000000000 ) ) ;
#802 = EDGE_CURVE ( 'NONE', #271, #267, #234, .T. ) ;
#803 = LINE ( 'NONE', #294, #101 ) ;
#804 = CARTESIAN_POINT ( 'NONE',  ( 35.00000000000000000, 50.00000000000000000, 5.000000000000000000 ) ) ;
#805 = DIRECTION ( 'NONE',  ( 0.000000000000000000, -0.000000000000000000, 1.000000000000000000 ) ) ;
#806 = AXIS2_PLACEMENT_3D ( 'NONE', #707, #6, #700 ) ;
#807 = LINE ( 'NONE', #451, #502 ) ;
#808 = ORIENTED_EDGE ( 'NONE', *, *, #649, .T. ) ;
#809 = CARTESIAN_POINT ( 'NONE',  ( 11.30000000000000426, -20.94999999999999929, 5.000000000000000000 ) ) ;
#810 =( NAMED_UNIT ( * ) SI_UNIT ( $, .STERADIAN. ) SOLID_ANGLE_UNIT ( ) );
#811 = CARTESIAN_POINT ( 'NONE',  ( 34.00000000000000000, -46.00000000000000000, 2.000000000000000000 ) ) ;
#812 = ORIENTED_EDGE ( 'NONE', *, *, #883, .T. ) ;
#813 = ORIENTED_EDGE ( 'NONE', *, *, #722, .T. ) ;
#814 = CYLINDRICAL_SURFACE ( 'NONE', #407, 4.000000000000003553 ) ;
#815 = VECTOR ( 'NONE', #223, 1000.000000000000000 ) ;
#816 = FACE_OUTER_BOUND ( 'NONE', #40, .T. ) ;
#817 = CIRCLE ( 'NONE', #604, 4.000000000000003553 ) ;
#818 = EDGE_CURVE ( 'NONE', #712, #291, #366, .T. ) ;
#819 = CARTESIAN_POINT ( 'NONE',  ( -8.699999999999999289, -20.94999999999999929, 0.000000000000000000 ) ) ;
#820 = VERTEX_POINT ( 'NONE', #295 ) ;
#821 = ADVANCED_FACE ( 'NONE', ( #816 ), #250, .T. ) ;
#822 = CARTESIAN_POINT ( 'NONE',  ( -35.00000000000000000, -46.00000000000000000, 5.000000000000000000 ) ) ;
#823 = DIRECTION ( 'NONE',  ( 0.000000000000000000, 0.000000000000000000, -1.000000000000000000 ) ) ;
#824 = VECTOR ( 'NONE', #511, 1000.000000000000000 ) ;
#825 = ORIENTED_EDGE ( 'NONE', *, *, #268, .F. ) ;
#826 = VERTEX_POINT ( 'NONE', #38 ) ;
#827 = LINE ( 'NONE', #754, #886 ) ;
#828 = DIRECTION ( 'NONE',  ( 1.000000000000000000, 0.000000000000000000, 0.000000000000000000 ) ) ;
#829 = ORIENTED_EDGE ( 'NONE', *, *, #517, .T. ) ;
#830 = CARTESIAN_POINT ( 'NONE',  ( -8.699999999999999289, 6.049999999999999822, 5.000000000000000000 ) ) ;
#831 = CARTESIAN_POINT ( 'NONE',  ( 11.30000000000000426, 6.049999999999999822, 5.000000000000000000 ) ) ;
#832 = EDGE_CURVE ( 'NONE', #317, #727, #171, .T. ) ;
#833 = ORIENTED_EDGE ( 'NONE', *, *, #861, .T. ) ;
#834 = EDGE_CURVE ( 'NONE', #712, #743, #890, .T. ) ;
#835 = CARTESIAN_POINT ( 'NONE',  ( -33.00000000000000000, -46.00000000000000000, 1.000000000000000000 ) ) ;
#836 = DIRECTION ( 'NONE',  ( 0.000000000000000000, 0.000000000000000000, 1.000000000000000000 ) ) ;
#837 = ORIENTED_EDGE ( 'NONE', *, *, #84, .T. ) ;
#838 = AXIS2_PLACEMENT_3D ( 'NONE', #742, #386, #667 ) ;
#839 = FACE_OUTER_BOUND ( 'NONE', #760, .T. ) ;
#840 = LINE ( 'NONE', #9, #641 ) ;
#841 = DIRECTION ( 'NONE',  ( -0.000000000000000000, 1.000000000000000000, -0.000000000000000000 ) ) ;
#842 = VERTEX_POINT ( 'NONE', #871 ) ;
#843 = DIRECTION ( 'NONE',  ( 1.000000000000000000, 0.000000000000000000, -0.000000000000000000 ) ) ;
#844 = DIRECTION ( 'NONE',  ( -1.000000000000000000, 0.000000000000000000, 0.000000000000000000 ) ) ;
#845 = AXIS2_PLACEMENT_3D ( 'NONE', #811, #186, #745 ) ;
#846 = ORIENTED_EDGE ( 'NONE', *, *, #881, .T. ) ;
#847 = CARTESIAN_POINT ( 'NONE',  ( 34.00000000000000000, -46.00000000000000000, 1.000000000000000000 ) ) ;
#848 = ORIENTED_EDGE ( 'NONE', *, *, #596, .F. ) ;
#849 = LINE ( 'NONE', #490, #92 ) ;
#850 = CARTESIAN_POINT ( 'NONE',  ( 35.00000000000000000, -46.00000000000000000, 0.000000000000000000 ) ) ;
#851 = EDGE_LOOP ( 'NONE', ( #532, #535, #588, #669, #615, #227, #17, #93 ) ) ;
#852 = ADVANCED_FACE ( 'NONE', ( #526 ), #389, .F. ) ;
#853 = CARTESIAN_POINT ( 'NONE',  ( -31.00000000000000000, 50.00000000000000000, 5.000000000000000000 ) ) ;
#854 = PLANE ( 'NONE',  #322 ) ;
#855 = VECTOR ( 'NONE', #844, 1000.000000000000000 ) ;
#856 = CARTESIAN_POINT ( 'NONE',  ( -8.699999999999999289, -20.94999999999999929, 5.000000000000000000 ) ) ;
#857 = EDGE_CURVE ( 'NONE', #743, #83, #147, .T. ) ;
#858 = VERTEX_POINT ( 'NONE', #260 ) ;
#859 = CARTESIAN_POINT ( 'NONE',  ( 34.00000000000000000, -46.00000000000000000, 2.000000000000000000 ) ) ;
#860 = FACE_OUTER_BOUND ( 'NONE', #902, .T. ) ;
#861 = EDGE_CURVE ( 'NONE', #877, #415, #450, .T. ) ;
#862 = ORIENTED_EDGE ( 'NONE', *, *, #793, .F. ) ;
#863 = DIRECTION ( 'NONE',  ( 0.000000000000000000, 0.000000000000000000, 1.000000000000000000 ) ) ;
#864 = DIRECTION ( 'NONE',  ( -0.000000000000000000, 1.000000000000000000, -0.000000000000000000 ) ) ;
#865 = AXIS2_PLACEMENT_3D ( 'NONE', #414, #713, #836 ) ;
#866 = VERTEX_POINT ( 'NONE', #113 ) ;
#867 = CARTESIAN_POINT ( 'NONE',  ( 31.00000000000000355, 46.00000000000000000, 5.000000000000000000 ) ) ;
#868 = DIRECTION ( 'NONE',  ( -1.000000000000000000, 0.000000000000000000, 0.000000000000000000 ) ) ;
#869 = DIRECTION ( 'NONE',  ( -0.000000000000000000, 0.000000000000000000, -1.000000000000000000 ) ) ;
#870 = CARTESIAN_POINT ( 'NONE',  ( -31.00000000000000355, 46.00000000000000000, 5.000000000000000000 ) ) ;
#871 = CARTESIAN_POINT ( 'NONE',  ( -8.699999999999999289, 6.049999999999999822, 5.000000000000000000 ) ) ;
#872 = FACE_OUTER_BOUND ( 'NONE', #235, .T. ) ;
#873 = ORIENTED_EDGE ( 'NONE', *, *, #893, .F. ) ;
#874 = ORIENTED_EDGE ( 'NONE', *, *, #694, .T. ) ;
#875 = DIRECTION ( 'NONE',  ( -0.000000000000000000, 1.000000000000000000, -0.000000000000000000 ) ) ;
#876 =( LENGTH_UNIT ( ) NAMED_UNIT ( * ) SI_UNIT ( .MILLI., .METRE. ) );
#877 = VERTEX_POINT ( 'NONE', #749 ) ;
#878 = ORIENTED_EDGE ( 'NONE', *, *, #589, .F. ) ;
#879 = AXIS2_PLACEMENT_3D ( 'NONE', #651, #164, #655 ) ;
#880 = DIRECTION ( 'NONE',  ( 1.000000000000000000, 0.000000000000000000, 0.000000000000000000 ) ) ;
#881 = EDGE_CURVE ( 'NONE', #756, #120, #463, .T. ) ;
#882 = ORIENTED_EDGE ( 'NONE', *, *, #238, .T. ) ;
#883 = EDGE_CURVE ( 'NONE', #438, #858, #586, .T. ) ;
#884 = ORIENTED_EDGE ( 'NONE', *, *, #506, .T. ) ;
#885 = APPLICATION_PROTOCOL_DEFINITION ( 'draft international standard', 'automotive_design', 1998, #165 ) ;
#886 = VECTOR ( 'NONE', #127, 1000.000000000000000 ) ;
#887 = DIRECTION ( 'NONE',  ( -1.000000000000000000, 0.000000000000000000, 0.000000000000000000 ) ) ;
#888 = ORIENTED_EDGE ( 'NONE', *, *, #307, .T. ) ;
#889 = ORIENTED_EDGE ( 'NONE', *, *, #834, .F. ) ;
#890 = LINE ( 'NONE', #185, #105 ) ;
#891 = VECTOR ( 'NONE', #455, 1000.000000000000000 ) ;
#892 = CARTESIAN_POINT ( 'NONE',  ( 33.00000000000000000, -46.00000000000000000, 0.9999999999999997780 ) ) ;
#893 = EDGE_CURVE ( 'NONE', #42, #47, #512, .T. ) ;
#894 = ORIENTED_EDGE ( 'NONE', *, *, #367, .T. ) ;
#895 = EDGE_CURVE ( 'NONE', #858, #712, #56, .T. ) ;
#896 = FACE_OUTER_BOUND ( 'NONE', #5, .T. ) ;
#897 = VECTOR ( 'NONE', #33, 1000.000000000000000 ) ;
#898 = CARTESIAN_POINT ( 'NONE',  ( 0.000000000000000000, 0.000000000000000000, 0.000000000000000000 ) ) ;
#899 = VERTEX_POINT ( 'NONE', #598 ) ;
#900 = DIRECTION ( 'NONE',  ( 1.000000000000000000, -0.000000000000000000, -0.000000000000000000 ) ) ;
#901 = DIRECTION ( 'NONE',  ( -1.000000000000000000, 0.000000000000000000, 0.000000000000000000 ) ) ;
#902 = EDGE_LOOP ( 'NONE', ( #390, #401, #673, #882 ) ) ;
#903 = DIRECTION ( 'NONE',  ( 0.000000000000000000, 1.000000000000000000, 0.000000000000000000 ) ) ;
#904 = DIRECTION ( 'NONE',  ( 0.000000000000000000, 0.000000000000000000, -1.000000000000000000 ) ) ;
#905 = CARTESIAN_POINT ( 'NONE',  ( 34.00000000000000000, 46.00000000000000000, 2.000000000000000000 ) ) ;
#906 = ORIENTED_EDGE ( 'NONE', *, *, #134, .F. ) ;
#907 = AXIS2_PLACEMENT_3D ( 'NONE', #766, #784, #196 ) ;
ENDSEC;
END-ISO-10303-21;
